<?xml version="1.0" encoding="utf-8" standalone="no"?>
<!DOCTYPE svg PUBLIC "-//W3C//DTD SVG 1.1//EN"
  "http://www.w3.org/Graphics/SVG/1.1/DTD/svg11.dtd">
<!-- Created with matplotlib (https://matplotlib.org/) -->
<svg height="577.44pt" version="1.1" viewBox="0 0 1100.16 577.44" width="1100.16pt" xmlns="http://www.w3.org/2000/svg" xmlns:xlink="http://www.w3.org/1999/xlink">
 <defs>
  <style type="text/css">
*{stroke-linecap:butt;stroke-linejoin:round;}
  </style>
 </defs>
 <g id="figure_1">
  <g id="patch_1">
   <path d="M 0 577.44 
L 1100.16 577.44 
L 1100.16 0 
L 0 0 
z
" style="fill:#ffffff;"/>
  </g>
  <g id="axes_1">
   <g id="patch_2">
    <path d="M 137.52 271.3968 
L 990.144 271.3968 
L 990.144 69.2928 
L 137.52 69.2928 
z
" style="fill:#ffffff;"/>
   </g>
   <g id="patch_3">
    <path clip-path="url(#pac72d11066)" d="M -585.195661 297.178723 
L -573.116973 297.178723 
L -573.116973 46.710215 
L -585.195661 46.710215 
z
" style="fill:#d3d3d3;"/>
   </g>
   <g id="patch_4">
    <path clip-path="url(#pac72d11066)" d="M -280.812723 297.178723 
L -268.734035 297.178723 
L -268.734035 46.710215 
L -280.812723 46.710215 
z
" style="fill:#d3d3d3;"/>
   </g>
   <g id="patch_5">
    <path clip-path="url(#pac72d11066)" d="M 23.570215 297.178723 
L 35.648903 297.178723 
L 35.648903 46.710215 
L 23.570215 46.710215 
z
" style="fill:#d3d3d3;"/>
   </g>
   <g id="patch_6">
    <path clip-path="url(#pac72d11066)" d="M 327.953153 297.178723 
L 340.031841 297.178723 
L 340.031841 46.710215 
L 327.953153 46.710215 
z
" style="fill:#d3d3d3;"/>
   </g>
   <g id="patch_7">
    <path clip-path="url(#pac72d11066)" d="M 632.336091 297.178723 
L 644.414779 297.178723 
L 644.414779 46.710215 
L 632.336091 46.710215 
z
" style="fill:#d3d3d3;"/>
   </g>
   <g id="patch_8">
    <path clip-path="url(#pac72d11066)" d="M 650.454123 297.178723 
L 662.532811 297.178723 
L 662.532811 46.710215 
L 650.454123 46.710215 
z
" style="fill:#d3d3d3;"/>
   </g>
   <g id="patch_9">
    <path clip-path="url(#pac72d11066)" d="M 685.482319 297.178723 
L 697.561007 297.178723 
L 697.561007 46.710215 
L 685.482319 46.710215 
z
" style="fill:#d3d3d3;"/>
   </g>
   <g id="patch_10">
    <path clip-path="url(#pac72d11066)" d="M 989.865257 297.178723 
L 1001.943945 297.178723 
L 1001.943945 46.710215 
L 989.865257 46.710215 
z
" style="fill:#d3d3d3;"/>
   </g>
   <g id="patch_11">
    <path clip-path="url(#pac72d11066)" d="M 1294.248195 297.178723 
L 1306.326883 297.178723 
L 1306.326883 46.710215 
L 1294.248195 46.710215 
z
" style="fill:#d3d3d3;"/>
   </g>
   <g id="patch_12">
    <path clip-path="url(#pac72d11066)" d="M 1598.631133 297.178723 
L 1610.709821 297.178723 
L 1610.709821 46.710215 
L 1598.631133 46.710215 
z
" style="fill:#d3d3d3;"/>
   </g>
   <g id="patch_13">
    <path clip-path="url(#pac72d11066)" d="M 1616.749165 297.178723 
L 1628.827853 297.178723 
L 1628.827853 46.710215 
L 1616.749165 46.710215 
z
" style="fill:#d3d3d3;"/>
   </g>
   <g id="patch_14">
    <path clip-path="url(#pac72d11066)" d="M 1651.77736 297.178723 
L 1663.856048 297.178723 
L 1663.856048 46.710215 
L 1651.77736 46.710215 
z
" style="fill:#d3d3d3;"/>
   </g>
   <g id="patch_15">
    <path clip-path="url(#pac72d11066)" d="M 1956.160299 297.178723 
L 1968.238987 297.178723 
L 1968.238987 46.710215 
L 1956.160299 46.710215 
z
" style="fill:#d3d3d3;"/>
   </g>
   <g id="patch_16">
    <path clip-path="url(#pac72d11066)" d="M 2260.543237 297.178723 
L 2272.621925 297.178723 
L 2272.621925 46.710215 
L 2260.543237 46.710215 
z
" style="fill:#d3d3d3;"/>
   </g>
   <g id="patch_17">
    <path clip-path="url(#pac72d11066)" d="M 2278.661269 297.178723 
L 2290.739957 297.178723 
L 2290.739957 46.710215 
L 2278.661269 46.710215 
z
" style="fill:#d3d3d3;"/>
   </g>
   <g id="patch_18">
    <path clip-path="url(#pac72d11066)" d="M 2313.689464 297.178723 
L 2325.768152 297.178723 
L 2325.768152 46.710215 
L 2313.689464 46.710215 
z
" style="fill:#d3d3d3;"/>
   </g>
   <g id="patch_19">
    <path clip-path="url(#pac72d11066)" d="M 2618.072402 297.178723 
L 2630.15109 297.178723 
L 2630.15109 46.710215 
L 2618.072402 46.710215 
z
" style="fill:#d3d3d3;"/>
   </g>
   <g id="patch_20">
    <path clip-path="url(#pac72d11066)" d="M 2636.190434 297.178723 
L 2648.269122 297.178723 
L 2648.269122 46.710215 
L 2636.190434 46.710215 
z
" style="fill:#d3d3d3;"/>
   </g>
   <g id="patch_21">
    <path clip-path="url(#pac72d11066)" d="M 2671.218629 297.178723 
L 2683.297317 297.178723 
L 2683.297317 46.710215 
L 2671.218629 46.710215 
z
" style="fill:#d3d3d3;"/>
   </g>
   <g id="patch_22">
    <path clip-path="url(#pac72d11066)" d="M 2689.336661 297.178723 
L 2701.415349 297.178723 
L 2701.415349 46.710215 
L 2689.336661 46.710215 
z
" style="fill:#d3d3d3;"/>
   </g>
   <g id="patch_23">
    <path clip-path="url(#pac72d11066)" d="M 2724.364857 297.178723 
L 2736.443545 297.178723 
L 2736.443545 46.710215 
L 2724.364857 46.710215 
z
" style="fill:#d3d3d3;"/>
   </g>
   <g id="matplotlib.axis_1">
    <g id="xtick_1">
     <g id="line2d_1">
      <defs>
       <path d="M 0 0 
L 0 3.5 
" id="m5e7e5be355" style="stroke:#000000;stroke-width:0.8;"/>
      </defs>
      <g>
       <use style="stroke:#000000;stroke-width:0.8;" x="211.997748" xlink:href="#m5e7e5be355" y="271.3968"/>
      </g>
     </g>
    </g>
    <g id="xtick_2">
     <g id="line2d_2">
      <g>
       <use style="stroke:#000000;stroke-width:0.8;" x="332.784628" xlink:href="#m5e7e5be355" y="271.3968"/>
      </g>
     </g>
    </g>
    <g id="xtick_3">
     <g id="line2d_3">
      <g>
       <use style="stroke:#000000;stroke-width:0.8;" x="453.571509" xlink:href="#m5e7e5be355" y="271.3968"/>
      </g>
     </g>
    </g>
    <g id="xtick_4">
     <g id="line2d_4">
      <g>
       <use style="stroke:#000000;stroke-width:0.8;" x="574.358389" xlink:href="#m5e7e5be355" y="271.3968"/>
      </g>
     </g>
    </g>
    <g id="xtick_5">
     <g id="line2d_5">
      <g>
       <use style="stroke:#000000;stroke-width:0.8;" x="695.145269" xlink:href="#m5e7e5be355" y="271.3968"/>
      </g>
     </g>
    </g>
    <g id="xtick_6">
     <g id="line2d_6">
      <g>
       <use style="stroke:#000000;stroke-width:0.8;" x="815.932149" xlink:href="#m5e7e5be355" y="271.3968"/>
      </g>
     </g>
    </g>
    <g id="xtick_7">
     <g id="line2d_7">
      <g>
       <use style="stroke:#000000;stroke-width:0.8;" x="936.719029" xlink:href="#m5e7e5be355" y="271.3968"/>
      </g>
     </g>
    </g>
   </g>
   <g id="matplotlib.axis_2">
    <g id="ytick_1">
     <g id="line2d_8">
      <defs>
       <path d="M 0 0 
L -3.5 0 
" id="m281aec8158" style="stroke:#000000;stroke-width:0.8;"/>
      </defs>
      <g>
       <use style="stroke:#000000;stroke-width:0.8;" x="137.52" xlink:href="#m281aec8158" y="248.259093"/>
      </g>
     </g>
     <g id="text_1">
      <!-- 50 -->
      <defs>
       <path d="M 10.796875 72.90625 
L 49.515625 72.90625 
L 49.515625 64.59375 
L 19.828125 64.59375 
L 19.828125 46.734375 
Q 21.96875 47.46875 24.109375 47.828125 
Q 26.265625 48.1875 28.421875 48.1875 
Q 40.625 48.1875 47.75 41.5 
Q 54.890625 34.8125 54.890625 23.390625 
Q 54.890625 11.625 47.5625 5.09375 
Q 40.234375 -1.421875 26.90625 -1.421875 
Q 22.3125 -1.421875 17.546875 -0.640625 
Q 12.796875 0.140625 7.71875 1.703125 
L 7.71875 11.625 
Q 12.109375 9.234375 16.796875 8.0625 
Q 21.484375 6.890625 26.703125 6.890625 
Q 35.15625 6.890625 40.078125 11.328125 
Q 45.015625 15.765625 45.015625 23.390625 
Q 45.015625 31 40.078125 35.4375 
Q 35.15625 39.890625 26.703125 39.890625 
Q 22.75 39.890625 18.8125 39.015625 
Q 14.890625 38.140625 10.796875 36.28125 
z
" id="DejaVuSans-53"/>
       <path d="M 31.78125 66.40625 
Q 24.171875 66.40625 20.328125 58.90625 
Q 16.5 51.421875 16.5 36.375 
Q 16.5 21.390625 20.328125 13.890625 
Q 24.171875 6.390625 31.78125 6.390625 
Q 39.453125 6.390625 43.28125 13.890625 
Q 47.125 21.390625 47.125 36.375 
Q 47.125 51.421875 43.28125 58.90625 
Q 39.453125 66.40625 31.78125 66.40625 
z
M 31.78125 74.21875 
Q 44.046875 74.21875 50.515625 64.515625 
Q 56.984375 54.828125 56.984375 36.375 
Q 56.984375 17.96875 50.515625 8.265625 
Q 44.046875 -1.421875 31.78125 -1.421875 
Q 19.53125 -1.421875 13.0625 8.265625 
Q 6.59375 17.96875 6.59375 36.375 
Q 6.59375 54.828125 13.0625 64.515625 
Q 19.53125 74.21875 31.78125 74.21875 
z
" id="DejaVuSans-48"/>
      </defs>
      <g transform="translate(117.795 252.058312)scale(0.1 -0.1)">
       <use xlink:href="#DejaVuSans-53"/>
       <use x="63.623047" xlink:href="#DejaVuSans-48"/>
      </g>
     </g>
    </g>
    <g id="ytick_2">
     <g id="line2d_9">
      <g>
       <use style="stroke:#000000;stroke-width:0.8;" x="137.52" xlink:href="#m281aec8158" y="223.799277"/>
      </g>
     </g>
     <g id="text_2">
      <!-- 75 -->
      <defs>
       <path d="M 8.203125 72.90625 
L 55.078125 72.90625 
L 55.078125 68.703125 
L 28.609375 0 
L 18.3125 0 
L 43.21875 64.59375 
L 8.203125 64.59375 
z
" id="DejaVuSans-55"/>
      </defs>
      <g transform="translate(117.795 227.598496)scale(0.1 -0.1)">
       <use xlink:href="#DejaVuSans-55"/>
       <use x="63.623047" xlink:href="#DejaVuSans-53"/>
      </g>
     </g>
    </g>
    <g id="ytick_3">
     <g id="line2d_10">
      <g>
       <use style="stroke:#000000;stroke-width:0.8;" x="137.52" xlink:href="#m281aec8158" y="199.339462"/>
      </g>
     </g>
     <g id="text_3">
      <!-- 100 -->
      <defs>
       <path d="M 12.40625 8.296875 
L 28.515625 8.296875 
L 28.515625 63.921875 
L 10.984375 60.40625 
L 10.984375 69.390625 
L 28.421875 72.90625 
L 38.28125 72.90625 
L 38.28125 8.296875 
L 54.390625 8.296875 
L 54.390625 0 
L 12.40625 0 
z
" id="DejaVuSans-49"/>
      </defs>
      <g transform="translate(111.4325 203.138681)scale(0.1 -0.1)">
       <use xlink:href="#DejaVuSans-49"/>
       <use x="63.623047" xlink:href="#DejaVuSans-48"/>
       <use x="127.246094" xlink:href="#DejaVuSans-48"/>
      </g>
     </g>
    </g>
    <g id="ytick_4">
     <g id="line2d_11">
      <g>
       <use style="stroke:#000000;stroke-width:0.8;" x="137.52" xlink:href="#m281aec8158" y="174.879647"/>
      </g>
     </g>
     <g id="text_4">
      <!-- 125 -->
      <defs>
       <path d="M 19.1875 8.296875 
L 53.609375 8.296875 
L 53.609375 0 
L 7.328125 0 
L 7.328125 8.296875 
Q 12.9375 14.109375 22.625 23.890625 
Q 32.328125 33.6875 34.8125 36.53125 
Q 39.546875 41.84375 41.421875 45.53125 
Q 43.3125 49.21875 43.3125 52.78125 
Q 43.3125 58.59375 39.234375 62.25 
Q 35.15625 65.921875 28.609375 65.921875 
Q 23.96875 65.921875 18.8125 64.3125 
Q 13.671875 62.703125 7.8125 59.421875 
L 7.8125 69.390625 
Q 13.765625 71.78125 18.9375 73 
Q 24.125 74.21875 28.421875 74.21875 
Q 39.75 74.21875 46.484375 68.546875 
Q 53.21875 62.890625 53.21875 53.421875 
Q 53.21875 48.921875 51.53125 44.890625 
Q 49.859375 40.875 45.40625 35.40625 
Q 44.1875 33.984375 37.640625 27.21875 
Q 31.109375 20.453125 19.1875 8.296875 
z
" id="DejaVuSans-50"/>
      </defs>
      <g transform="translate(111.4325 178.678866)scale(0.1 -0.1)">
       <use xlink:href="#DejaVuSans-49"/>
       <use x="63.623047" xlink:href="#DejaVuSans-50"/>
       <use x="127.246094" xlink:href="#DejaVuSans-53"/>
      </g>
     </g>
    </g>
    <g id="ytick_5">
     <g id="line2d_12">
      <g>
       <use style="stroke:#000000;stroke-width:0.8;" x="137.52" xlink:href="#m281aec8158" y="150.419832"/>
      </g>
     </g>
     <g id="text_5">
      <!-- 150 -->
      <g transform="translate(111.4325 154.21905)scale(0.1 -0.1)">
       <use xlink:href="#DejaVuSans-49"/>
       <use x="63.623047" xlink:href="#DejaVuSans-53"/>
       <use x="127.246094" xlink:href="#DejaVuSans-48"/>
      </g>
     </g>
    </g>
    <g id="ytick_6">
     <g id="line2d_13">
      <g>
       <use style="stroke:#000000;stroke-width:0.8;" x="137.52" xlink:href="#m281aec8158" y="125.960016"/>
      </g>
     </g>
     <g id="text_6">
      <!-- 175 -->
      <g transform="translate(111.4325 129.759235)scale(0.1 -0.1)">
       <use xlink:href="#DejaVuSans-49"/>
       <use x="63.623047" xlink:href="#DejaVuSans-55"/>
       <use x="127.246094" xlink:href="#DejaVuSans-53"/>
      </g>
     </g>
    </g>
    <g id="ytick_7">
     <g id="line2d_14">
      <g>
       <use style="stroke:#000000;stroke-width:0.8;" x="137.52" xlink:href="#m281aec8158" y="101.500201"/>
      </g>
     </g>
     <g id="text_7">
      <!-- 200 -->
      <g transform="translate(111.4325 105.29942)scale(0.1 -0.1)">
       <use xlink:href="#DejaVuSans-50"/>
       <use x="63.623047" xlink:href="#DejaVuSans-48"/>
       <use x="127.246094" xlink:href="#DejaVuSans-48"/>
      </g>
     </g>
    </g>
    <g id="ytick_8">
     <g id="line2d_15">
      <g>
       <use style="stroke:#000000;stroke-width:0.8;" x="137.52" xlink:href="#m281aec8158" y="77.040386"/>
      </g>
     </g>
     <g id="text_8">
      <!-- 225 -->
      <g transform="translate(111.4325 80.839604)scale(0.1 -0.1)">
       <use xlink:href="#DejaVuSans-50"/>
       <use x="63.623047" xlink:href="#DejaVuSans-50"/>
       <use x="127.246094" xlink:href="#DejaVuSans-53"/>
      </g>
     </g>
    </g>
   </g>
   <g id="line2d_16">
    <path clip-path="url(#pac72d11066)" d="M 137.109882 185.641966 
L 138.317751 159.225365 
L 139.52562 169.009291 
L 140.733489 136.722335 
L 141.941358 172.922862 
L 143.149226 163.138936 
L 144.357095 201.296247 
L 145.564964 147.484654 
L 146.772833 147.484654 
L 147.980702 205.209818 
L 149.18857 180.750003 
L 150.396439 149.441439 
L 151.604308 188.577143 
L 152.812177 204.231425 
L 154.020046 86.824312 
L 155.227914 137.700728 
L 156.435783 206.18821 
L 157.643652 116.17609 
L 158.851521 137.700728 
L 160.05939 199.339462 
L 161.267258 151.398224 
L 162.475127 188.577143 
L 163.682996 161.18215 
L 164.890865 170.966076 
L 166.098734 135.743942 
L 167.306602 171.944469 
L 168.514471 163.138936 
L 169.72234 204.231425 
L 170.930209 148.463046 
L 172.138078 149.441439 
L 173.345946 204.231425 
L 174.553815 179.77161 
L 175.761684 127.916801 
L 176.969553 180.750003 
L 178.177422 205.209818 
L 179.38529 88.781097 
L 180.593159 142.592691 
L 181.801028 210.101781 
L 183.008897 120.089661 
L 184.216766 140.635905 
L 185.424634 199.339462 
L 186.632503 150.419832 
L 187.840372 186.620358 
L 189.048241 163.138936 
L 190.25611 170.966076 
L 191.463978 137.700728 
L 192.671847 170.966076 
L 193.879716 163.138936 
L 195.087585 201.296247 
L 196.295454 146.506261 
L 197.503323 149.441439 
L 198.711191 206.18821 
L 199.91906 179.77161 
L 201.126929 126.938409 
L 202.334798 178.793217 
L 203.542667 203.253033 
L 204.750535 88.781097 
L 205.958404 142.592691 
L 207.166273 208.144996 
L 208.374142 122.046446 
L 209.582011 141.614298 
L 210.789879 202.27464 
L 211.997748 150.419832 
L 213.205617 184.663573 
L 214.413486 161.18215 
L 215.621355 169.009291 
L 216.829223 136.722335 
L 218.037092 172.922862 
L 219.244961 165.095721 
L 220.45283 203.253033 
L 221.660699 146.506261 
L 222.868567 149.441439 
L 224.076436 206.18821 
L 225.284305 179.77161 
L 226.492174 129.873587 
L 227.700043 182.706788 
L 228.907911 204.231425 
L 230.11578 85.845919 
L 231.323649 138.67912 
L 232.531518 206.18821 
L 233.739387 120.089661 
L 234.947255 140.635905 
L 236.155124 200.317855 
L 237.362993 152.376617 
L 238.570862 186.620358 
L 239.778731 161.18215 
L 240.986599 169.009291 
L 242.194468 136.722335 
L 243.402337 172.922862 
L 244.610206 165.095721 
L 245.818075 204.231425 
L 247.025943 148.463046 
L 248.233812 148.463046 
L 249.441681 205.209818 
L 250.64955 177.814825 
L 251.857419 125.960016 
L 253.065287 182.706788 
L 254.273156 204.231425 
L 255.481025 88.781097 
L 256.688894 141.614298 
L 257.896763 207.166603 
L 259.104631 118.132875 
L 260.3125 139.657513 
L 261.520369 203.253033 
L 262.728238 152.376617 
L 263.936107 188.577143 
L 265.143975 163.138936 
L 266.351844 171.944469 
L 267.559713 137.700728 
L 268.767582 171.944469 
L 269.975451 164.117328 
L 271.183319 203.253033 
L 272.391188 147.484654 
L 273.599057 151.398224 
L 274.806926 205.209818 
L 276.014795 180.750003 
L 277.222663 151.398224 
L 278.430532 187.598751 
L 279.638401 204.231425 
L 280.84627 89.75949 
L 282.054139 142.592691 
L 283.262007 210.101781 
L 284.469876 121.068053 
L 285.677745 140.635905 
L 286.885614 198.36107 
L 288.093483 149.441439 
L 289.301351 185.641966 
L 290.50922 160.203758 
L 291.717089 169.987684 
L 292.924958 129.873587 
L 294.132827 172.922862 
L 295.340695 163.138936 
L 296.548564 203.253033 
L 297.756433 148.463046 
L 298.964302 149.441439 
L 300.172171 207.166603 
L 301.380039 182.706788 
L 302.587908 150.419832 
L 303.795777 185.641966 
L 305.003646 203.253033 
L 306.211515 85.845919 
L 307.419384 140.635905 
L 308.627252 207.166603 
L 309.835121 120.089661 
L 311.04299 140.635905 
L 312.250859 200.317855 
L 313.458728 151.398224 
L 314.666596 187.598751 
L 315.874465 161.18215 
L 317.082334 169.009291 
L 318.290203 128.895194 
L 319.498072 183.68518 
L 320.70594 133.787157 
L 321.913809 177.814825 
L 323.121678 150.419832 
L 324.329547 200.317855 
L 325.537416 136.722335 
L 326.745284 182.706788 
L 327.953153 108.348949 
L 329.161022 159.225365 
L 330.368891 168.030899 
L 331.57676 206.18821 
L 332.784628 157.26858 
L 333.992497 161.18215 
L 335.200366 210.101781 
L 336.408235 188.577143 
L 337.616104 153.355009 
L 338.823972 178.793217 
L 340.031841 142.592691 
L 341.23971 188.577143 
L 342.447579 145.527869 
L 343.655448 178.793217 
L 344.863316 155.311795 
L 346.071185 203.253033 
L 347.279054 152.376617 
L 348.486923 161.18215 
L 349.694792 206.18821 
L 350.90266 183.68518 
L 352.110529 137.700728 
L 353.318398 178.793217 
L 354.526267 208.144996 
L 355.734136 112.26252 
L 356.942004 186.620358 
L 359.357742 162.160543 
L 360.565611 132.808765 
L 361.77348 174.879647 
L 364.189217 136.722335 
L 365.397086 188.577143 
L 366.604955 163.138936 
L 367.812824 172.922862 
L 369.020692 140.635905 
L 370.228561 172.922862 
L 371.43643 166.074113 
L 372.644299 203.253033 
L 373.852168 148.463046 
L 375.060036 147.484654 
L 376.267905 206.18821 
L 377.475774 183.68518 
L 378.683643 150.419832 
L 379.891512 184.663573 
L 381.09938 200.317855 
L 382.307249 88.781097 
L 383.515118 141.614298 
L 384.722987 211.080174 
L 385.930856 122.046446 
L 387.138724 140.635905 
L 388.346593 200.317855 
L 389.554462 149.441439 
L 390.762331 184.663573 
L 391.9702 163.138936 
L 393.178068 170.966076 
L 394.385937 137.700728 
L 395.593806 173.901254 
L 396.801675 165.095721 
L 398.009544 204.231425 
L 399.217412 147.484654 
L 400.425281 149.441439 
L 401.63315 206.18821 
L 402.841019 180.750003 
L 404.048888 151.398224 
L 405.256756 188.577143 
L 406.464625 203.253033 
L 407.672494 87.802704 
L 408.880363 140.635905 
L 410.088232 208.144996 
L 411.2961 120.089661 
L 412.503969 140.635905 
L 413.711838 200.317855 
L 414.919707 152.376617 
L 416.127576 188.577143 
L 417.335445 160.203758 
L 418.543313 169.009291 
L 419.751182 133.787157 
L 420.959051 171.944469 
L 422.16692 164.117328 
L 423.374789 204.231425 
L 424.582657 148.463046 
L 425.790526 150.419832 
L 426.998395 205.209818 
L 428.206264 181.728395 
L 429.414133 151.398224 
L 430.622001 188.577143 
L 431.82987 205.209818 
L 433.037739 89.75949 
L 434.245608 141.614298 
L 435.453477 208.144996 
L 436.661345 120.089661 
L 437.869214 140.635905 
L 439.077083 200.317855 
L 440.284952 151.398224 
L 441.492821 188.577143 
L 442.700689 163.138936 
L 443.908558 170.966076 
L 445.116427 136.722335 
L 446.324296 172.922862 
L 447.532165 165.095721 
L 448.740033 202.27464 
L 449.947902 151.398224 
L 451.155771 153.355009 
L 452.36364 209.123388 
L 453.571509 182.706788 
L 454.779377 151.398224 
L 455.987246 188.577143 
L 457.195115 205.209818 
L 458.402984 90.737882 
L 459.610853 142.592691 
L 460.818721 210.101781 
L 462.02659 124.003231 
L 463.234459 142.592691 
L 464.442328 203.253033 
L 465.650197 153.355009 
L 466.858065 190.533929 
L 468.065934 165.095721 
L 469.273803 174.879647 
L 470.481672 142.592691 
L 471.689541 176.836432 
L 472.897409 169.009291 
L 474.105278 206.18821 
L 475.313147 150.419832 
L 476.521016 153.355009 
L 477.728885 209.123388 
L 478.936753 184.663573 
L 480.144622 134.76555 
L 481.352491 186.620358 
L 482.56036 207.166603 
L 483.768229 90.737882 
L 484.976097 144.549476 
L 486.183966 213.036959 
L 487.391835 126.938409 
L 488.599704 143.571083 
L 489.807573 205.209818 
L 491.015441 153.355009 
L 492.22331 186.620358 
L 493.431179 163.138936 
L 494.639048 170.966076 
L 495.846917 139.657513 
L 497.054785 173.901254 
L 498.262654 167.052506 
L 499.470523 206.18821 
L 500.678392 149.441439 
L 501.886261 150.419832 
L 503.094129 206.18821 
L 504.301998 178.793217 
L 505.509867 127.916801 
L 506.717736 178.793217 
L 507.925605 204.231425 
L 509.133473 89.75949 
L 510.341342 140.635905 
L 511.549211 205.209818 
L 512.75708 117.154483 
L 513.964949 138.67912 
L 515.172817 198.36107 
L 516.380686 150.419832 
L 517.588555 183.68518 
L 518.796424 160.203758 
L 520.004293 166.074113 
L 521.212161 131.830372 
L 522.42003 168.030899 
L 523.627899 161.18215 
L 524.835768 199.339462 
L 526.043637 144.549476 
L 527.251506 147.484654 
L 528.459374 202.27464 
L 529.667243 174.879647 
L 530.875112 122.046446 
L 532.082981 176.836432 
L 533.29085 198.36107 
L 534.498718 82.910741 
L 535.706587 134.76555 
L 536.914456 203.253033 
L 538.122325 116.17609 
L 539.330194 135.743942 
L 540.538062 194.447499 
L 541.745931 145.527869 
L 542.9538 178.793217 
L 544.161669 156.290187 
L 545.369538 163.138936 
L 546.577406 131.830372 
L 547.785275 167.052506 
L 548.993144 159.225365 
L 550.201013 196.404284 
L 551.408882 141.614298 
L 552.61675 143.571083 
L 553.824619 203.253033 
L 555.032488 174.879647 
L 556.240357 123.024838 
L 557.448226 175.858039 
L 558.656094 199.339462 
L 559.863963 82.910741 
L 561.071832 135.743942 
L 562.279701 202.27464 
L 563.48757 116.17609 
L 564.695438 136.722335 
L 565.903307 198.36107 
L 567.111176 148.463046 
L 568.319045 183.68518 
L 569.526914 157.26858 
L 570.734782 168.030899 
L 571.942651 136.722335 
L 573.15052 171.944469 
L 574.358389 162.160543 
L 575.566258 202.27464 
L 576.774126 145.527869 
L 577.981995 149.441439 
L 579.189864 204.231425 
L 580.397733 179.77161 
L 581.605602 150.419832 
L 582.81347 187.598751 
L 584.021339 204.231425 
L 585.229208 88.781097 
L 586.437077 140.635905 
L 587.644946 207.166603 
L 588.852814 120.089661 
L 590.060683 137.700728 
L 591.268552 200.317855 
L 592.476421 151.398224 
L 593.68429 184.663573 
L 594.892158 161.18215 
L 596.100027 169.987684 
L 597.307896 127.916801 
L 598.515765 172.922862 
L 599.723634 163.138936 
L 600.931502 205.209818 
L 602.139371 149.441439 
L 603.34724 151.398224 
L 604.555109 206.18821 
L 605.762978 179.77161 
L 606.970846 149.441439 
L 608.178715 186.620358 
L 609.386584 203.253033 
L 610.594453 87.802704 
L 611.802322 141.614298 
L 613.01019 208.144996 
L 614.218059 120.089661 
L 615.425928 139.657513 
L 616.633797 200.317855 
L 617.841666 151.398224 
L 619.049534 187.598751 
L 620.257403 161.18215 
L 621.465272 171.944469 
L 622.673141 129.873587 
L 623.88101 182.706788 
L 625.088878 130.851979 
L 626.296747 174.879647 
L 627.504616 150.419832 
L 628.712485 203.253033 
L 629.920354 135.743942 
L 631.128222 182.706788 
L 632.336091 110.305734 
L 633.54396 157.26858 
L 634.751829 167.052506 
L 635.959698 203.253033 
L 637.167567 157.26858 
L 638.375435 160.203758 
L 639.583304 209.123388 
L 640.791173 187.598751 
L 641.999042 152.376617 
L 643.206911 178.793217 
L 644.414779 124.981624 
L 645.622648 161.18215 
L 646.830517 204.231425 
L 648.038386 140.635905 
L 649.246255 182.706788 
L 650.454123 110.305734 
L 651.661992 155.311795 
L 652.869861 167.052506 
L 654.07773 204.231425 
L 655.285599 157.26858 
L 656.493467 163.138936 
L 657.701336 208.144996 
L 658.909205 188.577143 
L 660.117074 153.355009 
L 661.324943 179.77161 
L 662.532811 125.960016 
L 663.74068 161.18215 
L 664.948549 204.231425 
L 666.156418 136.722335 
L 667.364287 190.533929 
L 668.572155 144.549476 
L 669.780024 174.879647 
L 670.987893 118.132875 
L 672.195762 148.463046 
L 673.403631 207.166603 
L 674.611499 143.571083 
L 675.819368 198.36107 
L 677.027237 165.095721 
L 678.235106 201.296247 
L 679.442975 151.398224 
L 680.650843 162.160543 
L 681.858712 206.18821 
L 683.066581 139.657513 
L 684.27445 186.620358 
L 685.482319 111.284127 
L 686.690187 160.203758 
L 687.898056 170.966076 
L 689.105925 207.166603 
L 690.313794 158.246972 
L 691.521663 158.246972 
L 692.729531 207.166603 
L 693.9374 184.663573 
L 695.145269 151.398224 
L 696.353138 177.814825 
L 697.561007 144.549476 
L 698.768875 191.512321 
L 699.976744 147.484654 
L 701.184613 180.750003 
L 702.392482 157.26858 
L 703.600351 205.209818 
L 704.808219 154.333402 
L 706.016088 158.246972 
L 707.223957 204.231425 
L 708.431826 182.706788 
L 709.639695 137.700728 
L 710.847563 182.706788 
L 712.055432 208.144996 
L 713.263301 111.284127 
L 714.47117 188.577143 
L 715.679039 174.879647 
L 716.886907 165.095721 
L 718.094776 136.722335 
L 719.302645 178.793217 
L 721.718383 138.67912 
L 722.926251 190.533929 
L 724.13412 165.095721 
L 725.341989 176.836432 
L 726.549858 143.571083 
L 727.757727 175.858039 
L 728.965595 167.052506 
L 730.173464 208.144996 
L 731.381333 151.398224 
L 732.589202 151.398224 
L 733.797071 209.123388 
L 735.004939 186.620358 
L 736.212808 152.376617 
L 737.420677 187.598751 
L 738.628546 202.27464 
L 739.836415 89.75949 
L 741.044283 144.549476 
L 742.252152 214.015351 
L 743.460021 124.981624 
L 744.66789 143.571083 
L 745.875759 202.27464 
L 747.083628 152.376617 
L 748.291496 189.555536 
L 749.499365 164.117328 
L 750.707234 172.922862 
L 751.915103 140.635905 
L 753.122972 174.879647 
L 754.33084 167.052506 
L 755.538709 204.231425 
L 756.746578 148.463046 
L 757.954447 151.398224 
L 759.162316 208.144996 
L 760.370184 182.706788 
L 761.578053 153.355009 
L 762.785922 189.555536 
L 763.993791 206.18821 
L 765.20166 88.781097 
L 766.409528 141.614298 
L 767.617397 207.166603 
L 768.825266 121.068053 
L 770.033135 142.592691 
L 771.241004 203.253033 
L 772.448872 152.376617 
L 773.656741 187.598751 
L 774.86461 160.203758 
L 776.072479 169.987684 
L 777.280348 137.700728 
L 778.488216 172.922862 
L 779.696085 164.117328 
L 780.903954 203.253033 
L 782.111823 147.484654 
L 783.319692 149.441439 
L 784.52756 206.18821 
L 785.735429 180.750003 
L 786.943298 152.376617 
L 788.151167 188.577143 
L 789.359036 204.231425 
L 790.566904 89.75949 
L 791.774773 142.592691 
L 792.982642 208.144996 
L 794.190511 118.132875 
L 795.39838 137.700728 
L 796.606248 196.404284 
L 797.814117 149.441439 
L 799.021986 185.641966 
L 800.229855 161.18215 
L 801.437724 169.009291 
L 802.645592 135.743942 
L 803.853461 170.966076 
L 805.06133 163.138936 
L 806.269199 202.27464 
L 807.477068 149.441439 
L 808.684936 150.419832 
L 809.892805 206.18821 
L 811.100674 178.793217 
L 812.308543 147.484654 
L 813.516412 186.620358 
L 814.72428 203.253033 
L 815.932149 87.802704 
L 817.140018 140.635905 
L 818.347887 208.144996 
L 819.555756 119.111268 
L 820.763624 139.657513 
L 821.971493 198.36107 
L 823.179362 149.441439 
L 824.387231 187.598751 
L 825.5951 160.203758 
L 826.802968 171.944469 
L 828.010837 138.67912 
L 829.218706 171.944469 
L 830.426575 163.138936 
L 831.634444 203.253033 
L 832.842312 144.549476 
L 834.050181 148.463046 
L 835.25805 207.166603 
L 836.465919 182.706788 
L 837.673788 129.873587 
L 838.881656 180.750003 
L 840.089525 203.253033 
L 841.297394 88.781097 
L 842.505263 139.657513 
L 843.713132 209.123388 
L 844.921 121.068053 
L 846.128869 142.592691 
L 847.336738 202.27464 
L 848.544607 151.398224 
L 849.752476 186.620358 
L 850.960344 161.18215 
L 852.168213 168.030899 
L 853.376082 135.743942 
L 854.583951 172.922862 
L 855.79182 165.095721 
L 856.999689 204.231425 
L 858.207557 148.463046 
L 859.415426 149.441439 
L 860.623295 206.18821 
L 861.831164 179.77161 
L 863.039033 128.895194 
L 864.246901 182.706788 
L 865.45477 205.209818 
L 866.662639 90.737882 
L 867.870508 140.635905 
L 869.078377 206.18821 
L 870.286245 120.089661 
L 871.494114 139.657513 
L 872.701983 202.27464 
L 873.909852 151.398224 
L 875.117721 188.577143 
L 876.325589 162.160543 
L 877.533458 171.944469 
L 878.741327 135.743942 
L 879.949196 172.922862 
L 881.157065 165.095721 
L 882.364933 203.253033 
L 883.572802 146.506261 
L 884.780671 151.398224 
L 885.98854 207.166603 
L 887.196409 178.793217 
L 888.404277 127.916801 
L 889.612146 180.750003 
L 890.820015 203.253033 
L 892.027884 88.781097 
L 893.235753 142.592691 
L 894.443621 210.101781 
L 895.65149 122.046446 
L 896.859359 139.657513 
L 898.067228 199.339462 
L 899.275097 150.419832 
L 900.482965 185.641966 
L 901.690834 161.18215 
L 902.898703 170.966076 
L 904.106572 136.722335 
L 905.314441 172.922862 
L 906.522309 165.095721 
L 907.730178 202.27464 
L 908.938047 147.484654 
L 910.145916 147.484654 
L 911.353785 206.18821 
L 912.561653 177.814825 
L 913.769522 127.916801 
L 914.977391 181.728395 
L 916.18526 204.231425 
L 917.393129 87.802704 
L 918.600997 140.635905 
L 919.808866 205.209818 
L 921.016735 120.089661 
L 922.224604 143.571083 
L 923.432473 203.253033 
L 924.640341 152.376617 
L 925.84821 187.598751 
L 927.056079 160.203758 
L 928.263948 170.966076 
L 929.471817 138.67912 
L 930.679685 172.922862 
L 931.887554 166.074113 
L 933.095423 203.253033 
L 934.303292 147.484654 
L 935.511161 151.398224 
L 936.719029 207.166603 
L 937.926898 182.706788 
L 939.134767 152.376617 
L 940.342636 188.577143 
L 941.550505 205.209818 
L 942.758373 87.802704 
L 943.966242 141.614298 
L 945.174111 208.144996 
L 946.38198 121.068053 
L 947.589849 140.635905 
L 948.797717 201.296247 
L 950.005586 152.376617 
L 951.213455 186.620358 
L 952.421324 161.18215 
L 953.629193 169.009291 
L 954.837061 128.895194 
L 956.04493 169.987684 
L 957.252799 165.095721 
L 958.460668 205.209818 
L 959.668537 150.419832 
L 960.876405 151.398224 
L 962.084274 205.209818 
L 963.292143 179.77161 
L 964.500012 149.441439 
L 965.707881 186.620358 
L 966.91575 203.253033 
L 968.123618 88.781097 
L 969.331487 140.635905 
L 970.539356 206.18821 
L 971.747225 120.089661 
L 972.955094 140.635905 
L 974.162962 200.317855 
L 975.370831 152.376617 
L 976.5787 187.598751 
L 977.786569 163.138936 
L 978.994438 170.966076 
L 980.202306 131.830372 
L 981.410175 182.706788 
L 982.618044 131.830372 
L 983.825913 176.836432 
L 985.033782 147.484654 
L 986.24165 203.253033 
L 987.449519 137.700728 
L 988.657388 183.68518 
L 989.865257 108.348949 
L 991.073126 157.26858 
L 991.073126 157.26858 
" style="fill:none;stroke:#1f77b4;stroke-linecap:square;stroke-width:1.5;"/>
   </g>
   <g id="patch_24">
    <path d="M 137.52 271.3968 
L 137.52 69.2928 
" style="fill:none;stroke:#000000;stroke-linecap:square;stroke-linejoin:miter;stroke-width:0.8;"/>
   </g>
   <g id="patch_25">
    <path d="M 990.144 271.3968 
L 990.144 69.2928 
" style="fill:none;stroke:#000000;stroke-linecap:square;stroke-linejoin:miter;stroke-width:0.8;"/>
   </g>
   <g id="patch_26">
    <path d="M 137.52 271.3968 
L 990.144 271.3968 
" style="fill:none;stroke:#000000;stroke-linecap:square;stroke-linejoin:miter;stroke-width:0.8;"/>
   </g>
   <g id="patch_27">
    <path d="M 137.52 69.2928 
L 990.144 69.2928 
" style="fill:none;stroke:#000000;stroke-linecap:square;stroke-linejoin:miter;stroke-width:0.8;"/>
   </g>
  </g>
  <g id="axes_2">
   <g id="patch_28">
    <path d="M 137.52 513.9216 
L 990.144 513.9216 
L 990.144 311.8176 
L 137.52 311.8176 
z
" style="fill:#ffffff;"/>
   </g>
   <g id="matplotlib.axis_3">
    <g id="xtick_8">
     <g id="line2d_17">
      <g>
       <use style="stroke:#000000;stroke-width:0.8;" x="211.997748" xlink:href="#m5e7e5be355" y="513.9216"/>
      </g>
     </g>
     <g id="text_9">
      <!-- 700 -->
      <g transform="translate(202.453998 528.520037)scale(0.1 -0.1)">
       <use xlink:href="#DejaVuSans-55"/>
       <use x="63.623047" xlink:href="#DejaVuSans-48"/>
       <use x="127.246094" xlink:href="#DejaVuSans-48"/>
      </g>
     </g>
    </g>
    <g id="xtick_9">
     <g id="line2d_18">
      <g>
       <use style="stroke:#000000;stroke-width:0.8;" x="332.784628" xlink:href="#m5e7e5be355" y="513.9216"/>
      </g>
     </g>
     <g id="text_10">
      <!-- 800 -->
      <defs>
       <path d="M 31.78125 34.625 
Q 24.75 34.625 20.71875 30.859375 
Q 16.703125 27.09375 16.703125 20.515625 
Q 16.703125 13.921875 20.71875 10.15625 
Q 24.75 6.390625 31.78125 6.390625 
Q 38.8125 6.390625 42.859375 10.171875 
Q 46.921875 13.96875 46.921875 20.515625 
Q 46.921875 27.09375 42.890625 30.859375 
Q 38.875 34.625 31.78125 34.625 
z
M 21.921875 38.8125 
Q 15.578125 40.375 12.03125 44.71875 
Q 8.5 49.078125 8.5 55.328125 
Q 8.5 64.0625 14.71875 69.140625 
Q 20.953125 74.21875 31.78125 74.21875 
Q 42.671875 74.21875 48.875 69.140625 
Q 55.078125 64.0625 55.078125 55.328125 
Q 55.078125 49.078125 51.53125 44.71875 
Q 48 40.375 41.703125 38.8125 
Q 48.828125 37.15625 52.796875 32.3125 
Q 56.78125 27.484375 56.78125 20.515625 
Q 56.78125 9.90625 50.3125 4.234375 
Q 43.84375 -1.421875 31.78125 -1.421875 
Q 19.734375 -1.421875 13.25 4.234375 
Q 6.78125 9.90625 6.78125 20.515625 
Q 6.78125 27.484375 10.78125 32.3125 
Q 14.796875 37.15625 21.921875 38.8125 
z
M 18.3125 54.390625 
Q 18.3125 48.734375 21.84375 45.5625 
Q 25.390625 42.390625 31.78125 42.390625 
Q 38.140625 42.390625 41.71875 45.5625 
Q 45.3125 48.734375 45.3125 54.390625 
Q 45.3125 60.0625 41.71875 63.234375 
Q 38.140625 66.40625 31.78125 66.40625 
Q 25.390625 66.40625 21.84375 63.234375 
Q 18.3125 60.0625 18.3125 54.390625 
z
" id="DejaVuSans-56"/>
      </defs>
      <g transform="translate(323.240878 528.520037)scale(0.1 -0.1)">
       <use xlink:href="#DejaVuSans-56"/>
       <use x="63.623047" xlink:href="#DejaVuSans-48"/>
       <use x="127.246094" xlink:href="#DejaVuSans-48"/>
      </g>
     </g>
    </g>
    <g id="xtick_10">
     <g id="line2d_19">
      <g>
       <use style="stroke:#000000;stroke-width:0.8;" x="453.571509" xlink:href="#m5e7e5be355" y="513.9216"/>
      </g>
     </g>
     <g id="text_11">
      <!-- 900 -->
      <defs>
       <path d="M 10.984375 1.515625 
L 10.984375 10.5 
Q 14.703125 8.734375 18.5 7.8125 
Q 22.3125 6.890625 25.984375 6.890625 
Q 35.75 6.890625 40.890625 13.453125 
Q 46.046875 20.015625 46.78125 33.40625 
Q 43.953125 29.203125 39.59375 26.953125 
Q 35.25 24.703125 29.984375 24.703125 
Q 19.046875 24.703125 12.671875 31.3125 
Q 6.296875 37.9375 6.296875 49.421875 
Q 6.296875 60.640625 12.9375 67.421875 
Q 19.578125 74.21875 30.609375 74.21875 
Q 43.265625 74.21875 49.921875 64.515625 
Q 56.59375 54.828125 56.59375 36.375 
Q 56.59375 19.140625 48.40625 8.859375 
Q 40.234375 -1.421875 26.421875 -1.421875 
Q 22.703125 -1.421875 18.890625 -0.6875 
Q 15.09375 0.046875 10.984375 1.515625 
z
M 30.609375 32.421875 
Q 37.25 32.421875 41.125 36.953125 
Q 45.015625 41.5 45.015625 49.421875 
Q 45.015625 57.28125 41.125 61.84375 
Q 37.25 66.40625 30.609375 66.40625 
Q 23.96875 66.40625 20.09375 61.84375 
Q 16.21875 57.28125 16.21875 49.421875 
Q 16.21875 41.5 20.09375 36.953125 
Q 23.96875 32.421875 30.609375 32.421875 
z
" id="DejaVuSans-57"/>
      </defs>
      <g transform="translate(444.027759 528.520037)scale(0.1 -0.1)">
       <use xlink:href="#DejaVuSans-57"/>
       <use x="63.623047" xlink:href="#DejaVuSans-48"/>
       <use x="127.246094" xlink:href="#DejaVuSans-48"/>
      </g>
     </g>
    </g>
    <g id="xtick_11">
     <g id="line2d_20">
      <g>
       <use style="stroke:#000000;stroke-width:0.8;" x="574.358389" xlink:href="#m5e7e5be355" y="513.9216"/>
      </g>
     </g>
     <g id="text_12">
      <!-- 1000 -->
      <g transform="translate(561.633389 528.520037)scale(0.1 -0.1)">
       <use xlink:href="#DejaVuSans-49"/>
       <use x="63.623047" xlink:href="#DejaVuSans-48"/>
       <use x="127.246094" xlink:href="#DejaVuSans-48"/>
       <use x="190.869141" xlink:href="#DejaVuSans-48"/>
      </g>
     </g>
    </g>
    <g id="xtick_12">
     <g id="line2d_21">
      <g>
       <use style="stroke:#000000;stroke-width:0.8;" x="695.145269" xlink:href="#m5e7e5be355" y="513.9216"/>
      </g>
     </g>
     <g id="text_13">
      <!-- 1100 -->
      <g transform="translate(682.420269 528.520037)scale(0.1 -0.1)">
       <use xlink:href="#DejaVuSans-49"/>
       <use x="63.623047" xlink:href="#DejaVuSans-49"/>
       <use x="127.246094" xlink:href="#DejaVuSans-48"/>
       <use x="190.869141" xlink:href="#DejaVuSans-48"/>
      </g>
     </g>
    </g>
    <g id="xtick_13">
     <g id="line2d_22">
      <g>
       <use style="stroke:#000000;stroke-width:0.8;" x="815.932149" xlink:href="#m5e7e5be355" y="513.9216"/>
      </g>
     </g>
     <g id="text_14">
      <!-- 1200 -->
      <g transform="translate(803.207149 528.520037)scale(0.1 -0.1)">
       <use xlink:href="#DejaVuSans-49"/>
       <use x="63.623047" xlink:href="#DejaVuSans-50"/>
       <use x="127.246094" xlink:href="#DejaVuSans-48"/>
       <use x="190.869141" xlink:href="#DejaVuSans-48"/>
      </g>
     </g>
    </g>
    <g id="xtick_14">
     <g id="line2d_23">
      <g>
       <use style="stroke:#000000;stroke-width:0.8;" x="936.719029" xlink:href="#m5e7e5be355" y="513.9216"/>
      </g>
     </g>
     <g id="text_15">
      <!-- 1300 -->
      <defs>
       <path d="M 40.578125 39.3125 
Q 47.65625 37.796875 51.625 33 
Q 55.609375 28.21875 55.609375 21.1875 
Q 55.609375 10.40625 48.1875 4.484375 
Q 40.765625 -1.421875 27.09375 -1.421875 
Q 22.515625 -1.421875 17.65625 -0.515625 
Q 12.796875 0.390625 7.625 2.203125 
L 7.625 11.71875 
Q 11.71875 9.328125 16.59375 8.109375 
Q 21.484375 6.890625 26.8125 6.890625 
Q 36.078125 6.890625 40.9375 10.546875 
Q 45.796875 14.203125 45.796875 21.1875 
Q 45.796875 27.640625 41.28125 31.265625 
Q 36.765625 34.90625 28.71875 34.90625 
L 20.21875 34.90625 
L 20.21875 43.015625 
L 29.109375 43.015625 
Q 36.375 43.015625 40.234375 45.921875 
Q 44.09375 48.828125 44.09375 54.296875 
Q 44.09375 59.90625 40.109375 62.90625 
Q 36.140625 65.921875 28.71875 65.921875 
Q 24.65625 65.921875 20.015625 65.03125 
Q 15.375 64.15625 9.8125 62.3125 
L 9.8125 71.09375 
Q 15.4375 72.65625 20.34375 73.4375 
Q 25.25 74.21875 29.59375 74.21875 
Q 40.828125 74.21875 47.359375 69.109375 
Q 53.90625 64.015625 53.90625 55.328125 
Q 53.90625 49.265625 50.4375 45.09375 
Q 46.96875 40.921875 40.578125 39.3125 
z
" id="DejaVuSans-51"/>
      </defs>
      <g transform="translate(923.994029 528.520037)scale(0.1 -0.1)">
       <use xlink:href="#DejaVuSans-49"/>
       <use x="63.623047" xlink:href="#DejaVuSans-51"/>
       <use x="127.246094" xlink:href="#DejaVuSans-48"/>
       <use x="190.869141" xlink:href="#DejaVuSans-48"/>
      </g>
     </g>
    </g>
   </g>
   <g id="matplotlib.axis_4">
    <g id="ytick_9">
     <g id="line2d_24">
      <g>
       <use style="stroke:#000000;stroke-width:0.8;" x="137.52" xlink:href="#m281aec8158" y="500.749592"/>
      </g>
     </g>
     <g id="text_16">
      <!-- −0.75 -->
      <defs>
       <path d="M 10.59375 35.5 
L 73.1875 35.5 
L 73.1875 27.203125 
L 10.59375 27.203125 
z
" id="DejaVuSans-8722"/>
       <path d="M 10.6875 12.40625 
L 21 12.40625 
L 21 0 
L 10.6875 0 
z
" id="DejaVuSans-46"/>
      </defs>
      <g transform="translate(99.874687 504.54881)scale(0.1 -0.1)">
       <use xlink:href="#DejaVuSans-8722"/>
       <use x="83.789062" xlink:href="#DejaVuSans-48"/>
       <use x="147.412109" xlink:href="#DejaVuSans-46"/>
       <use x="179.199219" xlink:href="#DejaVuSans-55"/>
       <use x="242.822266" xlink:href="#DejaVuSans-53"/>
      </g>
     </g>
    </g>
    <g id="ytick_10">
     <g id="line2d_25">
      <g>
       <use style="stroke:#000000;stroke-width:0.8;" x="137.52" xlink:href="#m281aec8158" y="475.071671"/>
      </g>
     </g>
     <g id="text_17">
      <!-- −0.50 -->
      <g transform="translate(99.874687 478.870889)scale(0.1 -0.1)">
       <use xlink:href="#DejaVuSans-8722"/>
       <use x="83.789062" xlink:href="#DejaVuSans-48"/>
       <use x="147.412109" xlink:href="#DejaVuSans-46"/>
       <use x="179.199219" xlink:href="#DejaVuSans-53"/>
       <use x="242.822266" xlink:href="#DejaVuSans-48"/>
      </g>
     </g>
    </g>
    <g id="ytick_11">
     <g id="line2d_26">
      <g>
       <use style="stroke:#000000;stroke-width:0.8;" x="137.52" xlink:href="#m281aec8158" y="449.39375"/>
      </g>
     </g>
     <g id="text_18">
      <!-- −0.25 -->
      <g transform="translate(99.874687 453.192969)scale(0.1 -0.1)">
       <use xlink:href="#DejaVuSans-8722"/>
       <use x="83.789062" xlink:href="#DejaVuSans-48"/>
       <use x="147.412109" xlink:href="#DejaVuSans-46"/>
       <use x="179.199219" xlink:href="#DejaVuSans-50"/>
       <use x="242.822266" xlink:href="#DejaVuSans-53"/>
      </g>
     </g>
    </g>
    <g id="ytick_12">
     <g id="line2d_27">
      <g>
       <use style="stroke:#000000;stroke-width:0.8;" x="137.52" xlink:href="#m281aec8158" y="423.715829"/>
      </g>
     </g>
     <g id="text_19">
      <!-- 0.00 -->
      <g transform="translate(108.254375 427.515048)scale(0.1 -0.1)">
       <use xlink:href="#DejaVuSans-48"/>
       <use x="63.623047" xlink:href="#DejaVuSans-46"/>
       <use x="95.410156" xlink:href="#DejaVuSans-48"/>
       <use x="159.033203" xlink:href="#DejaVuSans-48"/>
      </g>
     </g>
    </g>
    <g id="ytick_13">
     <g id="line2d_28">
      <g>
       <use style="stroke:#000000;stroke-width:0.8;" x="137.52" xlink:href="#m281aec8158" y="398.037908"/>
      </g>
     </g>
     <g id="text_20">
      <!-- 0.25 -->
      <g transform="translate(108.254375 401.837127)scale(0.1 -0.1)">
       <use xlink:href="#DejaVuSans-48"/>
       <use x="63.623047" xlink:href="#DejaVuSans-46"/>
       <use x="95.410156" xlink:href="#DejaVuSans-50"/>
       <use x="159.033203" xlink:href="#DejaVuSans-53"/>
      </g>
     </g>
    </g>
    <g id="ytick_14">
     <g id="line2d_29">
      <g>
       <use style="stroke:#000000;stroke-width:0.8;" x="137.52" xlink:href="#m281aec8158" y="372.359987"/>
      </g>
     </g>
     <g id="text_21">
      <!-- 0.50 -->
      <g transform="translate(108.254375 376.159206)scale(0.1 -0.1)">
       <use xlink:href="#DejaVuSans-48"/>
       <use x="63.623047" xlink:href="#DejaVuSans-46"/>
       <use x="95.410156" xlink:href="#DejaVuSans-53"/>
       <use x="159.033203" xlink:href="#DejaVuSans-48"/>
      </g>
     </g>
    </g>
    <g id="ytick_15">
     <g id="line2d_30">
      <g>
       <use style="stroke:#000000;stroke-width:0.8;" x="137.52" xlink:href="#m281aec8158" y="346.682066"/>
      </g>
     </g>
     <g id="text_22">
      <!-- 0.75 -->
      <g transform="translate(108.254375 350.481285)scale(0.1 -0.1)">
       <use xlink:href="#DejaVuSans-48"/>
       <use x="63.623047" xlink:href="#DejaVuSans-46"/>
       <use x="95.410156" xlink:href="#DejaVuSans-55"/>
       <use x="159.033203" xlink:href="#DejaVuSans-53"/>
      </g>
     </g>
    </g>
    <g id="ytick_16">
     <g id="line2d_31">
      <g>
       <use style="stroke:#000000;stroke-width:0.8;" x="137.52" xlink:href="#m281aec8158" y="321.004145"/>
      </g>
     </g>
     <g id="text_23">
      <!-- 1.00 -->
      <g transform="translate(108.254375 324.803364)scale(0.1 -0.1)">
       <use xlink:href="#DejaVuSans-49"/>
       <use x="63.623047" xlink:href="#DejaVuSans-46"/>
       <use x="95.410156" xlink:href="#DejaVuSans-48"/>
       <use x="159.033203" xlink:href="#DejaVuSans-48"/>
      </g>
     </g>
    </g>
   </g>
   <g id="line2d_32">
    <path clip-path="url(#pff3bd63769)" d="M 137.109882 432.373232 
L 138.317751 443.679471 
L 139.52562 435.279702 
L 140.733489 330.788675 
L 141.941358 438.996611 
L 143.149226 457.837102 
L 144.357095 403.504717 
L 145.564964 394.070688 
L 146.772833 473.333797 
L 147.980702 435.220668 
L 149.18857 391.006591 
L 150.396439 476.459107 
L 151.604308 450.533833 
L 152.812177 409.756025 
L 154.020046 392.291822 
L 155.227914 418.512496 
L 156.435783 428.344241 
L 157.643652 390.642258 
L 158.851521 396.089365 
L 160.05939 465.773656 
L 161.267258 390.953942 
L 162.475127 434.50962 
L 163.682996 445.930355 
L 164.890865 438.813819 
L 166.098734 333.804949 
L 167.306602 439.696974 
L 168.514471 466.138176 
L 169.72234 406.355807 
L 170.930209 392.314775 
L 172.138078 480.204966 
L 174.553815 387.282644 
L 175.761684 461.46033 
L 176.969553 444.771572 
L 178.177422 409.077306 
L 179.38529 393.130553 
L 180.593159 421.417754 
L 181.801028 431.299321 
L 183.008897 392.829179 
L 184.216766 398.741624 
L 185.424634 466.404012 
L 186.632503 388.259556 
L 187.840372 433.660874 
L 189.048241 450.31215 
L 190.25611 438.074977 
L 191.463978 335.158182 
L 192.671847 440.390707 
L 193.879716 466.717062 
L 195.087585 404.456178 
L 196.295454 391.675527 
L 197.503323 480.510611 
L 198.711191 437.997697 
L 199.91906 387.786914 
L 201.126929 460.487936 
L 202.334798 443.145337 
L 203.542667 407.515896 
L 204.750535 392.633942 
L 205.958404 422.227779 
L 207.166273 429.110849 
L 208.374142 395.912842 
L 209.582011 401.807487 
L 210.789879 467.383722 
L 211.997748 388.160167 
L 213.205617 431.250379 
L 214.413486 446.763439 
L 215.621355 434.806111 
L 216.829223 334.075571 
L 218.037092 442.51602 
L 219.244961 465.834766 
L 220.45283 404.813767 
L 221.660699 392.624587 
L 222.868567 480.393594 
L 224.076436 437.626407 
L 225.284305 388.643494 
L 226.492174 462.922823 
L 227.700043 446.859116 
L 228.907911 409.348934 
L 230.11578 390.253157 
L 231.323649 418.278539 
L 232.531518 428.858236 
L 233.739387 393.18422 
L 234.947255 398.961592 
L 236.155124 466.200885 
L 237.362993 391.706849 
L 238.570862 431.998783 
L 239.778731 446.237341 
L 240.986599 436.094025 
L 242.194468 335.302119 
L 243.402337 442.732197 
L 244.610206 467.641261 
L 245.818075 405.212158 
L 247.025943 393.497775 
L 248.233812 480.345947 
L 250.64955 387.435429 
L 251.857419 460.921683 
L 253.065287 445.295651 
L 254.273156 407.947162 
L 255.481025 393.380587 
L 256.688894 420.838554 
L 257.896763 426.640604 
L 259.104631 391.184046 
L 260.3125 397.999662 
L 261.520369 468.860299 
L 262.728238 389.503931 
L 263.936107 435.165489 
L 265.143975 448.768231 
L 266.351844 435.368906 
L 267.559713 329.666676 
L 268.767582 438.416738 
L 269.975451 456.865001 
L 271.183319 404.610326 
L 272.391188 393.664074 
L 273.599057 474.585407 
L 274.806926 434.182653 
L 276.014795 389.130053 
L 277.222663 476.59619 
L 278.430532 449.021951 
L 279.638401 409.181754 
L 280.84627 392.980039 
L 282.054139 423.283435 
L 283.262007 431.333519 
L 284.469876 397.598756 
L 285.677745 404.321405 
L 286.885614 461.762429 
L 288.093483 389.190485 
L 289.301351 434.915549 
L 290.50922 442.834041 
L 291.717089 433.55319 
L 292.924958 327.259508 
L 294.132827 437.05008 
L 295.340695 457.478177 
L 296.548564 405.212097 
L 297.756433 394.726517 
L 298.964302 474.020811 
L 300.172171 436.562365 
L 301.380039 391.656102 
L 302.587908 476.630656 
L 303.795777 447.504229 
L 305.003646 408.685737 
L 306.211515 390.812273 
L 307.419384 420.656458 
L 308.627252 426.153319 
L 309.835121 406.826525 
L 311.04299 398.966405 
L 312.250859 456.385279 
L 313.458728 414.320851 
L 314.666596 474.311987 
L 315.874465 395.805471 
L 317.082334 438.064858 
L 318.290203 393.56747 
L 319.498072 445.855211 
L 320.70594 406.33539 
L 321.913809 453.278775 
L 323.121678 386.701865 
L 324.329547 448.117349 
L 325.537416 423.04528 
L 326.745284 432.749773 
L 327.953153 321.211906 
L 329.161022 425.823886 
L 330.368891 441.836358 
L 331.57676 442.858655 
L 332.784628 398.898928 
L 333.992497 428.387247 
L 335.200366 462.638693 
L 336.408235 471.083952 
L 337.616104 386.156445 
L 338.823972 417.068704 
L 340.031841 417.060468 
L 341.23971 455.435955 
L 342.447579 337.512838 
L 343.655448 440.35103 
L 344.863316 456.230409 
L 346.071185 401.76705 
L 347.279054 393.765128 
L 348.486923 472.622356 
L 349.694792 440.551508 
L 350.90266 395.814375 
L 352.110529 447.332066 
L 353.318398 448.092577 
L 354.526267 429.341828 
L 355.734136 393.095644 
L 356.942004 491.602254 
L 358.149873 409.598449 
L 359.357742 408.696 
L 361.77348 425.244763 
L 362.981348 415.120771 
L 364.189217 374.427619 
L 365.397086 432.231399 
L 366.604955 448.529855 
L 367.812824 438.812662 
L 369.020692 331.174315 
L 370.228561 436.902406 
L 371.43643 460.558879 
L 372.644299 406.454787 
L 373.852168 393.984266 
L 375.060036 472.421134 
L 376.267905 436.010481 
L 377.475774 391.389757 
L 378.683643 476.284272 
L 379.891512 447.423629 
L 381.09938 405.188444 
L 382.307249 393.042753 
L 383.515118 421.750742 
L 384.722987 430.979947 
L 385.930856 395.246661 
L 387.138724 399.967224 
L 388.346593 464.405667 
L 389.554462 386.110237 
L 390.762331 430.200708 
L 391.9702 447.87749 
L 393.178068 434.643567 
L 394.385937 330.433068 
L 395.593806 440.612932 
L 396.801675 457.753655 
L 398.009544 404.969328 
L 399.217412 394.614354 
L 400.425281 473.706881 
L 401.63315 434.869783 
L 402.841019 390.235691 
L 404.048888 476.819455 
L 405.256756 449.36771 
L 406.464625 408.508957 
L 407.672494 391.161561 
L 408.880363 419.853867 
L 410.088232 430.656307 
L 411.2961 394.68001 
L 412.503969 400.156449 
L 413.711838 465.888729 
L 414.919707 392.426922 
L 416.127576 435.681161 
L 417.335445 443.915006 
L 418.543313 432.645204 
L 419.751182 328.245713 
L 420.959051 436.817782 
L 422.16692 457.194316 
L 423.374789 405.192058 
L 424.582657 393.598576 
L 425.790526 473.92893 
L 426.998395 434.492043 
L 428.206264 390.218048 
L 429.414133 476.496999 
L 430.622001 449.154382 
L 431.82987 409.620344 
L 433.037739 392.890707 
L 434.245608 419.792218 
L 435.453477 429.040628 
L 436.661345 393.696063 
L 437.869214 398.604152 
L 439.077083 464.728081 
L 440.284952 388.544038 
L 441.492821 435.443402 
L 442.700689 445.135656 
L 443.908558 432.073029 
L 445.116427 328.343884 
L 446.324296 436.903115 
L 447.532165 457.089298 
L 448.740033 402.598321 
L 449.947902 395.187761 
L 451.155771 475.468845 
L 452.36364 436.6737 
L 453.571509 389.415109 
L 454.779377 475.091855 
L 455.987246 448.379052 
L 457.195115 408.146673 
L 458.402984 391.435564 
L 459.610853 418.868856 
L 460.818721 428.943543 
L 462.02659 393.020094 
L 463.234459 395.953492 
L 464.442328 465.816532 
L 465.650197 386.322929 
L 466.858065 432.976022 
L 468.065934 447.032915 
L 469.273803 437.344831 
L 470.481672 334.750831 
L 471.689541 442.105846 
L 472.897409 465.758486 
L 474.105278 404.535625 
L 475.313147 392.344612 
L 476.521016 479.981487 
L 477.728885 436.653446 
L 478.936753 387.995637 
L 480.144622 463.266712 
L 481.352491 447.046886 
L 482.56036 407.496202 
L 483.768229 391.335572 
L 484.976097 422.710189 
L 486.183966 431.947645 
L 487.391835 397.105022 
L 488.599704 401.459596 
L 489.807573 469.577477 
L 491.015441 389.433693 
L 492.22331 429.733813 
L 493.431179 447.784793 
L 494.639048 436.237799 
L 495.846917 335.677684 
L 497.054785 442.163072 
L 498.262654 468.664577 
L 499.470523 408.110647 
L 500.678392 393.017719 
L 501.886261 480.813826 
L 503.094129 438.812939 
L 504.301998 388.464984 
L 505.509867 462.251304 
L 506.717736 445.097764 
L 507.925605 409.968116 
L 509.133473 394.247011 
L 510.341342 422.174299 
L 511.549211 428.85851 
L 512.75708 393.47022 
L 513.964949 402.301591 
L 515.172817 466.800203 
L 516.380686 392.133202 
L 517.588555 435.222475 
L 518.796424 449.409513 
L 520.004293 434.994435 
L 521.212161 334.274361 
L 522.42003 442.188386 
L 523.627899 466.780928 
L 524.835768 405.541218 
L 526.043637 394.065663 
L 527.251506 482.589226 
L 528.459374 438.160737 
L 529.667243 387.989172 
L 530.875112 460.669689 
L 532.082981 446.718085 
L 533.29085 408.271956 
L 534.498718 391.945515 
L 535.706587 420.222425 
L 536.914456 430.888564 
L 538.122325 394.560862 
L 539.330194 400.441652 
L 540.538062 466.194091 
L 541.745931 389.182048 
L 542.9538 430.548802 
L 544.161669 447.374479 
L 545.369538 434.460378 
L 546.577406 334.655282 
L 547.785275 441.37391 
L 548.993144 466.801763 
L 550.201013 403.30492 
L 551.408882 391.9478 
L 552.61675 479.756033 
L 553.824619 438.893826 
L 555.032488 388.066584 
L 556.240357 461.062012 
L 557.448226 444.399912 
L 558.656094 408.223965 
L 559.863963 390.864476 
L 561.071832 418.855853 
L 562.279701 427.621703 
L 563.48757 391.509836 
L 564.695438 395.833555 
L 565.903307 467.533478 
L 567.111176 388.353705 
L 568.319045 430.303617 
L 569.526914 442.791422 
L 570.734782 433.366038 
L 571.942651 330.545236 
L 573.15052 439.483409 
L 574.358389 456.354492 
L 575.566258 404.246349 
L 576.774126 392.818844 
L 577.981995 474.03124 
L 579.189864 434.771278 
L 580.397733 389.139005 
L 581.605602 476.349266 
L 582.81347 450.371623 
L 584.021339 408.601886 
L 585.229208 392.171707 
L 586.437077 423.98617 
L 587.644946 427.0127 
L 588.852814 396.441307 
L 590.060683 404.238743 
L 591.268552 462.388751 
L 592.476421 390.600082 
L 593.68429 434.452659 
L 594.892158 443.263109 
L 596.100027 432.204798 
L 597.307896 326.549954 
L 598.515765 439.105734 
L 599.723634 456.92707 
L 600.931502 406.020558 
L 602.139371 395.904851 
L 603.34724 475.544022 
L 604.555109 435.29366 
L 605.762978 389.338906 
L 606.970846 475.951557 
L 608.178715 448.292086 
L 609.386584 408.285494 
L 610.594453 391.578052 
L 611.802322 422.498665 
L 613.01019 426.642888 
L 614.218059 405.294689 
L 615.425928 398.164833 
L 616.633797 457.58127 
L 617.841666 414.799049 
L 619.049534 474.296081 
L 620.257403 395.693073 
L 621.465272 439.928082 
L 622.673141 397.422774 
L 623.88101 444.087737 
L 625.088878 401.719895 
L 626.296747 452.725963 
L 627.504616 388.007426 
L 628.712485 450.526986 
L 629.920354 422.863857 
L 631.128222 434.084541 
L 632.336091 321.308187 
L 633.54396 427.261802 
L 634.751829 440.255355 
L 635.959698 427.229321 
L 637.167567 439.562641 
L 638.375435 413.1579 
L 639.583304 443.37982 
L 640.791173 465.196627 
L 641.999042 419.705422 
L 643.206911 432.976143 
L 644.414779 412.489116 
L 645.622648 395.5983 
L 646.830517 452.169116 
L 648.038386 426.927821 
L 649.246255 432.941851 
L 650.454123 321.49572 
L 651.661992 424.967739 
L 652.869861 438.180879 
L 654.07773 428.183043 
L 655.285599 439.724543 
L 656.493467 413.416841 
L 657.701336 442.372757 
L 658.909205 476.47351 
L 660.117074 420.0422 
L 661.324943 411.10105 
L 662.532811 403.791685 
L 663.74068 450.052389 
L 664.948549 445.251951 
L 666.156418 379.742548 
L 667.364287 467.044017 
L 668.572155 412.33239 
L 669.780024 394.723601 
L 670.987893 379.273514 
L 672.195762 423.334669 
L 673.403631 443.935295 
L 674.611499 388.249718 
L 675.819368 459.994971 
L 677.027237 430.861137 
L 678.235106 451.438632 
L 679.442975 431.633755 
L 680.650843 394.540727 
L 681.858712 451.329505 
L 683.066581 425.976 
L 684.27445 437.034732 
L 685.482319 321.122138 
L 686.690187 428.288997 
L 687.898056 447.7244 
L 689.105925 445.7977 
L 690.313794 398.696983 
L 691.521663 423.849647 
L 692.729531 459.996086 
L 693.9374 464.520274 
L 695.145269 382.209095 
L 696.353138 413.387222 
L 697.561007 418.003184 
L 698.768875 460.311244 
L 699.976744 338.549459 
L 701.184613 442.136468 
L 702.392482 458.084041 
L 703.600351 402.203218 
L 704.808219 396.756784 
L 706.016088 469.84528 
L 707.223957 436.176487 
L 708.431826 394.882182 
L 709.639695 446.276961 
L 710.847563 447.939728 
L 712.055432 427.580859 
L 713.263301 390.320562 
L 714.47117 490.884174 
L 715.679039 406.02457 
L 716.886907 408.898332 
L 718.094776 418.150495 
L 719.302645 426.068982 
L 720.510514 417.181897 
L 721.718383 373.991672 
L 722.926251 429.581972 
L 724.13412 447.040163 
L 725.341989 440.712812 
L 726.549858 331.2072 
L 727.757727 437.062434 
L 728.965595 458.947124 
L 730.173464 407.700419 
L 731.381333 394.958841 
L 732.589202 473.637312 
L 733.797071 435.622617 
L 735.004939 391.7703 
L 736.212808 476.05725 
L 737.420677 447.090515 
L 738.628546 405.457733 
L 739.836415 391.468392 
L 741.044283 420.8202 
L 742.252152 433.365771 
L 743.460021 395.402683 
L 744.66789 398.34872 
L 745.875759 466.155471 
L 747.083628 387.730754 
L 748.291496 433.872982 
L 749.499365 448.187174 
L 750.707234 434.475183 
L 751.915103 330.832789 
L 753.122972 439.845758 
L 754.33084 457.879648 
L 755.538709 403.926943 
L 756.746578 393.900641 
L 757.954447 473.808046 
L 759.162316 435.893102 
L 760.370184 390.959296 
L 761.578053 477.223132 
L 762.785922 448.729323 
L 763.993791 409.759228 
L 765.20166 391.852818 
L 766.409528 419.948217 
L 767.617397 428.820299 
L 768.825266 394.01735 
L 770.033135 400.125494 
L 771.241004 469.767654 
L 772.448872 391.595649 
L 773.656741 432.998509 
L 774.86461 445.008808 
L 776.072479 434.054445 
L 777.280348 330.298279 
L 778.488216 439.040783 
L 779.696085 457.00413 
L 780.903954 404.040893 
L 782.111823 393.895398 
L 783.319692 472.85851 
L 784.52756 434.461038 
L 785.735429 390.323625 
L 786.943298 478.296949 
L 788.151167 450.422256 
L 789.359036 409.995494 
L 790.566904 393.871185 
L 791.774773 423.002268 
L 792.982642 431.788974 
L 794.190511 392.526586 
L 795.39838 396.81318 
L 796.606248 463.713303 
L 797.814117 388.522181 
L 799.021986 432.414758 
L 800.229855 445.934856 
L 801.437724 433.301115 
L 802.645592 329.119962 
L 803.853461 438.121158 
L 805.06133 457.926866 
L 806.269199 403.879309 
L 807.477068 395.971193 
L 808.684936 475.660033 
L 809.892805 435.381567 
L 811.100674 388.84019 
L 812.308543 474.946536 
L 813.516412 448.557771 
L 814.72428 409.362342 
L 815.932149 392.25549 
L 817.140018 420.008572 
L 818.347887 431.498773 
L 819.555756 391.695591 
L 820.763624 395.780525 
L 821.971493 466.690752 
L 823.179362 387.544474 
L 824.387231 432.187583 
L 825.5951 447.297583 
L 826.802968 439.383933 
L 828.010837 335.082398 
L 829.218706 440.24078 
L 830.426575 465.760487 
L 831.634444 405.579958 
L 832.842312 389.641675 
L 834.050181 479.088923 
L 835.25805 438.60168 
L 836.465919 389.691359 
L 837.673788 462.118878 
L 838.881656 444.710886 
L 840.089525 407.480578 
L 841.297394 392.622422 
L 842.505263 418.594172 
L 843.713132 430.136296 
L 844.921 396.090724 
L 846.128869 402.050622 
L 847.336738 466.688267 
L 848.544607 391.062765 
L 849.752476 432.626656 
L 850.960344 445.369096 
L 852.168213 434.289051 
L 853.376082 333.626756 
L 854.583951 441.311689 
L 855.79182 466.888608 
L 856.999689 405.413066 
L 858.207557 391.988537 
L 859.415426 479.923015 
L 860.623295 437.855112 
L 861.831164 388.025496 
L 863.039033 461.730593 
L 864.246901 446.207452 
L 865.45477 409.682597 
L 866.662639 393.176168 
L 867.870508 420.124095 
L 869.078377 426.458768 
L 870.286245 393.745998 
L 871.494114 399.210151 
L 872.701983 466.485056 
L 873.909852 388.037847 
L 875.117721 436.133273 
L 876.325589 448.066121 
L 877.533458 435.851814 
L 878.741327 334.050642 
L 879.949196 443.646114 
L 881.157065 466.410994 
L 882.364933 404.605313 
L 883.572802 392.517606 
L 884.780671 481.454672 
L 885.98854 437.503924 
L 887.196409 386.599997 
L 888.404277 461.260796 
L 889.612146 445.514941 
L 890.820015 407.888946 
L 892.027884 391.825138 
L 893.235753 422.99381 
L 894.443621 431.995859 
L 895.65149 394.331545 
L 896.859359 398.915961 
L 898.067228 465.380208 
L 899.275097 387.967234 
L 900.482965 432.102594 
L 901.690834 447.337536 
L 902.898703 437.552547 
L 904.106572 334.929255 
L 905.314441 442.844268 
L 906.522309 467.50868 
L 907.730178 404.086096 
L 908.938047 393.121206 
L 910.145916 479.47947 
L 911.353785 437.376878 
L 912.561653 387.851978 
L 913.769522 461.27734 
L 914.977391 444.015482 
L 916.18526 409.191343 
L 917.393129 391.588918 
L 918.600997 418.406556 
L 919.808866 427.066927 
L 921.016735 392.065831 
L 922.224604 400.855154 
L 923.432473 469.982583 
L 924.640341 388.618277 
L 925.84821 433.092885 
L 927.056079 444.910058 
L 928.263948 432.890655 
L 929.471817 329.979769 
L 930.679685 438.42749 
L 931.887554 457.595535 
L 933.095423 403.873445 
L 934.303292 393.649414 
L 935.511161 474.325683 
L 936.719029 435.513305 
L 937.926898 390.761523 
L 939.134767 477.027864 
L 940.342636 449.324883 
L 941.550505 409.00839 
L 942.758373 391.288034 
L 943.966242 422.307679 
L 945.174111 428.697034 
L 946.38198 396.431301 
L 947.589849 406.149782 
L 948.797717 464.920614 
L 950.005586 390.867823 
L 951.213455 435.682167 
L 952.421324 444.874263 
L 953.629193 430.796697 
L 954.837061 325.908691 
L 956.04493 435.74721 
L 957.252799 458.378263 
L 958.460668 406.643001 
L 959.668537 396.030725 
L 960.876405 475.587608 
L 962.084274 435.547609 
L 963.292143 389.848199 
L 964.500012 475.639551 
L 965.707881 448.524275 
L 966.91575 408.677749 
L 968.123618 391.800188 
L 969.331487 420.153492 
L 970.539356 424.84814 
L 971.747225 404.804231 
L 972.955094 397.367601 
L 974.162962 457.785638 
L 975.370831 414.736406 
L 976.5787 473.55808 
L 977.786569 399.659205 
L 978.994438 438.742189 
L 980.202306 396.190977 
L 981.410175 445.641161 
L 982.618044 404.195577 
L 983.825913 452.429224 
L 985.033782 385.821496 
L 986.24165 449.880377 
L 987.449519 425.838747 
L 988.657388 436.568265 
L 989.865257 321.193028 
L 991.073126 427.911876 
L 991.073126 427.911876 
" style="fill:none;stroke:#1f77b4;stroke-linecap:square;stroke-width:1.5;"/>
   </g>
   <g id="patch_29">
    <path d="M 137.52 513.9216 
L 137.52 311.8176 
" style="fill:none;stroke:#000000;stroke-linecap:square;stroke-linejoin:miter;stroke-width:0.8;"/>
   </g>
   <g id="patch_30">
    <path d="M 990.144 513.9216 
L 990.144 311.8176 
" style="fill:none;stroke:#000000;stroke-linecap:square;stroke-linejoin:miter;stroke-width:0.8;"/>
   </g>
   <g id="patch_31">
    <path d="M 137.52 513.9216 
L 990.144 513.9216 
" style="fill:none;stroke:#000000;stroke-linecap:square;stroke-linejoin:miter;stroke-width:0.8;"/>
   </g>
   <g id="patch_32">
    <path d="M 137.52 311.8176 
L 990.144 311.8176 
" style="fill:none;stroke:#000000;stroke-linecap:square;stroke-linejoin:miter;stroke-width:0.8;"/>
   </g>
  </g>
 </g>
 <defs>
  <clipPath id="pac72d11066">
   <rect height="202.104" width="852.624" x="137.52" y="69.2928"/>
  </clipPath>
  <clipPath id="pff3bd63769">
   <rect height="202.104" width="852.624" x="137.52" y="311.8176"/>
  </clipPath>
 </defs>
</svg>
