<?xml version="1.0" encoding="utf-8" standalone="no"?>
<!DOCTYPE svg PUBLIC "-//W3C//DTD SVG 1.1//EN"
  "http://www.w3.org/Graphics/SVG/1.1/DTD/svg11.dtd">
<!-- Created with matplotlib (https://matplotlib.org/) -->
<svg height="577.44pt" version="1.1" viewBox="0 0 1100.16 577.44" width="1100.16pt" xmlns="http://www.w3.org/2000/svg" xmlns:xlink="http://www.w3.org/1999/xlink">
 <defs>
  <style type="text/css">
*{stroke-linecap:butt;stroke-linejoin:round;}
  </style>
 </defs>
 <g id="figure_1">
  <g id="patch_1">
   <path d="M 0 577.44 
L 1100.16 577.44 
L 1100.16 0 
L 0 0 
z
" style="fill:#ffffff;"/>
  </g>
  <g id="axes_1">
   <g id="patch_2">
    <path d="M 137.52 513.9216 
L 990.144 513.9216 
L 990.144 69.2928 
L 137.52 69.2928 
z
" style="fill:#ffffff;"/>
   </g>
   <g id="matplotlib.axis_1">
    <g id="xtick_1">
     <g id="line2d_1">
      <defs>
       <path d="M 0 0 
L 0 3.5 
" id="m6b15051981" style="stroke:#000000;stroke-width:0.8;"/>
      </defs>
      <g>
       <use style="stroke:#000000;stroke-width:0.8;" x="160.014156" xlink:href="#m6b15051981" y="513.9216"/>
      </g>
     </g>
     <g id="text_1">
      <!-- 0 -->
      <defs>
       <path d="M 31.78125 66.40625 
Q 24.171875 66.40625 20.328125 58.90625 
Q 16.5 51.421875 16.5 36.375 
Q 16.5 21.390625 20.328125 13.890625 
Q 24.171875 6.390625 31.78125 6.390625 
Q 39.453125 6.390625 43.28125 13.890625 
Q 47.125 21.390625 47.125 36.375 
Q 47.125 51.421875 43.28125 58.90625 
Q 39.453125 66.40625 31.78125 66.40625 
z
M 31.78125 74.21875 
Q 44.046875 74.21875 50.515625 64.515625 
Q 56.984375 54.828125 56.984375 36.375 
Q 56.984375 17.96875 50.515625 8.265625 
Q 44.046875 -1.421875 31.78125 -1.421875 
Q 19.53125 -1.421875 13.0625 8.265625 
Q 6.59375 17.96875 6.59375 36.375 
Q 6.59375 54.828125 13.0625 64.515625 
Q 19.53125 74.21875 31.78125 74.21875 
z
" id="DejaVuSans-48"/>
      </defs>
      <g transform="translate(156.832906 528.520037)scale(0.1 -0.1)">
       <use xlink:href="#DejaVuSans-48"/>
      </g>
     </g>
    </g>
    <g id="xtick_2">
     <g id="line2d_2">
      <g>
       <use style="stroke:#000000;stroke-width:0.8;" x="263.951634" xlink:href="#m6b15051981" y="513.9216"/>
      </g>
     </g>
     <g id="text_2">
      <!-- 25 -->
      <defs>
       <path d="M 19.1875 8.296875 
L 53.609375 8.296875 
L 53.609375 0 
L 7.328125 0 
L 7.328125 8.296875 
Q 12.9375 14.109375 22.625 23.890625 
Q 32.328125 33.6875 34.8125 36.53125 
Q 39.546875 41.84375 41.421875 45.53125 
Q 43.3125 49.21875 43.3125 52.78125 
Q 43.3125 58.59375 39.234375 62.25 
Q 35.15625 65.921875 28.609375 65.921875 
Q 23.96875 65.921875 18.8125 64.3125 
Q 13.671875 62.703125 7.8125 59.421875 
L 7.8125 69.390625 
Q 13.765625 71.78125 18.9375 73 
Q 24.125 74.21875 28.421875 74.21875 
Q 39.75 74.21875 46.484375 68.546875 
Q 53.21875 62.890625 53.21875 53.421875 
Q 53.21875 48.921875 51.53125 44.890625 
Q 49.859375 40.875 45.40625 35.40625 
Q 44.1875 33.984375 37.640625 27.21875 
Q 31.109375 20.453125 19.1875 8.296875 
z
" id="DejaVuSans-50"/>
       <path d="M 10.796875 72.90625 
L 49.515625 72.90625 
L 49.515625 64.59375 
L 19.828125 64.59375 
L 19.828125 46.734375 
Q 21.96875 47.46875 24.109375 47.828125 
Q 26.265625 48.1875 28.421875 48.1875 
Q 40.625 48.1875 47.75 41.5 
Q 54.890625 34.8125 54.890625 23.390625 
Q 54.890625 11.625 47.5625 5.09375 
Q 40.234375 -1.421875 26.90625 -1.421875 
Q 22.3125 -1.421875 17.546875 -0.640625 
Q 12.796875 0.140625 7.71875 1.703125 
L 7.71875 11.625 
Q 12.109375 9.234375 16.796875 8.0625 
Q 21.484375 6.890625 26.703125 6.890625 
Q 35.15625 6.890625 40.078125 11.328125 
Q 45.015625 15.765625 45.015625 23.390625 
Q 45.015625 31 40.078125 35.4375 
Q 35.15625 39.890625 26.703125 39.890625 
Q 22.75 39.890625 18.8125 39.015625 
Q 14.890625 38.140625 10.796875 36.28125 
z
" id="DejaVuSans-53"/>
      </defs>
      <g transform="translate(257.589134 528.520037)scale(0.1 -0.1)">
       <use xlink:href="#DejaVuSans-50"/>
       <use x="63.623047" xlink:href="#DejaVuSans-53"/>
      </g>
     </g>
    </g>
    <g id="xtick_3">
     <g id="line2d_3">
      <g>
       <use style="stroke:#000000;stroke-width:0.8;" x="367.889111" xlink:href="#m6b15051981" y="513.9216"/>
      </g>
     </g>
     <g id="text_3">
      <!-- 50 -->
      <g transform="translate(361.526611 528.520037)scale(0.1 -0.1)">
       <use xlink:href="#DejaVuSans-53"/>
       <use x="63.623047" xlink:href="#DejaVuSans-48"/>
      </g>
     </g>
    </g>
    <g id="xtick_4">
     <g id="line2d_4">
      <g>
       <use style="stroke:#000000;stroke-width:0.8;" x="471.826588" xlink:href="#m6b15051981" y="513.9216"/>
      </g>
     </g>
     <g id="text_4">
      <!-- 75 -->
      <defs>
       <path d="M 8.203125 72.90625 
L 55.078125 72.90625 
L 55.078125 68.703125 
L 28.609375 0 
L 18.3125 0 
L 43.21875 64.59375 
L 8.203125 64.59375 
z
" id="DejaVuSans-55"/>
      </defs>
      <g transform="translate(465.464088 528.520037)scale(0.1 -0.1)">
       <use xlink:href="#DejaVuSans-55"/>
       <use x="63.623047" xlink:href="#DejaVuSans-53"/>
      </g>
     </g>
    </g>
    <g id="xtick_5">
     <g id="line2d_5">
      <g>
       <use style="stroke:#000000;stroke-width:0.8;" x="575.764065" xlink:href="#m6b15051981" y="513.9216"/>
      </g>
     </g>
     <g id="text_5">
      <!-- 100 -->
      <defs>
       <path d="M 12.40625 8.296875 
L 28.515625 8.296875 
L 28.515625 63.921875 
L 10.984375 60.40625 
L 10.984375 69.390625 
L 28.421875 72.90625 
L 38.28125 72.90625 
L 38.28125 8.296875 
L 54.390625 8.296875 
L 54.390625 0 
L 12.40625 0 
z
" id="DejaVuSans-49"/>
      </defs>
      <g transform="translate(566.220315 528.520037)scale(0.1 -0.1)">
       <use xlink:href="#DejaVuSans-49"/>
       <use x="63.623047" xlink:href="#DejaVuSans-48"/>
       <use x="127.246094" xlink:href="#DejaVuSans-48"/>
      </g>
     </g>
    </g>
    <g id="xtick_6">
     <g id="line2d_6">
      <g>
       <use style="stroke:#000000;stroke-width:0.8;" x="679.701543" xlink:href="#m6b15051981" y="513.9216"/>
      </g>
     </g>
     <g id="text_6">
      <!-- 125 -->
      <g transform="translate(670.157793 528.520037)scale(0.1 -0.1)">
       <use xlink:href="#DejaVuSans-49"/>
       <use x="63.623047" xlink:href="#DejaVuSans-50"/>
       <use x="127.246094" xlink:href="#DejaVuSans-53"/>
      </g>
     </g>
    </g>
    <g id="xtick_7">
     <g id="line2d_7">
      <g>
       <use style="stroke:#000000;stroke-width:0.8;" x="783.63902" xlink:href="#m6b15051981" y="513.9216"/>
      </g>
     </g>
     <g id="text_7">
      <!-- 150 -->
      <g transform="translate(774.09527 528.520037)scale(0.1 -0.1)">
       <use xlink:href="#DejaVuSans-49"/>
       <use x="63.623047" xlink:href="#DejaVuSans-53"/>
       <use x="127.246094" xlink:href="#DejaVuSans-48"/>
      </g>
     </g>
    </g>
    <g id="xtick_8">
     <g id="line2d_8">
      <g>
       <use style="stroke:#000000;stroke-width:0.8;" x="887.576497" xlink:href="#m6b15051981" y="513.9216"/>
      </g>
     </g>
     <g id="text_8">
      <!-- 175 -->
      <g transform="translate(878.032747 528.520037)scale(0.1 -0.1)">
       <use xlink:href="#DejaVuSans-49"/>
       <use x="63.623047" xlink:href="#DejaVuSans-55"/>
       <use x="127.246094" xlink:href="#DejaVuSans-53"/>
      </g>
     </g>
    </g>
   </g>
   <g id="matplotlib.axis_2">
    <g id="ytick_1">
     <g id="line2d_9">
      <defs>
       <path d="M 0 0 
L -3.5 0 
" id="me15f9df55e" style="stroke:#000000;stroke-width:0.8;"/>
      </defs>
      <g>
       <use style="stroke:#000000;stroke-width:0.8;" x="137.52" xlink:href="#me15f9df55e" y="491.593298"/>
      </g>
     </g>
     <g id="text_9">
      <!-- −0.4 -->
      <defs>
       <path d="M 10.59375 35.5 
L 73.1875 35.5 
L 73.1875 27.203125 
L 10.59375 27.203125 
z
" id="DejaVuSans-8722"/>
       <path d="M 10.6875 12.40625 
L 21 12.40625 
L 21 0 
L 10.6875 0 
z
" id="DejaVuSans-46"/>
       <path d="M 37.796875 64.3125 
L 12.890625 25.390625 
L 37.796875 25.390625 
z
M 35.203125 72.90625 
L 47.609375 72.90625 
L 47.609375 25.390625 
L 58.015625 25.390625 
L 58.015625 17.1875 
L 47.609375 17.1875 
L 47.609375 0 
L 37.796875 0 
L 37.796875 17.1875 
L 4.890625 17.1875 
L 4.890625 26.703125 
z
" id="DejaVuSans-52"/>
      </defs>
      <g transform="translate(106.237187 495.392517)scale(0.1 -0.1)">
       <use xlink:href="#DejaVuSans-8722"/>
       <use x="83.789062" xlink:href="#DejaVuSans-48"/>
       <use x="147.412109" xlink:href="#DejaVuSans-46"/>
       <use x="179.199219" xlink:href="#DejaVuSans-52"/>
      </g>
     </g>
    </g>
    <g id="ytick_2">
     <g id="line2d_10">
      <g>
       <use style="stroke:#000000;stroke-width:0.8;" x="137.52" xlink:href="#me15f9df55e" y="396.044579"/>
      </g>
     </g>
     <g id="text_10">
      <!-- −0.2 -->
      <g transform="translate(106.237187 399.843798)scale(0.1 -0.1)">
       <use xlink:href="#DejaVuSans-8722"/>
       <use x="83.789062" xlink:href="#DejaVuSans-48"/>
       <use x="147.412109" xlink:href="#DejaVuSans-46"/>
       <use x="179.199219" xlink:href="#DejaVuSans-50"/>
      </g>
     </g>
    </g>
    <g id="ytick_3">
     <g id="line2d_11">
      <g>
       <use style="stroke:#000000;stroke-width:0.8;" x="137.52" xlink:href="#me15f9df55e" y="300.49586"/>
      </g>
     </g>
     <g id="text_11">
      <!-- 0.0 -->
      <g transform="translate(114.616875 304.295079)scale(0.1 -0.1)">
       <use xlink:href="#DejaVuSans-48"/>
       <use x="63.623047" xlink:href="#DejaVuSans-46"/>
       <use x="95.410156" xlink:href="#DejaVuSans-48"/>
      </g>
     </g>
    </g>
    <g id="ytick_4">
     <g id="line2d_12">
      <g>
       <use style="stroke:#000000;stroke-width:0.8;" x="137.52" xlink:href="#me15f9df55e" y="204.947141"/>
      </g>
     </g>
     <g id="text_12">
      <!-- 0.2 -->
      <g transform="translate(114.616875 208.74636)scale(0.1 -0.1)">
       <use xlink:href="#DejaVuSans-48"/>
       <use x="63.623047" xlink:href="#DejaVuSans-46"/>
       <use x="95.410156" xlink:href="#DejaVuSans-50"/>
      </g>
     </g>
    </g>
    <g id="ytick_5">
     <g id="line2d_13">
      <g>
       <use style="stroke:#000000;stroke-width:0.8;" x="137.52" xlink:href="#me15f9df55e" y="109.398423"/>
      </g>
     </g>
     <g id="text_13">
      <!-- 0.4 -->
      <g transform="translate(114.616875 113.197641)scale(0.1 -0.1)">
       <use xlink:href="#DejaVuSans-48"/>
       <use x="63.623047" xlink:href="#DejaVuSans-46"/>
       <use x="95.410156" xlink:href="#DejaVuSans-52"/>
      </g>
     </g>
    </g>
   </g>
   <g id="line2d_14">
    <path clip-path="url(#p8443fd5088)" d="M 160.014156 291.164931 
L 164.171656 209.052751 
L 168.329155 343.418136 
L 172.486654 352.749066 
L 176.644153 279.967815 
L 180.801652 311.692976 
L 184.959151 360.21381 
L 189.11665 315.425348 
L 193.274149 332.221021 
L 197.431648 440.459804 
L 201.589147 306.094418 
L 205.746646 293.031117 
L 209.904146 349.016694 
L 214.061645 306.094418 
L 218.219144 220.249866 
L 222.376643 214.651308 
L 226.534142 345.284322 
L 230.691641 257.573584 
L 234.84914 182.926148 
L 239.006639 315.425348 
L 243.164138 309.82679 
L 247.321637 322.890091 
L 251.479136 380.741855 
L 255.636636 203.454193 
L 259.794135 270.636886 
L 263.951634 399.403714 
L 268.109133 322.890091 
L 272.266632 391.93897 
L 276.424131 328.488649 
L 280.58163 403.136086 
L 284.739129 321.023905 
L 288.896628 296.763489 
L 293.054127 335.953393 
L 297.211626 214.651308 
L 301.369126 112.011083 
L 305.526625 384.474227 
L 309.684124 291.164931 
L 313.841623 373.277111 
L 317.999122 462.854035 
L 322.156621 332.221021 
L 326.31412 403.136086 
L 330.471619 253.841212 
L 334.629118 330.354835 
L 338.786617 304.228232 
L 342.944116 406.868458 
L 347.101616 278.101629 
L 351.259115 354.615252 
L 355.416614 354.615252 
L 359.574113 294.897303 
L 363.731612 311.692976 
L 367.889111 360.21381 
L 372.04661 298.629674 
L 376.204109 322.890091 
L 380.361608 363.946181 
L 384.519107 345.284322 
L 388.676606 345.284322 
L 392.834106 449.790734 
L 396.991605 334.087207 
L 401.149104 399.403714 
L 405.306603 324.756277 
L 409.464102 352.749066 
L 413.621601 253.841212 
L 417.7791 375.143297 
L 421.936599 414.333201 
L 426.094098 309.82679 
L 430.251597 391.93897 
L 434.409096 291.164931 
L 438.566596 382.608041 
L 442.724095 317.291534 
L 446.881594 401.2699 
L 451.039093 199.721821 
L 455.196592 322.890091 
L 459.354091 341.55195 
L 463.51159 321.023905 
L 467.669089 321.023905 
L 471.826588 304.228232 
L 475.984087 240.777911 
L 480.141586 261.305956 
L 484.299086 276.235443 
L 488.456585 349.016694 
L 492.614084 283.700187 
L 496.771583 377.009483 
L 500.929082 293.031117 
L 505.086581 384.474227 
L 509.24408 194.123263 
L 513.401579 311.692976 
L 517.559078 321.023905 
L 521.716577 287.432559 
L 525.874076 240.777911 
L 530.031576 233.313167 
L 534.189075 270.636886 
L 538.346574 363.946181 
L 542.504073 287.432559 
L 546.661572 317.291534 
L 550.819071 293.031117 
L 554.97657 298.629674 
L 559.134069 222.116052 
L 563.291568 279.967815 
L 567.449067 373.277111 
L 571.606566 451.656919 
L 575.764065 322.890091 
L 579.921565 388.206598 
L 584.079064 188.524705 
L 588.236563 298.629674 
L 592.394062 283.700187 
L 596.551561 287.432559 
L 600.70906 272.503072 
L 604.866559 222.116052 
L 609.024058 210.918936 
L 613.181557 214.651308 
L 617.339056 304.228232 
L 621.496555 253.841212 
L 625.654055 268.7707 
L 629.811554 335.953393 
L 633.969053 390.072784 
L 638.126552 89.616852 
L 642.284051 231.446981 
L 646.44155 406.868458 
L 650.599049 317.291534 
L 654.756548 382.608041 
L 658.914047 302.362046 
L 663.071546 306.094418 
L 667.229045 261.305956 
L 671.386545 311.692976 
L 675.544044 287.432559 
L 679.701543 334.087207 
L 683.859042 223.982238 
L 688.016541 339.685765 
L 692.17404 227.71461 
L 696.331539 326.622463 
L 700.489038 330.354835 
L 704.646537 268.7707 
L 708.804036 313.559162 
L 712.961535 248.242655 
L 717.119035 309.82679 
L 721.276534 399.403714 
L 725.434033 317.291534 
L 729.591532 375.143297 
L 733.749031 278.101629 
L 737.90653 257.573584 
L 742.064029 421.797945 
L 746.221528 261.305956 
L 750.379027 330.354835 
L 754.536526 235.179353 
L 758.694025 365.812367 
L 762.851525 386.340412 
L 767.009024 171.729032 
L 771.166523 324.756277 
L 775.324022 317.291534 
L 779.481521 223.982238 
L 783.63902 337.819579 
L 787.796519 278.101629 
L 791.954018 248.242655 
L 796.111517 358.347624 
L 800.269016 350.88288 
L 804.426515 397.537528 
L 808.584015 304.228232 
L 812.741514 401.2699 
L 816.899013 287.432559 
L 821.056512 313.559162 
L 825.214011 343.418136 
L 833.529009 253.841212 
L 837.686508 341.55195 
L 841.844007 345.284322 
L 846.001506 69.088807 
L 850.159005 250.108841 
L 854.316505 321.023905 
L 858.474004 403.136086 
L 862.631503 311.692976 
L 866.789002 363.946181 
L 870.946501 362.079996 
L 875.104 100.813967 
L 879.261499 347.150508 
L 883.418998 335.953393 
L 887.576497 293.031117 
L 891.733996 393.805156 
L 895.891495 321.023905 
L 900.048995 380.741855 
L 904.206494 287.432559 
L 908.363993 274.369258 
L 912.521492 434.861246 
L 916.678991 270.636886 
L 920.83649 337.819579 
L 924.993989 335.953393 
L 929.151488 337.819579 
L 933.308987 382.608041 
L 937.466486 339.685765 
L 941.623985 289.298745 
L 945.781485 334.087207 
L 949.938984 293.031117 
L 954.096483 347.150508 
L 958.253982 423.664131 
L 962.411481 126.94057 
L 966.56898 233.313167 
L 970.726479 414.333201 
L 974.883978 270.636886 
L 979.041477 343.418136 
L 983.198976 302.362046 
L 987.356475 274.369258 
L 995.671474 416.199387 
L 999.828973 298.629674 
L 1003.986472 388.206598 
L 1008.143971 212.785122 
L 1012.30147 328.488649 
L 1016.458969 300.49586 
L 1020.616468 311.692976 
L 1024.773967 313.559162 
L 1028.931466 268.7707 
L 1033.088965 220.249866 
L 1037.246465 244.510283 
L 1041.403964 315.425348 
L 1045.561463 414.333201 
L 1049.718962 291.164931 
L 1053.876461 306.094418 
L 1058.03396 293.031117 
L 1062.191459 209.052751 
L 1066.348958 330.354835 
L 1070.506457 490.846824 
L 1074.663956 509.508683 
L 1078.821455 431.128874 
L 1082.978955 242.644097 
L 1087.136454 380.741855 
L 1091.293953 293.031117 
L 1095.451452 324.756277 
L 1099.608951 263.172142 
L 1101.16 276.400377 
L 1101.16 276.400377 
" style="fill:none;stroke:#1f77b4;stroke-linecap:square;stroke-width:1.5;"/>
   </g>
   <g id="line2d_15">
    <path clip-path="url(#p8443fd5088)" d="M 160.014156 272.503072 
L 164.171656 209.052751 
L 168.329155 339.685765 
L 172.486654 345.284322 
L 176.644153 274.369258 
L 180.801652 313.559162 
L 184.959151 354.615252 
L 189.11665 309.82679 
L 193.274149 330.354835 
L 197.431648 438.593618 
L 201.589147 307.960604 
L 205.746646 298.629674 
L 209.904146 347.150508 
L 214.061645 306.094418 
L 218.219144 220.249866 
L 222.376643 209.052751 
L 226.534142 337.819579 
L 230.691641 266.904514 
L 234.84914 166.130474 
L 239.006639 343.418136 
L 243.164138 244.510283 
L 247.321637 337.819579 
L 251.479136 199.721821 
L 255.636636 278.101629 
L 259.794135 397.537528 
L 263.951634 250.108841 
L 268.109133 223.982238 
L 272.266632 345.284322 
L 276.424131 270.636886 
L 280.58163 201.588007 
L 284.739129 332.221021 
L 288.896628 319.157719 
L 293.054127 330.354835 
L 297.211626 384.474227 
L 301.369126 212.785122 
L 305.526625 279.967815 
L 309.684124 410.600829 
L 313.841623 337.819579 
L 317.999122 399.403714 
L 322.156621 332.221021 
L 326.31412 403.136086 
L 330.471619 328.488649 
L 334.629118 302.362046 
L 338.786617 343.418136 
L 342.944116 227.71461 
L 347.101616 126.94057 
L 351.259115 393.805156 
L 355.416614 294.897303 
L 359.574113 375.143297 
L 363.731612 460.987849 
L 367.889111 335.953393 
L 372.04661 405.002272 
L 376.204109 263.172142 
L 380.361608 335.953393 
L 384.519107 309.82679 
L 388.676606 403.136086 
L 392.834106 281.834001 
L 396.991605 356.481438 
L 401.149104 363.946181 
L 405.306603 307.960604 
L 409.464102 321.023905 
L 413.621601 365.812367 
L 417.7791 300.49586 
L 421.936599 321.023905 
L 426.094098 362.079996 
L 430.251597 343.418136 
L 434.409096 349.016694 
L 438.566596 449.790734 
L 442.724095 343.418136 
L 446.881594 401.2699 
L 451.039093 330.354835 
L 455.196592 350.88288 
L 459.354091 255.707398 
L 463.51159 373.277111 
L 467.669089 414.333201 
L 471.826588 311.692976 
L 475.984087 391.93897 
L 480.141586 291.164931 
L 484.299086 377.009483 
L 488.456585 311.692976 
L 492.614084 395.671342 
L 496.771583 201.588007 
L 500.929082 324.756277 
L 505.086581 339.685765 
L 509.24408 321.023905 
L 513.401579 315.425348 
L 517.559078 293.031117 
L 521.716577 231.446981 
L 525.874076 255.707398 
L 530.031576 276.235443 
L 534.189075 343.418136 
L 538.346574 283.700187 
L 542.504073 369.544739 
L 546.661572 287.432559 
L 550.819071 377.009483 
L 554.97657 182.926148 
L 559.134069 304.228232 
L 563.291568 315.425348 
L 567.449067 285.566373 
L 571.606566 231.446981 
L 575.764065 231.446981 
L 579.921565 263.172142 
L 584.079064 358.347624 
L 588.236563 278.101629 
L 592.394062 311.692976 
L 596.551561 291.164931 
L 600.70906 300.49586 
L 604.866559 220.249866 
L 609.024058 274.369258 
L 613.181557 362.079996 
L 617.339056 438.593618 
L 621.496555 309.82679 
L 625.654055 382.608041 
L 629.811554 190.390891 
L 633.969053 300.49586 
L 638.126552 279.967815 
L 642.284051 283.700187 
L 646.44155 268.7707 
L 650.599049 220.249866 
L 654.756548 205.320379 
L 658.914047 212.785122 
L 663.071546 304.228232 
L 667.229045 253.841212 
L 671.386545 261.305956 
L 675.544044 330.354835 
L 679.701543 388.206598 
L 683.859042 84.018294 
L 688.016541 231.446981 
L 692.17404 405.002272 
L 696.331539 322.890091 
L 700.489038 384.474227 
L 704.646537 307.960604 
L 708.804036 304.228232 
L 712.961535 261.305956 
L 717.119035 313.559162 
L 721.276534 285.566373 
L 725.434033 339.685765 
L 729.591532 231.446981 
L 733.749031 341.55195 
L 737.90653 225.848424 
L 742.064029 324.756277 
L 746.221528 324.756277 
L 750.379027 274.369258 
L 754.536526 317.291534 
L 758.694025 255.707398 
L 762.851525 321.023905 
L 767.009024 401.2699 
L 771.166523 317.291534 
L 775.324022 377.009483 
L 779.481521 281.834001 
L 783.63902 263.172142 
L 787.796519 425.530317 
L 791.954018 272.503072 
L 796.111517 334.087207 
L 800.269016 242.644097 
L 804.426515 365.812367 
L 808.584015 382.608041 
L 812.741514 177.32759 
L 816.899013 324.756277 
L 821.056512 321.023905 
L 825.214011 233.313167 
L 829.37151 347.150508 
L 833.529009 283.700187 
L 837.686508 248.242655 
L 841.844007 360.21381 
L 846.001506 350.88288 
L 850.159005 406.868458 
L 854.316505 311.692976 
L 858.474004 406.868458 
L 862.631503 291.164931 
L 866.789002 315.425348 
L 870.946501 335.953393 
L 875.104 285.566373 
L 879.261499 238.911725 
L 883.418998 347.150508 
L 887.576497 369.544739 
L 891.733996 91.483038 
L 895.891495 253.841212 
L 900.048995 322.890091 
L 904.206494 397.537528 
L 908.363993 313.559162 
L 912.521492 363.946181 
L 916.678991 373.277111 
L 920.83649 112.011083 
L 924.993989 343.418136 
L 929.151488 332.221021 
L 933.308987 278.101629 
L 937.466486 369.544739 
L 941.623985 313.559162 
L 945.781485 377.009483 
L 949.938984 294.897303 
L 954.096483 276.235443 
L 958.253982 432.99506 
L 962.411481 268.7707 
L 966.56898 330.354835 
L 970.726479 324.756277 
L 974.883978 335.953393 
L 979.041477 375.143297 
L 983.198976 343.418136 
L 987.356475 287.432559 
L 991.513975 332.221021 
L 995.671474 289.298745 
L 999.828973 343.418136 
L 1003.986472 414.333201 
L 1008.143971 126.94057 
L 1012.30147 229.580796 
L 1016.458969 412.467015 
L 1020.616468 266.904514 
L 1024.773967 339.685765 
L 1028.931466 291.164931 
L 1033.088965 265.038328 
L 1037.246465 328.488649 
L 1041.403964 405.002272 
L 1045.561463 298.629674 
L 1049.718962 391.93897 
L 1053.876461 209.052751 
L 1058.03396 313.559162 
L 1062.191459 287.432559 
L 1066.348958 302.362046 
L 1070.506457 306.094418 
L 1074.663956 253.841212 
L 1078.821455 218.38368 
L 1082.978955 244.510283 
L 1087.136454 317.291534 
L 1091.293953 406.868458 
L 1095.451452 278.101629 
L 1099.608951 302.362046 
L 1101.16 298.184709 
L 1101.16 298.184709 
" style="fill:none;stroke:#ff7f0e;stroke-linecap:square;stroke-opacity:0.5;stroke-width:1.5;"/>
   </g>
   <g id="patch_3">
    <path d="M 137.52 513.9216 
L 137.52 69.2928 
" style="fill:none;stroke:#000000;stroke-linecap:square;stroke-linejoin:miter;stroke-width:0.8;"/>
   </g>
   <g id="patch_4">
    <path d="M 990.144 513.9216 
L 990.144 69.2928 
" style="fill:none;stroke:#000000;stroke-linecap:square;stroke-linejoin:miter;stroke-width:0.8;"/>
   </g>
   <g id="patch_5">
    <path d="M 137.52 513.9216 
L 990.144 513.9216 
" style="fill:none;stroke:#000000;stroke-linecap:square;stroke-linejoin:miter;stroke-width:0.8;"/>
   </g>
   <g id="patch_6">
    <path d="M 137.52 69.2928 
L 990.144 69.2928 
" style="fill:none;stroke:#000000;stroke-linecap:square;stroke-linejoin:miter;stroke-width:0.8;"/>
   </g>
   <g id="legend_1">
    <g id="patch_7">
     <path d="M 144.52 106.64905 
L 244.791875 106.64905 
Q 246.791875 106.64905 246.791875 104.64905 
L 246.791875 76.2928 
Q 246.791875 74.2928 244.791875 74.2928 
L 144.52 74.2928 
Q 142.52 74.2928 142.52 76.2928 
L 142.52 104.64905 
Q 142.52 106.64905 144.52 106.64905 
z
" style="fill:#ffffff;opacity:0.8;stroke:#cccccc;stroke-linejoin:miter;"/>
    </g>
    <g id="line2d_16">
     <path d="M 146.52 82.391237 
L 166.52 82.391237 
" style="fill:none;stroke:#1f77b4;stroke-linecap:square;stroke-width:1.5;"/>
    </g>
    <g id="line2d_17"/>
    <g id="text_14">
     <!-- reference -->
     <defs>
      <path d="M 41.109375 46.296875 
Q 39.59375 47.171875 37.8125 47.578125 
Q 36.03125 48 33.890625 48 
Q 26.265625 48 22.1875 43.046875 
Q 18.109375 38.09375 18.109375 28.8125 
L 18.109375 0 
L 9.078125 0 
L 9.078125 54.6875 
L 18.109375 54.6875 
L 18.109375 46.1875 
Q 20.953125 51.171875 25.484375 53.578125 
Q 30.03125 56 36.53125 56 
Q 37.453125 56 38.578125 55.875 
Q 39.703125 55.765625 41.0625 55.515625 
z
" id="DejaVuSans-114"/>
      <path d="M 56.203125 29.59375 
L 56.203125 25.203125 
L 14.890625 25.203125 
Q 15.484375 15.921875 20.484375 11.0625 
Q 25.484375 6.203125 34.421875 6.203125 
Q 39.59375 6.203125 44.453125 7.46875 
Q 49.3125 8.734375 54.109375 11.28125 
L 54.109375 2.78125 
Q 49.265625 0.734375 44.1875 -0.34375 
Q 39.109375 -1.421875 33.890625 -1.421875 
Q 20.796875 -1.421875 13.15625 6.1875 
Q 5.515625 13.8125 5.515625 26.8125 
Q 5.515625 40.234375 12.765625 48.109375 
Q 20.015625 56 32.328125 56 
Q 43.359375 56 49.78125 48.890625 
Q 56.203125 41.796875 56.203125 29.59375 
z
M 47.21875 32.234375 
Q 47.125 39.59375 43.09375 43.984375 
Q 39.0625 48.390625 32.421875 48.390625 
Q 24.90625 48.390625 20.390625 44.140625 
Q 15.875 39.890625 15.1875 32.171875 
z
" id="DejaVuSans-101"/>
      <path d="M 37.109375 75.984375 
L 37.109375 68.5 
L 28.515625 68.5 
Q 23.6875 68.5 21.796875 66.546875 
Q 19.921875 64.59375 19.921875 59.515625 
L 19.921875 54.6875 
L 34.71875 54.6875 
L 34.71875 47.703125 
L 19.921875 47.703125 
L 19.921875 0 
L 10.890625 0 
L 10.890625 47.703125 
L 2.296875 47.703125 
L 2.296875 54.6875 
L 10.890625 54.6875 
L 10.890625 58.5 
Q 10.890625 67.625 15.140625 71.796875 
Q 19.390625 75.984375 28.609375 75.984375 
z
" id="DejaVuSans-102"/>
      <path d="M 54.890625 33.015625 
L 54.890625 0 
L 45.90625 0 
L 45.90625 32.71875 
Q 45.90625 40.484375 42.875 44.328125 
Q 39.84375 48.1875 33.796875 48.1875 
Q 26.515625 48.1875 22.3125 43.546875 
Q 18.109375 38.921875 18.109375 30.90625 
L 18.109375 0 
L 9.078125 0 
L 9.078125 54.6875 
L 18.109375 54.6875 
L 18.109375 46.1875 
Q 21.34375 51.125 25.703125 53.5625 
Q 30.078125 56 35.796875 56 
Q 45.21875 56 50.046875 50.171875 
Q 54.890625 44.34375 54.890625 33.015625 
z
" id="DejaVuSans-110"/>
      <path d="M 48.78125 52.59375 
L 48.78125 44.1875 
Q 44.96875 46.296875 41.140625 47.34375 
Q 37.3125 48.390625 33.40625 48.390625 
Q 24.65625 48.390625 19.8125 42.84375 
Q 14.984375 37.3125 14.984375 27.296875 
Q 14.984375 17.28125 19.8125 11.734375 
Q 24.65625 6.203125 33.40625 6.203125 
Q 37.3125 6.203125 41.140625 7.25 
Q 44.96875 8.296875 48.78125 10.40625 
L 48.78125 2.09375 
Q 45.015625 0.34375 40.984375 -0.53125 
Q 36.96875 -1.421875 32.421875 -1.421875 
Q 20.0625 -1.421875 12.78125 6.34375 
Q 5.515625 14.109375 5.515625 27.296875 
Q 5.515625 40.671875 12.859375 48.328125 
Q 20.21875 56 33.015625 56 
Q 37.15625 56 41.109375 55.140625 
Q 45.0625 54.296875 48.78125 52.59375 
z
" id="DejaVuSans-99"/>
     </defs>
     <g transform="translate(174.52 85.891237)scale(0.1 -0.1)">
      <use xlink:href="#DejaVuSans-114"/>
      <use x="41.082031" xlink:href="#DejaVuSans-101"/>
      <use x="102.605469" xlink:href="#DejaVuSans-102"/>
      <use x="137.810547" xlink:href="#DejaVuSans-101"/>
      <use x="199.333984" xlink:href="#DejaVuSans-114"/>
      <use x="240.416016" xlink:href="#DejaVuSans-101"/>
      <use x="301.939453" xlink:href="#DejaVuSans-110"/>
      <use x="365.318359" xlink:href="#DejaVuSans-99"/>
      <use x="420.298828" xlink:href="#DejaVuSans-101"/>
     </g>
    </g>
    <g id="line2d_18">
     <path d="M 146.52 97.069363 
L 166.52 97.069363 
" style="fill:none;stroke:#ff7f0e;stroke-linecap:square;stroke-opacity:0.5;stroke-width:1.5;"/>
    </g>
    <g id="line2d_19"/>
    <g id="text_15">
     <!-- correct-guess -->
     <defs>
      <path d="M 30.609375 48.390625 
Q 23.390625 48.390625 19.1875 42.75 
Q 14.984375 37.109375 14.984375 27.296875 
Q 14.984375 17.484375 19.15625 11.84375 
Q 23.34375 6.203125 30.609375 6.203125 
Q 37.796875 6.203125 41.984375 11.859375 
Q 46.1875 17.53125 46.1875 27.296875 
Q 46.1875 37.015625 41.984375 42.703125 
Q 37.796875 48.390625 30.609375 48.390625 
z
M 30.609375 56 
Q 42.328125 56 49.015625 48.375 
Q 55.71875 40.765625 55.71875 27.296875 
Q 55.71875 13.875 49.015625 6.21875 
Q 42.328125 -1.421875 30.609375 -1.421875 
Q 18.84375 -1.421875 12.171875 6.21875 
Q 5.515625 13.875 5.515625 27.296875 
Q 5.515625 40.765625 12.171875 48.375 
Q 18.84375 56 30.609375 56 
z
" id="DejaVuSans-111"/>
      <path d="M 18.3125 70.21875 
L 18.3125 54.6875 
L 36.8125 54.6875 
L 36.8125 47.703125 
L 18.3125 47.703125 
L 18.3125 18.015625 
Q 18.3125 11.328125 20.140625 9.421875 
Q 21.96875 7.515625 27.59375 7.515625 
L 36.8125 7.515625 
L 36.8125 0 
L 27.59375 0 
Q 17.1875 0 13.234375 3.875 
Q 9.28125 7.765625 9.28125 18.015625 
L 9.28125 47.703125 
L 2.6875 47.703125 
L 2.6875 54.6875 
L 9.28125 54.6875 
L 9.28125 70.21875 
z
" id="DejaVuSans-116"/>
      <path d="M 4.890625 31.390625 
L 31.203125 31.390625 
L 31.203125 23.390625 
L 4.890625 23.390625 
z
" id="DejaVuSans-45"/>
      <path d="M 45.40625 27.984375 
Q 45.40625 37.75 41.375 43.109375 
Q 37.359375 48.484375 30.078125 48.484375 
Q 22.859375 48.484375 18.828125 43.109375 
Q 14.796875 37.75 14.796875 27.984375 
Q 14.796875 18.265625 18.828125 12.890625 
Q 22.859375 7.515625 30.078125 7.515625 
Q 37.359375 7.515625 41.375 12.890625 
Q 45.40625 18.265625 45.40625 27.984375 
z
M 54.390625 6.78125 
Q 54.390625 -7.171875 48.1875 -13.984375 
Q 42 -20.796875 29.203125 -20.796875 
Q 24.46875 -20.796875 20.265625 -20.09375 
Q 16.0625 -19.390625 12.109375 -17.921875 
L 12.109375 -9.1875 
Q 16.0625 -11.328125 19.921875 -12.34375 
Q 23.78125 -13.375 27.78125 -13.375 
Q 36.625 -13.375 41.015625 -8.765625 
Q 45.40625 -4.15625 45.40625 5.171875 
L 45.40625 9.625 
Q 42.625 4.78125 38.28125 2.390625 
Q 33.9375 0 27.875 0 
Q 17.828125 0 11.671875 7.65625 
Q 5.515625 15.328125 5.515625 27.984375 
Q 5.515625 40.671875 11.671875 48.328125 
Q 17.828125 56 27.875 56 
Q 33.9375 56 38.28125 53.609375 
Q 42.625 51.21875 45.40625 46.390625 
L 45.40625 54.6875 
L 54.390625 54.6875 
z
" id="DejaVuSans-103"/>
      <path d="M 8.5 21.578125 
L 8.5 54.6875 
L 17.484375 54.6875 
L 17.484375 21.921875 
Q 17.484375 14.15625 20.5 10.265625 
Q 23.53125 6.390625 29.59375 6.390625 
Q 36.859375 6.390625 41.078125 11.03125 
Q 45.3125 15.671875 45.3125 23.6875 
L 45.3125 54.6875 
L 54.296875 54.6875 
L 54.296875 0 
L 45.3125 0 
L 45.3125 8.40625 
Q 42.046875 3.421875 37.71875 1 
Q 33.40625 -1.421875 27.6875 -1.421875 
Q 18.265625 -1.421875 13.375 4.4375 
Q 8.5 10.296875 8.5 21.578125 
z
M 31.109375 56 
z
" id="DejaVuSans-117"/>
      <path d="M 44.28125 53.078125 
L 44.28125 44.578125 
Q 40.484375 46.53125 36.375 47.5 
Q 32.28125 48.484375 27.875 48.484375 
Q 21.1875 48.484375 17.84375 46.4375 
Q 14.5 44.390625 14.5 40.28125 
Q 14.5 37.15625 16.890625 35.375 
Q 19.28125 33.59375 26.515625 31.984375 
L 29.59375 31.296875 
Q 39.15625 29.25 43.1875 25.515625 
Q 47.21875 21.78125 47.21875 15.09375 
Q 47.21875 7.46875 41.1875 3.015625 
Q 35.15625 -1.421875 24.609375 -1.421875 
Q 20.21875 -1.421875 15.453125 -0.5625 
Q 10.6875 0.296875 5.421875 2 
L 5.421875 11.28125 
Q 10.40625 8.6875 15.234375 7.390625 
Q 20.0625 6.109375 24.8125 6.109375 
Q 31.15625 6.109375 34.5625 8.28125 
Q 37.984375 10.453125 37.984375 14.40625 
Q 37.984375 18.0625 35.515625 20.015625 
Q 33.0625 21.96875 24.703125 23.78125 
L 21.578125 24.515625 
Q 13.234375 26.265625 9.515625 29.90625 
Q 5.8125 33.546875 5.8125 39.890625 
Q 5.8125 47.609375 11.28125 51.796875 
Q 16.75 56 26.8125 56 
Q 31.78125 56 36.171875 55.265625 
Q 40.578125 54.546875 44.28125 53.078125 
z
" id="DejaVuSans-115"/>
     </defs>
     <g transform="translate(174.52 100.569363)scale(0.1 -0.1)">
      <use xlink:href="#DejaVuSans-99"/>
      <use x="54.980469" xlink:href="#DejaVuSans-111"/>
      <use x="116.162109" xlink:href="#DejaVuSans-114"/>
      <use x="157.259766" xlink:href="#DejaVuSans-114"/>
      <use x="198.341797" xlink:href="#DejaVuSans-101"/>
      <use x="259.865234" xlink:href="#DejaVuSans-99"/>
      <use x="314.845703" xlink:href="#DejaVuSans-116"/>
      <use x="354.054688" xlink:href="#DejaVuSans-45"/>
      <use x="390.138672" xlink:href="#DejaVuSans-103"/>
      <use x="453.615234" xlink:href="#DejaVuSans-117"/>
      <use x="516.994141" xlink:href="#DejaVuSans-101"/>
      <use x="578.517578" xlink:href="#DejaVuSans-115"/>
      <use x="630.617188" xlink:href="#DejaVuSans-115"/>
     </g>
    </g>
   </g>
  </g>
 </g>
 <defs>
  <clipPath id="p8443fd5088">
   <rect height="444.6288" width="852.624" x="137.52" y="69.2928"/>
  </clipPath>
 </defs>
</svg>
