<?xml version="1.0" encoding="utf-8" standalone="no"?>
<!DOCTYPE svg PUBLIC "-//W3C//DTD SVG 1.1//EN"
  "http://www.w3.org/Graphics/SVG/1.1/DTD/svg11.dtd">
<!-- Created with matplotlib (https://matplotlib.org/) -->
<svg height="360pt" version="1.1" viewBox="0 0 1440 360" width="1440pt" xmlns="http://www.w3.org/2000/svg" xmlns:xlink="http://www.w3.org/1999/xlink">
 <defs>
  <style type="text/css">
*{stroke-linecap:butt;stroke-linejoin:round;}
  </style>
 </defs>
 <g id="figure_1">
  <g id="patch_1">
   <path d="M 0 360 
L 1440 360 
L 1440 0 
L 0 0 
z
" style="fill:#ffffff;"/>
  </g>
  <g id="axes_1">
   <g id="patch_2">
    <path d="M 180 315 
L 1296 315 
L 1296 43.2 
L 180 43.2 
z
" style="fill:#ffffff;"/>
   </g>
   <g id="matplotlib.axis_1">
    <g id="xtick_1">
     <g id="line2d_1">
      <defs>
       <path d="M 0 0 
L 0 3.5 
" id="m3bcb1a503a" style="stroke:#000000;stroke-width:0.8;"/>
      </defs>
      <g>
       <use style="stroke:#000000;stroke-width:0.8;" x="230.727273" xlink:href="#m3bcb1a503a" y="315"/>
      </g>
     </g>
     <g id="text_1">
      <!-- 0 -->
      <defs>
       <path d="M 31.78125 66.40625 
Q 24.171875 66.40625 20.328125 58.90625 
Q 16.5 51.421875 16.5 36.375 
Q 16.5 21.390625 20.328125 13.890625 
Q 24.171875 6.390625 31.78125 6.390625 
Q 39.453125 6.390625 43.28125 13.890625 
Q 47.125 21.390625 47.125 36.375 
Q 47.125 51.421875 43.28125 58.90625 
Q 39.453125 66.40625 31.78125 66.40625 
z
M 31.78125 74.21875 
Q 44.046875 74.21875 50.515625 64.515625 
Q 56.984375 54.828125 56.984375 36.375 
Q 56.984375 17.96875 50.515625 8.265625 
Q 44.046875 -1.421875 31.78125 -1.421875 
Q 19.53125 -1.421875 13.0625 8.265625 
Q 6.59375 17.96875 6.59375 36.375 
Q 6.59375 54.828125 13.0625 64.515625 
Q 19.53125 74.21875 31.78125 74.21875 
z
" id="DejaVuSans-48"/>
      </defs>
      <g transform="translate(227.546023 329.598437)scale(0.1 -0.1)">
       <use xlink:href="#DejaVuSans-48"/>
      </g>
     </g>
    </g>
    <g id="xtick_2">
     <g id="line2d_2">
      <g>
       <use style="stroke:#000000;stroke-width:0.8;" x="433.839476" xlink:href="#m3bcb1a503a" y="315"/>
      </g>
     </g>
     <g id="text_2">
      <!-- 200 -->
      <defs>
       <path d="M 19.1875 8.296875 
L 53.609375 8.296875 
L 53.609375 0 
L 7.328125 0 
L 7.328125 8.296875 
Q 12.9375 14.109375 22.625 23.890625 
Q 32.328125 33.6875 34.8125 36.53125 
Q 39.546875 41.84375 41.421875 45.53125 
Q 43.3125 49.21875 43.3125 52.78125 
Q 43.3125 58.59375 39.234375 62.25 
Q 35.15625 65.921875 28.609375 65.921875 
Q 23.96875 65.921875 18.8125 64.3125 
Q 13.671875 62.703125 7.8125 59.421875 
L 7.8125 69.390625 
Q 13.765625 71.78125 18.9375 73 
Q 24.125 74.21875 28.421875 74.21875 
Q 39.75 74.21875 46.484375 68.546875 
Q 53.21875 62.890625 53.21875 53.421875 
Q 53.21875 48.921875 51.53125 44.890625 
Q 49.859375 40.875 45.40625 35.40625 
Q 44.1875 33.984375 37.640625 27.21875 
Q 31.109375 20.453125 19.1875 8.296875 
z
" id="DejaVuSans-50"/>
      </defs>
      <g transform="translate(424.295726 329.598437)scale(0.1 -0.1)">
       <use xlink:href="#DejaVuSans-50"/>
       <use x="63.623047" xlink:href="#DejaVuSans-48"/>
       <use x="127.246094" xlink:href="#DejaVuSans-48"/>
      </g>
     </g>
    </g>
    <g id="xtick_3">
     <g id="line2d_3">
      <g>
       <use style="stroke:#000000;stroke-width:0.8;" x="636.951679" xlink:href="#m3bcb1a503a" y="315"/>
      </g>
     </g>
     <g id="text_3">
      <!-- 400 -->
      <defs>
       <path d="M 37.796875 64.3125 
L 12.890625 25.390625 
L 37.796875 25.390625 
z
M 35.203125 72.90625 
L 47.609375 72.90625 
L 47.609375 25.390625 
L 58.015625 25.390625 
L 58.015625 17.1875 
L 47.609375 17.1875 
L 47.609375 0 
L 37.796875 0 
L 37.796875 17.1875 
L 4.890625 17.1875 
L 4.890625 26.703125 
z
" id="DejaVuSans-52"/>
      </defs>
      <g transform="translate(627.407929 329.598437)scale(0.1 -0.1)">
       <use xlink:href="#DejaVuSans-52"/>
       <use x="63.623047" xlink:href="#DejaVuSans-48"/>
       <use x="127.246094" xlink:href="#DejaVuSans-48"/>
      </g>
     </g>
    </g>
    <g id="xtick_4">
     <g id="line2d_4">
      <g>
       <use style="stroke:#000000;stroke-width:0.8;" x="840.063882" xlink:href="#m3bcb1a503a" y="315"/>
      </g>
     </g>
     <g id="text_4">
      <!-- 600 -->
      <defs>
       <path d="M 33.015625 40.375 
Q 26.375 40.375 22.484375 35.828125 
Q 18.609375 31.296875 18.609375 23.390625 
Q 18.609375 15.53125 22.484375 10.953125 
Q 26.375 6.390625 33.015625 6.390625 
Q 39.65625 6.390625 43.53125 10.953125 
Q 47.40625 15.53125 47.40625 23.390625 
Q 47.40625 31.296875 43.53125 35.828125 
Q 39.65625 40.375 33.015625 40.375 
z
M 52.59375 71.296875 
L 52.59375 62.3125 
Q 48.875 64.0625 45.09375 64.984375 
Q 41.3125 65.921875 37.59375 65.921875 
Q 27.828125 65.921875 22.671875 59.328125 
Q 17.53125 52.734375 16.796875 39.40625 
Q 19.671875 43.65625 24.015625 45.921875 
Q 28.375 48.1875 33.59375 48.1875 
Q 44.578125 48.1875 50.953125 41.515625 
Q 57.328125 34.859375 57.328125 23.390625 
Q 57.328125 12.15625 50.6875 5.359375 
Q 44.046875 -1.421875 33.015625 -1.421875 
Q 20.359375 -1.421875 13.671875 8.265625 
Q 6.984375 17.96875 6.984375 36.375 
Q 6.984375 53.65625 15.1875 63.9375 
Q 23.390625 74.21875 37.203125 74.21875 
Q 40.921875 74.21875 44.703125 73.484375 
Q 48.484375 72.75 52.59375 71.296875 
z
" id="DejaVuSans-54"/>
      </defs>
      <g transform="translate(830.520132 329.598437)scale(0.1 -0.1)">
       <use xlink:href="#DejaVuSans-54"/>
       <use x="63.623047" xlink:href="#DejaVuSans-48"/>
       <use x="127.246094" xlink:href="#DejaVuSans-48"/>
      </g>
     </g>
    </g>
    <g id="xtick_5">
     <g id="line2d_5">
      <g>
       <use style="stroke:#000000;stroke-width:0.8;" x="1043.176085" xlink:href="#m3bcb1a503a" y="315"/>
      </g>
     </g>
     <g id="text_5">
      <!-- 800 -->
      <defs>
       <path d="M 31.78125 34.625 
Q 24.75 34.625 20.71875 30.859375 
Q 16.703125 27.09375 16.703125 20.515625 
Q 16.703125 13.921875 20.71875 10.15625 
Q 24.75 6.390625 31.78125 6.390625 
Q 38.8125 6.390625 42.859375 10.171875 
Q 46.921875 13.96875 46.921875 20.515625 
Q 46.921875 27.09375 42.890625 30.859375 
Q 38.875 34.625 31.78125 34.625 
z
M 21.921875 38.8125 
Q 15.578125 40.375 12.03125 44.71875 
Q 8.5 49.078125 8.5 55.328125 
Q 8.5 64.0625 14.71875 69.140625 
Q 20.953125 74.21875 31.78125 74.21875 
Q 42.671875 74.21875 48.875 69.140625 
Q 55.078125 64.0625 55.078125 55.328125 
Q 55.078125 49.078125 51.53125 44.71875 
Q 48 40.375 41.703125 38.8125 
Q 48.828125 37.15625 52.796875 32.3125 
Q 56.78125 27.484375 56.78125 20.515625 
Q 56.78125 9.90625 50.3125 4.234375 
Q 43.84375 -1.421875 31.78125 -1.421875 
Q 19.734375 -1.421875 13.25 4.234375 
Q 6.78125 9.90625 6.78125 20.515625 
Q 6.78125 27.484375 10.78125 32.3125 
Q 14.796875 37.15625 21.921875 38.8125 
z
M 18.3125 54.390625 
Q 18.3125 48.734375 21.84375 45.5625 
Q 25.390625 42.390625 31.78125 42.390625 
Q 38.140625 42.390625 41.71875 45.5625 
Q 45.3125 48.734375 45.3125 54.390625 
Q 45.3125 60.0625 41.71875 63.234375 
Q 38.140625 66.40625 31.78125 66.40625 
Q 25.390625 66.40625 21.84375 63.234375 
Q 18.3125 60.0625 18.3125 54.390625 
z
" id="DejaVuSans-56"/>
      </defs>
      <g transform="translate(1033.632335 329.598437)scale(0.1 -0.1)">
       <use xlink:href="#DejaVuSans-56"/>
       <use x="63.623047" xlink:href="#DejaVuSans-48"/>
       <use x="127.246094" xlink:href="#DejaVuSans-48"/>
      </g>
     </g>
    </g>
    <g id="xtick_6">
     <g id="line2d_6">
      <g>
       <use style="stroke:#000000;stroke-width:0.8;" x="1246.288288" xlink:href="#m3bcb1a503a" y="315"/>
      </g>
     </g>
     <g id="text_6">
      <!-- 1000 -->
      <defs>
       <path d="M 12.40625 8.296875 
L 28.515625 8.296875 
L 28.515625 63.921875 
L 10.984375 60.40625 
L 10.984375 69.390625 
L 28.421875 72.90625 
L 38.28125 72.90625 
L 38.28125 8.296875 
L 54.390625 8.296875 
L 54.390625 0 
L 12.40625 0 
z
" id="DejaVuSans-49"/>
      </defs>
      <g transform="translate(1233.563288 329.598437)scale(0.1 -0.1)">
       <use xlink:href="#DejaVuSans-49"/>
       <use x="63.623047" xlink:href="#DejaVuSans-48"/>
       <use x="127.246094" xlink:href="#DejaVuSans-48"/>
       <use x="190.869141" xlink:href="#DejaVuSans-48"/>
      </g>
     </g>
    </g>
   </g>
   <g id="matplotlib.axis_2">
    <g id="ytick_1">
     <g id="line2d_7">
      <defs>
       <path d="M 0 0 
L -3.5 0 
" id="m93126a12d6" style="stroke:#000000;stroke-width:0.8;"/>
      </defs>
      <g>
       <use style="stroke:#000000;stroke-width:0.8;" x="180" xlink:href="#m93126a12d6" y="277.719617"/>
      </g>
     </g>
     <g id="text_7">
      <!-- 50 -->
      <defs>
       <path d="M 10.796875 72.90625 
L 49.515625 72.90625 
L 49.515625 64.59375 
L 19.828125 64.59375 
L 19.828125 46.734375 
Q 21.96875 47.46875 24.109375 47.828125 
Q 26.265625 48.1875 28.421875 48.1875 
Q 40.625 48.1875 47.75 41.5 
Q 54.890625 34.8125 54.890625 23.390625 
Q 54.890625 11.625 47.5625 5.09375 
Q 40.234375 -1.421875 26.90625 -1.421875 
Q 22.3125 -1.421875 17.546875 -0.640625 
Q 12.796875 0.140625 7.71875 1.703125 
L 7.71875 11.625 
Q 12.109375 9.234375 16.796875 8.0625 
Q 21.484375 6.890625 26.703125 6.890625 
Q 35.15625 6.890625 40.078125 11.328125 
Q 45.015625 15.765625 45.015625 23.390625 
Q 45.015625 31 40.078125 35.4375 
Q 35.15625 39.890625 26.703125 39.890625 
Q 22.75 39.890625 18.8125 39.015625 
Q 14.890625 38.140625 10.796875 36.28125 
z
" id="DejaVuSans-53"/>
      </defs>
      <g transform="translate(160.275 281.518836)scale(0.1 -0.1)">
       <use xlink:href="#DejaVuSans-53"/>
       <use x="63.623047" xlink:href="#DejaVuSans-48"/>
      </g>
     </g>
    </g>
    <g id="ytick_2">
     <g id="line2d_8">
      <g>
       <use style="stroke:#000000;stroke-width:0.8;" x="180" xlink:href="#m93126a12d6" y="223.533014"/>
      </g>
     </g>
     <g id="text_8">
      <!-- 100 -->
      <g transform="translate(153.9125 227.332233)scale(0.1 -0.1)">
       <use xlink:href="#DejaVuSans-49"/>
       <use x="63.623047" xlink:href="#DejaVuSans-48"/>
       <use x="127.246094" xlink:href="#DejaVuSans-48"/>
      </g>
     </g>
    </g>
    <g id="ytick_3">
     <g id="line2d_9">
      <g>
       <use style="stroke:#000000;stroke-width:0.8;" x="180" xlink:href="#m93126a12d6" y="169.346411"/>
      </g>
     </g>
     <g id="text_9">
      <!-- 150 -->
      <g transform="translate(153.9125 173.14563)scale(0.1 -0.1)">
       <use xlink:href="#DejaVuSans-49"/>
       <use x="63.623047" xlink:href="#DejaVuSans-53"/>
       <use x="127.246094" xlink:href="#DejaVuSans-48"/>
      </g>
     </g>
    </g>
    <g id="ytick_4">
     <g id="line2d_10">
      <g>
       <use style="stroke:#000000;stroke-width:0.8;" x="180" xlink:href="#m93126a12d6" y="115.159809"/>
      </g>
     </g>
     <g id="text_10">
      <!-- 200 -->
      <g transform="translate(153.9125 118.959027)scale(0.1 -0.1)">
       <use xlink:href="#DejaVuSans-50"/>
       <use x="63.623047" xlink:href="#DejaVuSans-48"/>
       <use x="127.246094" xlink:href="#DejaVuSans-48"/>
      </g>
     </g>
    </g>
    <g id="ytick_5">
     <g id="line2d_11">
      <g>
       <use style="stroke:#000000;stroke-width:0.8;" x="180" xlink:href="#m93126a12d6" y="60.973206"/>
      </g>
     </g>
     <g id="text_11">
      <!-- 250 -->
      <g transform="translate(153.9125 64.772424)scale(0.1 -0.1)">
       <use xlink:href="#DejaVuSans-50"/>
       <use x="63.623047" xlink:href="#DejaVuSans-53"/>
       <use x="127.246094" xlink:href="#DejaVuSans-48"/>
      </g>
     </g>
    </g>
   </g>
   <g id="line2d_12">
    <path clip-path="url(#pe29c6bbf87)" d="M 230.727273 176.932536 
L 231.742834 170.430144 
L 232.758395 105.40622 
L 233.773956 219.198086 
L 234.789517 183.434928 
L 235.805078 134.666986 
L 236.820639 144.420574 
L 237.8362 223.533014 
L 238.851761 210.52823 
L 239.867322 218.114354 
L 240.882883 212.695694 
L 241.898444 143.336842 
L 242.914005 132.499522 
L 243.929566 176.932536 
L 244.945127 122.745933 
L 245.960688 107.573684 
L 246.976249 178.016268 
L 247.99181 220.281818 
L 249.007371 146.588038 
L 250.022932 90.233971 
L 251.038493 160.676555 
L 252.054054 145.504306 
L 253.069615 146.588038 
L 254.085176 189.937321 
L 255.100737 93.485167 
L 256.116298 131.415789 
L 257.131859 198.607177 
L 258.14742 144.420574 
L 259.162981 189.937321 
L 260.178542 148.755502 
L 261.194103 197.523445 
L 262.209664 141.169378 
L 263.225225 205.109569 
L 264.240786 224.616746 
L 265.256347 135.750718 
L 266.271908 72.894258 
L 267.287469 188.853589 
L 268.30303 125.997129 
L 269.318591 230.035407 
L 270.334152 223.533014 
L 271.349713 147.67177 
L 272.365274 200.774641 
L 273.380835 116.243541 
L 274.396396 166.095215 
L 275.411957 142.25311 
L 276.427518 200.774641 
L 277.443079 119.494737 
L 278.45864 224.616746 
L 279.474201 180.183732 
L 280.489762 141.169378 
L 281.505324 146.588038 
L 282.520885 178.016268 
L 283.536446 142.25311 
L 284.552007 147.67177 
L 285.567568 228.951675 
L 286.583129 220.281818 
L 287.59869 223.533014 
L 288.614251 218.114354 
L 289.629812 154.174163 
L 290.645373 197.523445 
L 291.660934 147.67177 
L 292.676495 170.430144 
L 293.692056 162.844019 
L 294.707617 175.848804 
L 295.723178 199.690909 
L 296.738739 141.169378 
L 297.7543 186.686124 
L 298.769861 123.829665 
L 299.785422 186.686124 
L 300.800983 146.588038 
L 301.816544 198.607177 
L 302.832105 105.40622 
L 303.847666 214.863158 
L 304.863227 220.281818 
L 305.878788 211.611962 
L 306.894349 212.695694 
L 307.90991 204.025837 
L 308.925471 184.51866 
L 309.941032 142.25311 
L 310.956593 123.829665 
L 311.972154 174.765072 
L 312.987715 125.997129 
L 314.003276 180.183732 
L 315.018837 131.415789 
L 316.034398 187.769856 
L 317.049959 91.317703 
L 318.06552 210.52823 
L 319.081081 213.779426 
L 320.096642 200.774641 
L 321.112203 183.434928 
L 322.127764 125.997129 
L 323.143325 114.076077 
L 324.158886 179.1 
L 325.174447 118.411005 
L 326.190008 212.695694 
L 327.205569 153.090431 
L 329.236691 108.657416 
L 330.252252 107.573684 
L 331.267813 228.951675 
L 332.283374 218.114354 
L 333.298935 144.420574 
L 334.314496 195.355981 
L 335.330057 94.5689 
L 336.345618 200.774641 
L 337.361179 198.607177 
L 338.37674 198.607177 
L 339.392301 195.355981 
L 340.407862 179.1 
L 341.423423 124.913397 
L 342.438984 102.155024 
L 343.454545 206.193301 
L 344.470106 142.25311 
L 345.485667 118.411005 
L 346.501229 212.695694 
L 347.51679 189.937321 
L 348.532351 64.224402 
L 349.547912 185.602392 
L 350.563473 194.272249 
L 351.579034 141.169378 
L 352.594595 185.602392 
L 353.610156 130.332057 
L 354.625717 152.006699 
L 355.641278 116.243541 
L 356.656839 161.760287 
L 357.6724 129.248325 
L 358.687961 167.178947 
L 359.703522 106.489952 
L 360.719083 171.513876 
L 361.734644 109.741148 
L 362.750205 211.611962 
L 364.781327 124.913397 
L 365.796888 162.844019 
L 366.812449 118.411005 
L 367.82801 144.420574 
L 368.843571 195.355981 
L 369.859132 142.25311 
L 370.874693 187.769856 
L 371.890254 122.745933 
L 372.905815 195.355981 
L 373.921376 206.193301 
L 374.936937 122.745933 
L 375.952498 170.430144 
L 376.968059 114.076077 
L 377.98362 227.867943 
L 378.999181 192.104785 
L 380.014742 91.317703 
L 381.030303 213.779426 
L 382.045864 168.262679 
L 383.061425 110.82488 
L 384.076986 219.198086 
L 385.092547 147.67177 
L 386.108108 114.076077 
L 387.123669 231.119139 
L 388.13923 226.784211 
L 389.154791 206.193301 
L 390.170352 145.504306 
L 391.185913 198.607177 
L 392.201474 140.085646 
L 393.217035 142.25311 
L 394.232596 220.281818 
L 395.248157 162.844019 
L 396.263718 124.913397 
L 397.279279 221.36555 
L 398.29484 184.51866 
L 399.310401 55.554545 
L 400.325962 127.080861 
L 401.341523 146.588038 
L 402.357084 198.607177 
L 403.372645 140.085646 
L 404.388206 231.119139 
L 405.403767 187.769856 
L 406.419328 67.475598 
L 407.434889 226.784211 
L 408.45045 172.597608 
L 409.466011 135.750718 
L 410.481572 196.439713 
L 411.497133 143.336842 
L 412.512695 189.937321 
L 413.528256 130.332057 
L 414.543817 202.942105 
L 415.559378 217.030622 
L 416.574939 127.080861 
L 417.5905 175.848804 
L 418.606061 148.755502 
L 419.621622 157.425359 
L 420.637183 235.454067 
L 421.652744 171.513876 
L 422.668305 132.499522 
L 423.683866 170.430144 
L 424.699427 131.415789 
L 425.714988 223.533014 
L 426.730549 206.193301 
L 427.74611 80.480383 
L 428.761671 189.937321 
L 429.777232 198.607177 
L 430.792793 119.494737 
L 431.808354 220.281818 
L 432.823915 157.425359 
L 433.839476 118.411005 
L 434.855037 221.36555 
L 435.870598 206.193301 
L 436.886159 131.415789 
L 437.90172 195.355981 
L 438.917281 103.238756 
L 439.932842 215.94689 
L 440.948403 210.52823 
L 441.963964 213.779426 
L 442.979525 213.779426 
L 443.995086 195.355981 
L 445.010647 179.1 
L 446.026208 137.918182 
L 447.041769 143.336842 
L 448.05733 195.355981 
L 449.072891 127.080861 
L 450.088452 208.360766 
L 451.104013 157.425359 
L 452.119574 98.903828 
L 453.135135 213.779426 
L 454.150696 282.054545 
L 455.166257 282.054545 
L 456.181818 204.025837 
L 457.197379 110.82488 
L 458.21294 188.853589 
L 459.228501 123.829665 
L 460.244062 163.927751 
L 461.259623 118.411005 
L 462.275184 157.425359 
L 463.290745 77.229187 
L 464.306306 121.662201 
L 465.321867 187.769856 
L 466.337428 112.992344 
L 467.352989 184.51866 
L 468.36855 219.198086 
L 469.384111 228.951675 
L 470.399672 217.030622 
L 471.415233 213.779426 
L 472.430794 211.611962 
L 473.446355 210.52823 
L 474.461916 147.67177 
L 475.477477 141.169378 
L 476.493038 163.927751 
L 477.5086 101.071292 
L 478.524161 136.83445 
L 479.539722 189.937321 
L 480.555283 119.494737 
L 481.570844 187.769856 
L 482.586405 226.784211 
L 483.601966 154.174163 
L 484.617527 101.071292 
L 485.633088 166.095215 
L 486.648649 146.588038 
L 487.66421 146.588038 
L 488.679771 222.449282 
L 489.695332 165.011483 
L 490.710893 124.913397 
L 491.726454 210.52823 
L 492.742015 183.434928 
L 493.757576 55.554545 
L 495.788698 198.607177 
L 496.804259 143.336842 
L 497.81982 188.853589 
L 498.835381 118.411005 
L 499.850942 188.853589 
L 500.866503 204.025837 
L 501.882064 124.913397 
L 502.897625 182.351196 
L 503.913186 118.411005 
L 504.928747 196.439713 
L 505.944308 200.774641 
L 506.959869 124.913397 
L 507.97543 223.533014 
L 508.990991 160.676555 
L 510.006552 121.662201 
L 511.022113 220.281818 
L 512.037674 207.277033 
L 513.053235 135.750718 
L 514.068796 196.439713 
L 515.084357 104.322488 
L 516.099918 217.030622 
L 517.115479 211.611962 
L 518.13104 218.114354 
L 519.146601 219.198086 
L 520.162162 200.774641 
L 521.177723 185.602392 
L 522.193284 142.25311 
L 523.208845 144.420574 
L 524.224406 195.355981 
L 525.239967 130.332057 
L 526.255528 211.611962 
L 528.28665 106.489952 
L 529.302211 218.114354 
L 530.317772 283.138278 
L 531.333333 287.473206 
L 532.348894 209.444498 
L 533.364455 118.411005 
L 534.380016 156.341627 
L 535.395577 101.071292 
L 536.411138 154.174163 
L 537.426699 157.425359 
L 538.44226 170.430144 
L 539.457821 134.666986 
L 540.473382 219.198086 
L 542.504505 114.076077 
L 543.520066 182.351196 
L 544.535627 107.573684 
L 545.551188 192.104785 
L 546.566749 186.686124 
L 547.58231 108.657416 
L 548.597871 144.420574 
L 549.613432 144.420574 
L 550.628993 246.291388 
L 551.644554 213.779426 
L 552.660115 146.588038 
L 553.675676 197.523445 
L 554.691237 141.169378 
L 555.706798 143.336842 
L 556.722359 224.616746 
L 557.73792 162.844019 
L 558.753481 131.415789 
L 559.769042 226.784211 
L 560.784603 187.769856 
L 561.800164 55.554545 
L 562.815725 127.080861 
L 563.831286 144.420574 
L 564.846847 230.035407 
L 566.877969 96.736364 
L 567.89353 167.178947 
L 568.909091 67.475598 
L 569.924652 137.918182 
L 570.940213 155.257895 
L 571.955774 235.454067 
L 573.986896 118.411005 
L 575.002457 236.537799 
L 576.018018 295.05933 
L 577.033579 298.310526 
L 578.04914 220.281818 
L 579.064701 124.913397 
L 580.080262 165.011483 
L 581.095823 109.741148 
L 582.111384 166.095215 
L 583.126945 168.262679 
L 584.142506 179.1 
L 585.158067 143.336842 
L 586.173628 224.616746 
L 588.20475 121.662201 
L 589.220311 189.937321 
L 590.235872 112.992344 
L 591.251433 199.690909 
L 592.266994 192.104785 
L 593.282555 116.243541 
L 594.298116 150.922967 
L 595.313677 152.006699 
L 596.329238 250.626316 
L 597.344799 218.114354 
L 598.36036 154.174163 
L 599.375921 204.025837 
L 600.391482 145.504306 
L 601.407043 149.839234 
L 602.422604 232.202871 
L 603.438165 166.095215 
L 604.453726 135.750718 
L 605.469287 231.119139 
L 606.484848 197.523445 
L 607.50041 55.554545 
L 608.515971 130.332057 
L 609.531532 144.420574 
L 610.547093 233.286603 
L 612.578215 99.98756 
L 613.593776 172.597608 
L 614.609337 73.97799 
L 615.624898 141.169378 
L 616.640459 157.425359 
L 617.65602 238.705263 
L 619.687142 120.578469 
L 620.702703 238.705263 
L 621.718264 299.394258 
L 622.733825 301.561722 
L 623.749386 223.533014 
L 624.764947 129.248325 
L 625.780508 167.178947 
L 626.796069 111.908612 
L 627.81163 166.095215 
L 628.827191 169.346411 
L 629.842752 183.434928 
L 630.858313 145.504306 
L 631.873874 227.867943 
L 633.904996 120.578469 
L 634.920557 191.021053 
L 635.936118 114.076077 
L 636.951679 201.858373 
L 637.96724 194.272249 
L 638.982801 118.411005 
L 639.998362 150.922967 
L 641.013923 150.922967 
L 642.029484 251.710048 
L 643.045045 218.114354 
L 644.060606 155.257895 
L 645.076167 208.360766 
L 646.091728 146.588038 
L 647.107289 148.755502 
L 648.12285 235.454067 
L 649.138411 166.095215 
L 650.153972 134.666986 
L 651.169533 232.202871 
L 652.185094 196.439713 
L 653.200655 55.554545 
L 654.216216 131.415789 
L 655.231777 146.588038 
L 656.247338 235.454067 
L 658.27846 101.071292 
L 659.294021 172.597608 
L 660.309582 75.061722 
L 661.325143 143.336842 
L 662.340704 159.592823 
L 663.356265 239.788995 
L 665.387387 120.578469 
L 666.402948 239.788995 
L 667.418509 300.47799 
L 668.43407 301.561722 
L 669.449631 223.533014 
L 670.465192 129.248325 
L 671.480753 167.178947 
L 672.496314 111.908612 
L 673.511876 166.095215 
L 674.527437 170.430144 
L 675.542998 182.351196 
L 676.558559 146.588038 
L 677.57412 230.035407 
L 678.589681 171.513876 
L 679.605242 122.745933 
L 680.620803 193.188517 
L 681.636364 112.992344 
L 682.651925 200.774641 
L 683.667486 196.439713 
L 684.683047 118.411005 
L 685.698608 153.090431 
L 686.714169 150.922967 
L 687.72973 250.626316 
L 688.745291 217.030622 
L 689.760852 155.257895 
L 690.776413 206.193301 
L 691.791974 152.006699 
L 692.807535 153.090431 
L 693.823096 233.286603 
L 694.838657 163.927751 
L 695.854218 131.415789 
L 696.869779 230.035407 
L 697.88534 199.690909 
L 698.900901 55.554545 
L 699.916462 133.583254 
L 700.932023 144.420574 
L 701.947584 234.370335 
L 703.978706 102.155024 
L 704.994267 170.430144 
L 706.009828 72.894258 
L 707.025389 144.420574 
L 708.04095 162.844019 
L 709.056511 240.872727 
L 711.087633 120.578469 
L 712.103194 239.788995 
L 713.118755 297.226794 
L 714.134316 301.561722 
L 715.149877 224.616746 
L 716.165438 130.332057 
L 717.180999 167.178947 
L 718.19656 109.741148 
L 719.212121 166.095215 
L 720.227682 169.346411 
L 721.243243 184.51866 
L 722.258804 147.67177 
L 723.274365 231.119139 
L 725.305487 120.578469 
L 726.321048 189.937321 
L 727.336609 111.908612 
L 728.35217 201.858373 
L 729.367731 195.355981 
L 730.383292 118.411005 
L 731.398853 154.174163 
L 732.414414 153.090431 
L 733.429975 250.626316 
L 734.445536 218.114354 
L 735.461097 154.174163 
L 736.476658 206.193301 
L 737.492219 148.755502 
L 738.507781 155.257895 
L 739.523342 235.454067 
L 740.538903 173.68134 
L 741.554464 135.750718 
L 742.570025 230.035407 
L 743.585586 200.774641 
L 744.601147 55.554545 
L 745.616708 133.583254 
L 746.632269 146.588038 
L 747.64783 234.370335 
L 749.678952 102.155024 
L 750.694513 171.513876 
L 751.710074 72.894258 
L 752.725635 142.25311 
L 753.741196 160.676555 
L 754.756757 240.872727 
L 756.787879 119.494737 
L 757.80344 237.621531 
L 758.819001 298.310526 
L 759.834562 300.47799 
L 760.850123 223.533014 
L 761.865684 131.415789 
L 762.881245 168.262679 
L 763.896806 109.741148 
L 764.912367 166.095215 
L 765.927928 167.178947 
L 766.943489 182.351196 
L 767.95905 146.588038 
L 768.974611 230.035407 
L 771.005733 124.913397 
L 772.021294 189.937321 
L 773.036855 111.908612 
L 774.052416 198.607177 
L 775.067977 194.272249 
L 776.083538 118.411005 
L 777.099099 155.257895 
L 778.11466 154.174163 
L 779.130221 250.626316 
L 780.145782 217.030622 
L 781.161343 153.090431 
L 782.176904 206.193301 
L 783.192465 149.839234 
L 784.208026 153.090431 
L 785.223587 235.454067 
L 786.239148 173.68134 
L 787.254709 135.750718 
L 788.27027 230.035407 
L 789.285831 199.690909 
L 790.301392 55.554545 
L 791.316953 131.415789 
L 792.332514 145.504306 
L 793.348075 235.454067 
L 795.379197 103.238756 
L 796.394758 170.430144 
L 797.410319 71.810526 
L 798.42588 141.169378 
L 799.441441 160.676555 
L 800.457002 241.956459 
L 802.488124 120.578469 
L 803.503686 235.454067 
L 804.519247 297.226794 
L 805.534808 301.561722 
L 806.550369 223.533014 
L 807.56593 131.415789 
L 808.581491 168.262679 
L 809.597052 110.82488 
L 810.612613 163.927751 
L 811.628174 168.262679 
L 812.643735 181.267464 
L 813.659296 146.588038 
L 814.674857 230.035407 
L 815.690418 173.68134 
L 816.705979 125.997129 
L 817.72154 189.937321 
L 818.737101 112.992344 
L 819.752662 199.690909 
L 820.768223 194.272249 
L 821.783784 116.243541 
L 822.799345 149.839234 
L 823.814906 152.006699 
L 824.830467 252.79378 
L 825.846028 218.114354 
L 826.861589 153.090431 
L 827.87715 205.109569 
L 828.892711 148.755502 
L 829.908272 153.090431 
L 830.923833 234.370335 
L 831.939394 175.848804 
L 832.954955 136.83445 
L 833.970516 231.119139 
L 834.986077 197.523445 
L 836.001638 55.554545 
L 837.017199 131.415789 
L 838.03276 146.588038 
L 839.048321 235.454067 
L 841.079443 101.071292 
L 842.095004 172.597608 
L 843.110565 71.810526 
L 844.126126 141.169378 
L 845.141687 158.509091 
L 846.157248 239.788995 
L 848.18837 122.745933 
L 849.203931 239.788995 
L 850.219492 299.394258 
L 851.235053 302.645455 
L 852.250614 222.449282 
L 853.266175 129.248325 
L 854.281736 168.262679 
L 855.297297 112.992344 
L 856.312858 166.095215 
L 857.328419 168.262679 
L 858.34398 181.267464 
L 859.359541 144.420574 
L 860.375102 228.951675 
L 862.406224 127.080861 
L 863.421785 194.272249 
L 864.437346 114.076077 
L 865.452907 200.774641 
L 866.468468 194.272249 
L 867.484029 118.411005 
L 868.49959 153.090431 
L 869.515152 153.090431 
L 870.530713 250.626316 
L 871.546274 218.114354 
L 872.561835 153.090431 
L 873.577396 205.109569 
L 874.592957 148.755502 
L 875.608518 153.090431 
L 876.624079 234.370335 
L 877.63964 172.597608 
L 878.655201 137.918182 
L 879.670762 231.119139 
L 880.686323 198.607177 
L 881.701884 55.554545 
L 882.717445 131.415789 
L 883.733006 144.420574 
L 884.748567 234.370335 
L 886.779689 105.40622 
L 887.79525 171.513876 
L 888.810811 70.726794 
L 889.826372 141.169378 
L 890.841933 154.174163 
L 891.857494 245.207656 
L 893.888616 125.997129 
L 894.904177 244.123923 
L 895.919738 299.394258 
L 896.935299 302.645455 
L 897.95086 227.867943 
L 898.966421 132.499522 
L 899.981982 170.430144 
L 900.997543 112.992344 
L 902.013104 169.346411 
L 903.028665 170.430144 
L 904.044226 183.434928 
L 905.059787 147.67177 
L 906.075348 230.035407 
L 907.090909 173.68134 
L 908.10647 123.829665 
L 909.122031 193.188517 
L 910.137592 116.243541 
L 911.153153 200.774641 
L 912.168714 194.272249 
L 913.184275 115.159809 
L 914.199836 149.839234 
L 915.215397 152.006699 
L 916.230958 250.626316 
L 917.246519 218.114354 
L 918.26208 153.090431 
L 919.277641 205.109569 
L 920.293202 145.504306 
L 921.308763 150.922967 
L 922.324324 233.286603 
L 923.339885 172.597608 
L 924.355446 137.918182 
L 925.371007 232.202871 
L 926.386568 200.774641 
L 927.402129 55.554545 
L 928.41769 131.415789 
L 929.433251 145.504306 
L 930.448812 233.286603 
L 932.479934 102.155024 
L 933.495495 174.765072 
L 934.511057 72.894258 
L 935.526618 143.336842 
L 936.542179 159.592823 
L 937.55774 239.788995 
L 939.588862 120.578469 
L 940.604423 239.788995 
L 941.619984 299.394258 
L 942.635545 300.47799 
L 943.651106 222.449282 
L 944.666667 128.164593 
L 945.682228 167.178947 
L 946.697789 110.82488 
L 947.71335 167.178947 
L 948.728911 170.430144 
L 949.744472 183.434928 
L 950.760033 146.588038 
L 951.775594 228.951675 
L 952.791155 172.597608 
L 953.806716 124.913397 
L 954.822277 192.104785 
L 955.837838 114.076077 
L 956.853399 200.774641 
L 957.86896 195.355981 
L 958.884521 116.243541 
L 959.900082 150.922967 
L 960.915643 149.839234 
L 961.931204 248.458852 
L 962.946765 213.779426 
L 963.962326 153.090431 
L 964.977887 205.109569 
L 965.993448 146.588038 
L 967.009009 148.755502 
L 968.02457 230.035407 
L 969.040131 166.095215 
L 970.055692 131.415789 
L 971.071253 227.867943 
L 972.086814 196.439713 
L 973.102375 55.554545 
L 974.117936 125.997129 
L 975.133497 137.918182 
L 976.149058 226.784211 
L 978.18018 96.736364 
L 979.195741 163.927751 
L 980.211302 65.308134 
L 981.226863 132.499522 
L 982.242424 150.922967 
L 983.257985 230.035407 
L 985.289107 110.82488 
L 986.304668 228.951675 
L 987.320229 287.473206 
L 988.33579 292.891866 
L 989.351351 213.779426 
L 990.366912 119.494737 
L 991.382473 155.257895 
L 992.398034 96.736364 
L 993.413595 150.922967 
L 994.429156 155.257895 
L 995.444717 170.430144 
L 996.460278 133.583254 
L 997.475839 215.94689 
L 998.4914 157.425359 
L 999.506962 108.657416 
L 1000.522523 178.016268 
L 1001.538084 101.071292 
L 1002.553645 187.769856 
L 1003.569206 183.434928 
L 1004.584767 105.40622 
L 1005.600328 137.918182 
L 1006.615889 136.83445 
L 1007.63145 236.537799 
L 1008.647011 204.025837 
L 1009.662572 141.169378 
L 1010.678133 193.188517 
L 1011.693694 136.83445 
L 1012.709255 139.001914 
L 1013.724816 220.281818 
L 1014.740377 159.592823 
L 1015.755938 123.829665 
L 1016.771499 218.114354 
L 1017.78706 186.686124 
L 1018.802621 55.554545 
L 1019.818182 121.662201 
L 1020.833743 135.750718 
L 1021.849304 222.449282 
L 1023.880426 89.150239 
L 1024.895987 160.676555 
L 1025.911548 62.056938 
L 1026.927109 133.583254 
L 1027.94267 150.922967 
L 1028.958231 230.035407 
L 1030.989353 111.908612 
L 1032.004914 230.035407 
L 1033.020475 289.64067 
L 1034.036036 292.891866 
L 1035.051597 215.94689 
L 1036.067158 124.913397 
L 1037.082719 159.592823 
L 1038.09828 103.238756 
L 1039.113841 158.509091 
L 1040.129402 160.676555 
L 1041.144963 174.765072 
L 1042.160524 137.918182 
L 1043.176085 221.36555 
L 1044.191646 166.095215 
L 1045.207207 117.327273 
L 1046.222768 185.602392 
L 1047.238329 108.657416 
L 1048.25389 195.355981 
L 1049.269451 191.021053 
L 1050.285012 114.076077 
L 1051.300573 150.922967 
L 1052.316134 147.67177 
L 1053.331695 246.291388 
L 1054.347256 211.611962 
L 1055.362817 147.67177 
L 1056.378378 200.774641 
L 1057.393939 144.420574 
L 1058.4095 148.755502 
L 1059.425061 228.951675 
L 1060.440622 166.095215 
L 1061.456183 129.248325 
L 1062.471744 224.616746 
L 1063.487305 195.355981 
L 1064.502867 55.554545 
L 1065.518428 127.080861 
L 1066.533989 143.336842 
L 1067.54955 228.951675 
L 1069.580672 95.652632 
L 1070.596233 165.011483 
L 1071.611794 65.308134 
L 1072.627355 136.83445 
L 1073.642916 155.257895 
L 1074.658477 235.454067 
L 1076.689599 114.076077 
L 1077.70516 232.202871 
L 1078.720721 291.808134 
L 1079.736282 295.05933 
L 1080.751843 218.114354 
L 1081.767404 125.997129 
L 1082.782965 162.844019 
L 1083.798526 104.322488 
L 1084.814087 158.509091 
L 1085.829648 154.174163 
L 1086.845209 172.597608 
L 1087.86077 137.918182 
L 1088.876331 220.281818 
L 1090.907453 115.159809 
L 1091.923014 183.434928 
L 1092.938575 107.573684 
L 1093.954136 195.355981 
L 1094.969697 188.853589 
L 1095.985258 110.82488 
L 1097.000819 146.588038 
L 1098.01638 147.67177 
L 1099.031941 247.37512 
L 1100.047502 211.611962 
L 1101.063063 146.588038 
L 1102.078624 198.607177 
L 1103.094185 142.25311 
L 1104.109746 147.67177 
L 1105.125307 230.035407 
L 1106.140868 170.430144 
L 1107.156429 131.415789 
L 1108.17199 226.784211 
L 1109.187551 194.272249 
L 1110.203112 55.554545 
L 1111.218673 127.080861 
L 1112.234234 144.420574 
L 1113.249795 233.286603 
L 1115.280917 96.736364 
L 1116.296478 168.262679 
L 1117.312039 67.475598 
L 1118.3276 139.001914 
L 1119.343161 158.509091 
L 1120.358722 237.621531 
L 1122.389844 119.494737 
L 1123.405405 236.537799 
L 1124.420966 297.226794 
L 1125.436527 300.47799 
L 1126.452088 221.36555 
L 1127.467649 129.248325 
L 1128.48321 166.095215 
L 1129.498771 114.076077 
L 1130.514333 165.011483 
L 1131.529894 167.178947 
L 1132.545455 181.267464 
L 1133.561016 143.336842 
L 1134.576577 228.951675 
L 1136.607699 125.997129 
L 1137.62326 191.021053 
L 1138.638821 114.076077 
L 1139.654382 200.774641 
L 1140.669943 195.355981 
L 1141.685504 118.411005 
L 1142.701065 154.174163 
L 1143.716626 153.090431 
L 1144.732187 252.79378 
L 1145.747748 218.114354 
L 1146.763309 153.090431 
L 1147.77887 205.109569 
L 1148.794431 148.755502 
L 1149.809992 153.090431 
L 1150.825553 233.286603 
L 1151.841114 171.513876 
L 1152.856675 135.750718 
L 1153.872236 231.119139 
L 1154.887797 199.690909 
L 1155.903358 55.554545 
L 1156.918919 130.332057 
L 1157.93448 148.755502 
L 1158.950041 234.370335 
L 1160.981163 105.40622 
L 1161.996724 172.597608 
L 1163.012285 70.726794 
L 1164.027846 137.918182 
L 1165.043407 160.676555 
L 1166.058968 239.788995 
L 1168.09009 123.829665 
L 1169.105651 239.788995 
L 1170.121212 298.310526 
L 1171.136773 302.645455 
L 1172.152334 223.533014 
L 1173.167895 131.415789 
L 1174.183456 168.262679 
L 1175.199017 112.992344 
L 1176.214578 168.262679 
L 1177.230139 169.346411 
L 1178.2457 181.267464 
L 1179.261261 145.504306 
L 1180.276822 228.951675 
L 1181.292383 172.597608 
L 1182.307944 123.829665 
L 1183.323505 192.104785 
L 1184.339066 116.243541 
L 1185.354627 200.774641 
L 1186.370188 194.272249 
L 1187.385749 116.243541 
L 1188.40131 153.090431 
L 1189.416871 153.090431 
L 1190.432432 252.79378 
L 1191.447993 219.198086 
L 1192.463554 154.174163 
L 1193.479115 205.109569 
L 1194.494676 146.588038 
L 1195.510238 150.922967 
L 1196.525799 235.454067 
L 1197.54136 172.597608 
L 1198.556921 135.750718 
L 1199.572482 231.119139 
L 1200.588043 198.607177 
L 1201.603604 55.554545 
L 1202.619165 131.415789 
L 1203.634726 147.67177 
L 1204.650287 235.454067 
L 1205.665848 166.095215 
L 1206.681409 105.40622 
L 1207.69697 174.765072 
L 1208.712531 71.810526 
L 1209.728092 140.085646 
L 1210.743653 159.592823 
L 1211.759214 239.788995 
L 1213.790336 121.662201 
L 1214.805897 240.872727 
L 1215.821458 299.394258 
L 1216.837019 300.47799 
L 1217.85258 222.449282 
L 1218.868141 129.248325 
L 1219.883702 168.262679 
L 1220.899263 111.908612 
L 1221.914824 168.262679 
L 1222.930385 171.513876 
L 1223.945946 181.267464 
L 1224.961507 143.336842 
L 1225.977068 228.951675 
L 1226.992629 172.597608 
L 1228.00819 124.913397 
L 1229.023751 193.188517 
L 1230.039312 115.159809 
L 1231.054873 200.774641 
L 1232.070434 194.272249 
L 1233.085995 116.243541 
L 1234.101556 154.174163 
L 1235.117117 150.922967 
L 1236.132678 251.710048 
L 1237.148239 218.114354 
L 1238.1638 155.257895 
L 1239.179361 206.193301 
L 1240.194922 148.755502 
L 1241.210483 153.090431 
L 1242.226044 233.286603 
L 1243.241605 171.513876 
L 1244.257166 133.583254 
L 1245.272727 228.951675 
L 1245.272727 228.951675 
" style="fill:none;stroke:#1f77b4;stroke-linecap:square;stroke-width:1.5;"/>
   </g>
   <g id="patch_3">
    <path d="M 180 315 
L 180 43.2 
" style="fill:none;stroke:#000000;stroke-linecap:square;stroke-linejoin:miter;stroke-width:0.8;"/>
   </g>
   <g id="patch_4">
    <path d="M 1296 315 
L 1296 43.2 
" style="fill:none;stroke:#000000;stroke-linecap:square;stroke-linejoin:miter;stroke-width:0.8;"/>
   </g>
   <g id="patch_5">
    <path d="M 180 315 
L 1296 315 
" style="fill:none;stroke:#000000;stroke-linecap:square;stroke-linejoin:miter;stroke-width:0.8;"/>
   </g>
   <g id="patch_6">
    <path d="M 180 43.2 
L 1296 43.2 
" style="fill:none;stroke:#000000;stroke-linecap:square;stroke-linejoin:miter;stroke-width:0.8;"/>
   </g>
  </g>
 </g>
 <defs>
  <clipPath id="pe29c6bbf87">
   <rect height="271.8" width="1116" x="180" y="43.2"/>
  </clipPath>
 </defs>
</svg>
