<?xml version="1.0" encoding="utf-8" standalone="no"?>
<!DOCTYPE svg PUBLIC "-//W3C//DTD SVG 1.1//EN"
  "http://www.w3.org/Graphics/SVG/1.1/DTD/svg11.dtd">
<!-- Created with matplotlib (https://matplotlib.org/) -->
<svg height="577.44pt" version="1.1" viewBox="0 0 1100.16 577.44" width="1100.16pt" xmlns="http://www.w3.org/2000/svg" xmlns:xlink="http://www.w3.org/1999/xlink">
 <defs>
  <style type="text/css">
*{stroke-linecap:butt;stroke-linejoin:round;}
  </style>
 </defs>
 <g id="figure_1">
  <g id="patch_1">
   <path d="M 0 577.44 
L 1100.16 577.44 
L 1100.16 0 
L 0 0 
z
" style="fill:#ffffff;"/>
  </g>
  <g id="axes_1">
   <g id="patch_2">
    <path d="M 137.52 513.9216 
L 990.144 513.9216 
L 990.144 69.2928 
L 137.52 69.2928 
z
" style="fill:#ffffff;"/>
   </g>
   <g id="matplotlib.axis_1">
    <g id="xtick_1">
     <g id="line2d_1">
      <defs>
       <path d="M 0 0 
L 0 3.5 
" id="mb62c0d855c" style="stroke:#000000;stroke-width:0.8;"/>
      </defs>
      <g>
       <use style="stroke:#000000;stroke-width:0.8;" x="193.053797" xlink:href="#mb62c0d855c" y="513.9216"/>
      </g>
     </g>
     <g id="text_1">
      <!-- 0 -->
      <defs>
       <path d="M 31.78125 66.40625 
Q 24.171875 66.40625 20.328125 58.90625 
Q 16.5 51.421875 16.5 36.375 
Q 16.5 21.390625 20.328125 13.890625 
Q 24.171875 6.390625 31.78125 6.390625 
Q 39.453125 6.390625 43.28125 13.890625 
Q 47.125 21.390625 47.125 36.375 
Q 47.125 51.421875 43.28125 58.90625 
Q 39.453125 66.40625 31.78125 66.40625 
z
M 31.78125 74.21875 
Q 44.046875 74.21875 50.515625 64.515625 
Q 56.984375 54.828125 56.984375 36.375 
Q 56.984375 17.96875 50.515625 8.265625 
Q 44.046875 -1.421875 31.78125 -1.421875 
Q 19.53125 -1.421875 13.0625 8.265625 
Q 6.59375 17.96875 6.59375 36.375 
Q 6.59375 54.828125 13.0625 64.515625 
Q 19.53125 74.21875 31.78125 74.21875 
z
" id="DejaVuSans-48"/>
      </defs>
      <g transform="translate(189.872547 528.520037)scale(0.1 -0.1)">
       <use xlink:href="#DejaVuSans-48"/>
      </g>
     </g>
    </g>
    <g id="xtick_2">
     <g id="line2d_2">
      <g>
       <use style="stroke:#000000;stroke-width:0.8;" x="382.108796" xlink:href="#mb62c0d855c" y="513.9216"/>
      </g>
     </g>
     <g id="text_2">
      <!-- 50 -->
      <defs>
       <path d="M 10.796875 72.90625 
L 49.515625 72.90625 
L 49.515625 64.59375 
L 19.828125 64.59375 
L 19.828125 46.734375 
Q 21.96875 47.46875 24.109375 47.828125 
Q 26.265625 48.1875 28.421875 48.1875 
Q 40.625 48.1875 47.75 41.5 
Q 54.890625 34.8125 54.890625 23.390625 
Q 54.890625 11.625 47.5625 5.09375 
Q 40.234375 -1.421875 26.90625 -1.421875 
Q 22.3125 -1.421875 17.546875 -0.640625 
Q 12.796875 0.140625 7.71875 1.703125 
L 7.71875 11.625 
Q 12.109375 9.234375 16.796875 8.0625 
Q 21.484375 6.890625 26.703125 6.890625 
Q 35.15625 6.890625 40.078125 11.328125 
Q 45.015625 15.765625 45.015625 23.390625 
Q 45.015625 31 40.078125 35.4375 
Q 35.15625 39.890625 26.703125 39.890625 
Q 22.75 39.890625 18.8125 39.015625 
Q 14.890625 38.140625 10.796875 36.28125 
z
" id="DejaVuSans-53"/>
      </defs>
      <g transform="translate(375.746296 528.520037)scale(0.1 -0.1)">
       <use xlink:href="#DejaVuSans-53"/>
       <use x="63.623047" xlink:href="#DejaVuSans-48"/>
      </g>
     </g>
    </g>
    <g id="xtick_3">
     <g id="line2d_3">
      <g>
       <use style="stroke:#000000;stroke-width:0.8;" x="571.163796" xlink:href="#mb62c0d855c" y="513.9216"/>
      </g>
     </g>
     <g id="text_3">
      <!-- 100 -->
      <defs>
       <path d="M 12.40625 8.296875 
L 28.515625 8.296875 
L 28.515625 63.921875 
L 10.984375 60.40625 
L 10.984375 69.390625 
L 28.421875 72.90625 
L 38.28125 72.90625 
L 38.28125 8.296875 
L 54.390625 8.296875 
L 54.390625 0 
L 12.40625 0 
z
" id="DejaVuSans-49"/>
      </defs>
      <g transform="translate(561.620046 528.520037)scale(0.1 -0.1)">
       <use xlink:href="#DejaVuSans-49"/>
       <use x="63.623047" xlink:href="#DejaVuSans-48"/>
       <use x="127.246094" xlink:href="#DejaVuSans-48"/>
      </g>
     </g>
    </g>
    <g id="xtick_4">
     <g id="line2d_4">
      <g>
       <use style="stroke:#000000;stroke-width:0.8;" x="760.218796" xlink:href="#mb62c0d855c" y="513.9216"/>
      </g>
     </g>
     <g id="text_4">
      <!-- 150 -->
      <g transform="translate(750.675046 528.520037)scale(0.1 -0.1)">
       <use xlink:href="#DejaVuSans-49"/>
       <use x="63.623047" xlink:href="#DejaVuSans-53"/>
       <use x="127.246094" xlink:href="#DejaVuSans-48"/>
      </g>
     </g>
    </g>
    <g id="xtick_5">
     <g id="line2d_5">
      <g>
       <use style="stroke:#000000;stroke-width:0.8;" x="949.273796" xlink:href="#mb62c0d855c" y="513.9216"/>
      </g>
     </g>
     <g id="text_5">
      <!-- 200 -->
      <defs>
       <path d="M 19.1875 8.296875 
L 53.609375 8.296875 
L 53.609375 0 
L 7.328125 0 
L 7.328125 8.296875 
Q 12.9375 14.109375 22.625 23.890625 
Q 32.328125 33.6875 34.8125 36.53125 
Q 39.546875 41.84375 41.421875 45.53125 
Q 43.3125 49.21875 43.3125 52.78125 
Q 43.3125 58.59375 39.234375 62.25 
Q 35.15625 65.921875 28.609375 65.921875 
Q 23.96875 65.921875 18.8125 64.3125 
Q 13.671875 62.703125 7.8125 59.421875 
L 7.8125 69.390625 
Q 13.765625 71.78125 18.9375 73 
Q 24.125 74.21875 28.421875 74.21875 
Q 39.75 74.21875 46.484375 68.546875 
Q 53.21875 62.890625 53.21875 53.421875 
Q 53.21875 48.921875 51.53125 44.890625 
Q 49.859375 40.875 45.40625 35.40625 
Q 44.1875 33.984375 37.640625 27.21875 
Q 31.109375 20.453125 19.1875 8.296875 
z
" id="DejaVuSans-50"/>
      </defs>
      <g transform="translate(939.730046 528.520037)scale(0.1 -0.1)">
       <use xlink:href="#DejaVuSans-50"/>
       <use x="63.623047" xlink:href="#DejaVuSans-48"/>
       <use x="127.246094" xlink:href="#DejaVuSans-48"/>
      </g>
     </g>
    </g>
   </g>
   <g id="matplotlib.axis_2">
    <g id="ytick_1">
     <g id="line2d_6">
      <defs>
       <path d="M 0 0 
L -3.5 0 
" id="m2f4792e0ec" style="stroke:#000000;stroke-width:0.8;"/>
      </defs>
      <g>
       <use style="stroke:#000000;stroke-width:0.8;" x="137.52" xlink:href="#m2f4792e0ec" y="445.594096"/>
      </g>
     </g>
     <g id="text_6">
      <!-- −0.4 -->
      <defs>
       <path d="M 10.59375 35.5 
L 73.1875 35.5 
L 73.1875 27.203125 
L 10.59375 27.203125 
z
" id="DejaVuSans-8722"/>
       <path d="M 10.6875 12.40625 
L 21 12.40625 
L 21 0 
L 10.6875 0 
z
" id="DejaVuSans-46"/>
       <path d="M 37.796875 64.3125 
L 12.890625 25.390625 
L 37.796875 25.390625 
z
M 35.203125 72.90625 
L 47.609375 72.90625 
L 47.609375 25.390625 
L 58.015625 25.390625 
L 58.015625 17.1875 
L 47.609375 17.1875 
L 47.609375 0 
L 37.796875 0 
L 37.796875 17.1875 
L 4.890625 17.1875 
L 4.890625 26.703125 
z
" id="DejaVuSans-52"/>
      </defs>
      <g transform="translate(106.237187 449.393315)scale(0.1 -0.1)">
       <use xlink:href="#DejaVuSans-8722"/>
       <use x="83.789062" xlink:href="#DejaVuSans-48"/>
       <use x="147.412109" xlink:href="#DejaVuSans-46"/>
       <use x="179.199219" xlink:href="#DejaVuSans-52"/>
      </g>
     </g>
    </g>
    <g id="ytick_2">
     <g id="line2d_7">
      <g>
       <use style="stroke:#000000;stroke-width:0.8;" x="137.52" xlink:href="#m2f4792e0ec" y="354.013778"/>
      </g>
     </g>
     <g id="text_7">
      <!-- −0.2 -->
      <g transform="translate(106.237187 357.812996)scale(0.1 -0.1)">
       <use xlink:href="#DejaVuSans-8722"/>
       <use x="83.789062" xlink:href="#DejaVuSans-48"/>
       <use x="147.412109" xlink:href="#DejaVuSans-46"/>
       <use x="179.199219" xlink:href="#DejaVuSans-50"/>
      </g>
     </g>
    </g>
    <g id="ytick_3">
     <g id="line2d_8">
      <g>
       <use style="stroke:#000000;stroke-width:0.8;" x="137.52" xlink:href="#m2f4792e0ec" y="262.433459"/>
      </g>
     </g>
     <g id="text_8">
      <!-- 0.0 -->
      <g transform="translate(114.616875 266.232677)scale(0.1 -0.1)">
       <use xlink:href="#DejaVuSans-48"/>
       <use x="63.623047" xlink:href="#DejaVuSans-46"/>
       <use x="95.410156" xlink:href="#DejaVuSans-48"/>
      </g>
     </g>
    </g>
    <g id="ytick_4">
     <g id="line2d_9">
      <g>
       <use style="stroke:#000000;stroke-width:0.8;" x="137.52" xlink:href="#m2f4792e0ec" y="170.85314"/>
      </g>
     </g>
     <g id="text_9">
      <!-- 0.2 -->
      <g transform="translate(114.616875 174.652359)scale(0.1 -0.1)">
       <use xlink:href="#DejaVuSans-48"/>
       <use x="63.623047" xlink:href="#DejaVuSans-46"/>
       <use x="95.410156" xlink:href="#DejaVuSans-50"/>
      </g>
     </g>
    </g>
    <g id="ytick_5">
     <g id="line2d_10">
      <g>
       <use style="stroke:#000000;stroke-width:0.8;" x="137.52" xlink:href="#m2f4792e0ec" y="79.272821"/>
      </g>
     </g>
     <g id="text_10">
      <!-- 0.4 -->
      <g transform="translate(114.616875 83.07204)scale(0.1 -0.1)">
       <use xlink:href="#DejaVuSans-48"/>
       <use x="63.623047" xlink:href="#DejaVuSans-46"/>
       <use x="95.410156" xlink:href="#DejaVuSans-52"/>
      </g>
     </g>
    </g>
   </g>
   <g id="line2d_11">
    <path clip-path="url(#pf3e08f5b3e)" d="M 193.053797 253.490068 
L 196.834897 174.788232 
L 200.615997 303.573055 
L 204.397097 312.516446 
L 208.178197 242.758 
L 211.959297 273.165527 
L 215.740397 319.671158 
L 219.521497 276.742884 
L 223.302597 292.840986 
L 227.083697 396.584316 
L 230.864797 267.799493 
L 234.645897 255.278746 
L 238.426997 308.939089 
L 242.208097 267.799493 
L 245.989197 185.5203 
L 249.770297 180.154266 
L 253.551397 305.361733 
L 257.332497 221.293862 
L 261.113597 149.746738 
L 264.894697 276.742884 
L 268.675797 271.376849 
L 272.456897 283.897596 
L 276.237997 339.346617 
L 280.019097 169.422197 
L 283.800197 233.814609 
L 287.581297 357.233398 
L 291.362397 283.897596 
L 295.143497 350.078686 
L 298.924597 289.26363 
L 302.705697 360.810754 
L 306.486797 282.108918 
L 310.267896 258.856102 
L 314.048996 296.418343 
L 317.830096 180.154266 
L 321.611196 81.77697 
L 325.392296 342.923973 
L 329.173396 253.490068 
L 332.954496 332.191905 
L 336.735596 418.048454 
L 340.516696 292.840986 
L 344.297796 360.810754 
L 348.078896 217.716506 
L 351.859996 291.052308 
L 355.641096 266.010815 
L 359.422196 364.388111 
L 363.203296 240.969321 
L 366.984396 314.305124 
L 370.765496 314.305124 
L 374.546596 257.067424 
L 378.327696 273.165527 
L 382.108796 319.671158 
L 385.889896 260.644781 
L 389.670996 283.897596 
L 393.452096 323.248514 
L 397.233196 305.361733 
L 401.014296 305.361733 
L 404.795396 405.527707 
L 408.576496 294.629665 
L 412.357596 357.233398 
L 416.138696 285.686274 
L 419.919796 312.516446 
L 423.700896 217.716506 
L 427.481996 333.980583 
L 431.263096 371.542823 
L 435.044196 271.376849 
L 438.825296 350.078686 
L 442.606396 253.490068 
L 446.387496 341.135295 
L 450.168596 278.531562 
L 453.949696 359.022076 
L 457.730796 165.844841 
L 461.511896 283.897596 
L 465.292996 301.784377 
L 469.074096 282.108918 
L 472.855196 282.108918 
L 476.636296 266.010815 
L 480.417396 205.195759 
L 484.198496 224.871219 
L 487.979596 239.180643 
L 491.760696 308.939089 
L 495.541796 246.335356 
L 499.322896 335.769261 
L 503.103996 255.278746 
L 506.885096 342.923973 
L 510.666196 160.478807 
L 514.447296 273.165527 
L 518.228396 282.108918 
L 522.009496 249.912712 
L 525.790596 205.195759 
L 529.571696 198.041047 
L 533.352796 233.814609 
L 537.133896 323.248514 
L 540.914996 249.912712 
L 544.696096 278.531562 
L 548.477196 255.278746 
L 552.258296 260.644781 
L 556.039396 187.308978 
L 559.820496 242.758 
L 563.601596 332.191905 
L 567.382696 407.316385 
L 571.163796 283.897596 
L 574.944896 346.50133 
L 578.725996 155.112772 
L 582.507096 260.644781 
L 586.288196 246.335356 
L 590.069296 249.912712 
L 593.850396 235.603287 
L 597.631496 187.308978 
L 601.412596 176.57691 
L 605.193696 180.154266 
L 608.974796 266.010815 
L 612.755896 217.716506 
L 616.536996 232.025931 
L 620.318096 296.418343 
L 624.099196 348.290008 
L 627.880296 60.312833 
L 631.661396 196.252369 
L 635.442496 364.388111 
L 639.223596 278.531562 
L 643.004696 341.135295 
L 646.785796 264.222137 
L 650.566896 267.799493 
L 654.347996 224.871219 
L 658.129096 273.165527 
L 661.910196 249.912712 
L 665.691296 294.629665 
L 669.472396 189.097656 
L 673.253496 299.995699 
L 677.034596 192.675013 
L 680.815696 287.474952 
L 684.596796 291.052308 
L 688.377896 232.025931 
L 692.158996 274.954205 
L 695.940096 212.350472 
L 699.721196 271.376849 
L 703.502296 357.233398 
L 707.283396 278.531562 
L 711.064496 333.980583 
L 714.845596 240.969321 
L 718.626696 221.293862 
L 722.407796 378.697535 
L 726.188896 224.871219 
L 729.969996 291.052308 
L 733.751096 199.829725 
L 737.532196 325.037192 
L 741.313296 344.712651 
L 745.094396 139.01467 
L 748.875496 285.686274 
L 752.656596 278.531562 
L 756.437696 189.097656 
L 760.218796 298.207021 
L 763.999896 240.969321 
L 767.780996 212.350472 
L 771.562096 317.88248 
L 775.343196 310.727767 
L 779.124296 355.44472 
L 782.905396 266.010815 
L 786.686496 359.022076 
L 790.467596 249.912712 
L 794.248696 274.954205 
L 798.029796 303.573055 
L 805.591996 217.716506 
L 809.373096 301.784377 
L 813.154196 305.361733 
L 816.935296 40.637374 
L 820.716396 214.13915 
L 824.497496 282.108918 
L 828.278596 360.810754 
L 832.059696 273.165527 
L 835.840796 323.248514 
L 839.621896 321.459836 
L 843.402996 71.044902 
L 847.184096 307.150411 
L 850.965196 296.418343 
L 854.746296 255.278746 
L 858.527396 351.867364 
L 862.308496 282.108918 
L 866.089596 339.346617 
L 869.870696 249.912712 
L 873.651796 237.391965 
L 877.432896 391.218282 
L 881.213996 233.814609 
L 884.995096 298.207021 
L 888.776196 296.418343 
L 892.557296 298.207021 
L 896.338396 341.135295 
L 900.119496 299.995699 
L 903.900596 251.70139 
L 907.681696 294.629665 
L 911.462796 255.278746 
L 915.243896 307.150411 
L 919.024996 380.486213 
L 922.806096 96.086395 
L 926.587196 198.041047 
L 930.368296 371.542823 
L 934.149396 233.814609 
L 937.930496 303.573055 
L 941.711596 264.222137 
L 945.492696 237.391965 
L 953.054896 373.331501 
L 956.835996 260.644781 
L 960.617096 346.50133 
L 964.398196 178.365588 
L 968.179296 289.26363 
L 971.960396 262.433459 
L 975.741496 273.165527 
L 979.522596 274.954205 
L 983.303696 232.025931 
L 987.084796 185.5203 
L 990.865896 208.773116 
L 994.646996 276.742884 
L 998.428096 371.542823 
L 1002.209196 253.490068 
L 1005.990296 267.799493 
L 1009.771396 255.278746 
L 1013.552496 174.788232 
L 1017.333596 291.052308 
L 1021.114696 444.878625 
L 1024.895796 462.765406 
L 1028.676896 387.640926 
L 1032.457996 206.984437 
L 1036.239096 339.346617 
L 1040.020196 255.278746 
L 1043.801296 285.686274 
L 1047.582396 226.659897 
L 1051.363496 260.644781 
L 1055.144596 199.829725 
L 1058.925696 221.293862 
L 1062.706796 348.290008 
L 1066.487896 208.773116 
L 1070.268996 203.407081 
L 1074.050096 292.840986 
L 1077.831196 326.82587 
L 1081.612296 301.784377 
L 1089.174496 283.897596 
L 1092.955596 387.640926 
L 1096.736696 273.165527 
L 1100.517796 274.954205 
L 1101.16 277.080803 
L 1101.16 277.080803 
" style="fill:none;stroke:#1f77b4;stroke-linecap:square;stroke-width:1.5;"/>
   </g>
   <g id="line2d_12">
    <path clip-path="url(#pf3e08f5b3e)" d="M 193.053797 235.603287 
L 196.834897 176.57691 
L 200.615997 299.995699 
L 204.397097 307.150411 
L 208.178197 237.391965 
L 211.959297 274.954205 
L 215.740397 314.305124 
L 219.521497 274.954205 
L 223.302597 289.26363 
L 227.083697 394.795638 
L 230.864797 271.376849 
L 234.645897 264.222137 
L 238.426997 308.939089 
L 242.208097 267.799493 
L 245.989197 187.308978 
L 249.770297 178.365588 
L 253.551397 294.629665 
L 257.332497 223.08254 
L 261.113597 130.071279 
L 264.894697 274.954205 
L 268.675797 269.588171 
L 272.456897 285.686274 
L 276.237997 337.557939 
L 280.019097 167.633519 
L 283.800197 228.448575 
L 287.581297 355.44472 
L 291.362397 285.686274 
L 295.143497 350.078686 
L 298.924597 283.897596 
L 302.705697 360.810754 
L 306.486797 282.108918 
L 310.267896 255.278746 
L 314.048996 298.207021 
L 317.830096 180.154266 
L 321.611196 83.565648 
L 325.392296 342.923973 
L 329.173396 251.70139 
L 332.954496 328.614549 
L 336.735596 414.471097 
L 340.516696 291.052308 
L 344.297796 355.44472 
L 348.078896 219.505184 
L 351.859996 289.26363 
L 355.641096 267.799493 
L 359.422196 360.810754 
L 363.203296 242.758 
L 366.984396 314.305124 
L 370.765496 319.671158 
L 374.546596 258.856102 
L 378.327696 271.376849 
L 382.108796 317.88248 
L 385.889896 260.644781 
L 389.670996 280.32024 
L 393.452096 321.459836 
L 397.233196 299.995699 
L 401.014296 305.361733 
L 404.795396 400.161673 
L 408.576496 299.995699 
L 412.357596 357.233398 
L 416.138696 291.052308 
L 419.919796 310.727767 
L 423.700896 217.716506 
L 427.481996 328.614549 
L 431.263096 366.176789 
L 435.044196 267.799493 
L 438.825296 346.50133 
L 442.606396 253.490068 
L 446.387496 339.346617 
L 450.168596 274.954205 
L 453.949696 353.656042 
L 457.730796 167.633519 
L 461.511896 283.897596 
L 465.292996 299.995699 
L 469.074096 282.108918 
L 472.855196 282.108918 
L 476.636296 264.222137 
L 480.417396 203.407081 
L 484.198496 223.08254 
L 487.979596 239.180643 
L 491.760696 303.573055 
L 495.541796 244.546678 
L 499.322896 332.191905 
L 503.103996 255.278746 
L 506.885096 341.135295 
L 510.666196 156.901451 
L 514.447296 271.376849 
L 518.228396 280.32024 
L 522.009496 249.912712 
L 525.790596 199.829725 
L 529.571696 203.407081 
L 533.352796 233.814609 
L 537.133896 325.037192 
L 540.914996 246.335356 
L 544.696096 278.531562 
L 548.477196 251.70139 
L 552.258296 264.222137 
L 556.039396 185.5203 
L 559.820496 242.758 
L 563.601596 330.403227 
L 567.382696 400.161673 
L 571.163796 276.742884 
L 574.944896 342.923973 
L 578.725996 158.690129 
L 582.507096 260.644781 
L 586.288196 248.124034 
L 590.069296 253.490068 
L 593.850396 239.180643 
L 597.631496 192.675013 
L 601.412596 174.788232 
L 605.193696 178.365588 
L 608.974796 266.010815 
L 612.755896 217.716506 
L 616.536996 226.659897 
L 620.318096 294.629665 
L 624.099196 350.078686 
L 627.880296 62.101511 
L 631.661396 189.097656 
L 635.442496 360.810754 
L 639.223596 278.531562 
L 643.004696 342.923973 
L 646.785796 266.010815 
L 650.566896 267.799493 
L 654.347996 228.448575 
L 658.129096 274.954205 
L 661.910196 242.758 
L 665.691296 294.629665 
L 669.472396 187.308978 
L 673.253496 296.418343 
L 677.034596 192.675013 
L 680.815696 283.897596 
L 684.596796 285.686274 
L 688.377896 235.603287 
L 692.158996 273.165527 
L 695.940096 214.13915 
L 699.721196 273.165527 
L 703.502296 353.656042 
L 707.283396 274.954205 
L 711.064496 332.191905 
L 714.845596 242.758 
L 718.626696 221.293862 
L 722.407796 375.120179 
L 726.188896 224.871219 
L 729.969996 285.686274 
L 733.751096 205.195759 
L 737.532196 323.248514 
L 741.313296 341.135295 
L 745.094396 142.592026 
L 748.875496 283.897596 
L 752.656596 273.165527 
L 756.437696 190.886335 
L 760.218796 298.207021 
L 763.999896 246.335356 
L 767.780996 214.13915 
L 771.562096 319.671158 
L 775.343196 310.727767 
L 779.124296 357.233398 
L 782.905396 267.799493 
L 786.686496 357.233398 
L 790.467596 249.912712 
L 798.029796 299.995699 
L 801.810896 262.433459 
L 805.591996 226.659897 
L 809.373096 307.150411 
L 813.154196 323.248514 
L 816.935296 56.735477 
L 820.716396 217.716506 
L 824.497496 283.897596 
L 828.278596 357.233398 
L 832.059696 276.742884 
L 835.840796 321.459836 
L 839.621896 325.037192 
L 843.402996 67.467545 
L 847.184096 301.784377 
L 850.965196 294.629665 
L 854.746296 253.490068 
L 858.527396 346.50133 
L 862.308496 278.531562 
L 866.089596 335.769261 
L 869.870696 251.70139 
L 873.651796 232.025931 
L 877.432896 389.429604 
L 881.213996 232.025931 
L 884.995096 296.418343 
L 888.776196 291.052308 
L 892.557296 296.418343 
L 896.338396 335.769261 
L 900.119496 296.418343 
L 903.900596 246.335356 
L 907.681696 292.840986 
L 911.462796 253.490068 
L 915.243896 308.939089 
L 919.024996 375.120179 
L 922.806096 97.875073 
L 926.587196 196.252369 
L 930.368296 367.965467 
L 934.149396 228.448575 
L 937.930496 299.995699 
L 941.711596 258.856102 
L 945.492696 239.180643 
L 949.273796 301.784377 
L 953.054896 369.754145 
L 956.835996 257.067424 
L 960.617096 348.290008 
L 964.398196 172.999554 
L 968.179296 283.897596 
L 971.960396 260.644781 
L 975.741496 269.588171 
L 979.522596 269.588171 
L 983.303696 235.603287 
L 987.084796 192.675013 
L 990.865896 210.561794 
L 994.646996 274.954205 
L 998.428096 367.965467 
L 1002.209196 253.490068 
L 1005.990296 274.954205 
L 1009.771396 253.490068 
L 1013.552496 176.57691 
L 1017.333596 283.897596 
L 1021.114696 439.512591 
L 1024.895796 450.24466 
L 1028.676896 378.697535 
L 1032.457996 201.618403 
L 1036.239096 332.191905 
L 1040.020196 253.490068 
L 1043.801296 282.108918 
L 1047.582396 226.659897 
L 1051.363496 264.222137 
L 1055.144596 198.041047 
L 1058.925696 217.716506 
L 1062.706796 342.923973 
L 1066.487896 205.195759 
L 1070.268996 199.829725 
L 1074.050096 291.052308 
L 1077.831196 323.248514 
L 1081.612296 296.418343 
L 1085.393396 292.840986 
L 1089.174496 291.052308 
L 1092.955596 384.06357 
L 1096.736696 274.954205 
L 1100.517796 271.376849 
L 1101.16 273.807247 
L 1101.16 273.807247 
" style="fill:none;stroke:#ff7f0e;stroke-linecap:square;stroke-opacity:0.5;stroke-width:1.5;"/>
   </g>
   <g id="patch_3">
    <path d="M 137.52 513.9216 
L 137.52 69.2928 
" style="fill:none;stroke:#000000;stroke-linecap:square;stroke-linejoin:miter;stroke-width:0.8;"/>
   </g>
   <g id="patch_4">
    <path d="M 990.144 513.9216 
L 990.144 69.2928 
" style="fill:none;stroke:#000000;stroke-linecap:square;stroke-linejoin:miter;stroke-width:0.8;"/>
   </g>
   <g id="patch_5">
    <path d="M 137.52 513.9216 
L 990.144 513.9216 
" style="fill:none;stroke:#000000;stroke-linecap:square;stroke-linejoin:miter;stroke-width:0.8;"/>
   </g>
   <g id="patch_6">
    <path d="M 137.52 69.2928 
L 990.144 69.2928 
" style="fill:none;stroke:#000000;stroke-linecap:square;stroke-linejoin:miter;stroke-width:0.8;"/>
   </g>
   <g id="legend_1">
    <g id="patch_7">
     <path d="M 144.52 106.64905 
L 240.47625 106.64905 
Q 242.47625 106.64905 242.47625 104.64905 
L 242.47625 76.2928 
Q 242.47625 74.2928 240.47625 74.2928 
L 144.52 74.2928 
Q 142.52 74.2928 142.52 76.2928 
L 142.52 104.64905 
Q 142.52 106.64905 144.52 106.64905 
z
" style="fill:#ffffff;opacity:0.8;stroke:#cccccc;stroke-linejoin:miter;"/>
    </g>
    <g id="line2d_13">
     <path d="M 146.52 82.391237 
L 166.52 82.391237 
" style="fill:none;stroke:#1f77b4;stroke-linecap:square;stroke-width:1.5;"/>
    </g>
    <g id="line2d_14"/>
    <g id="text_11">
     <!-- reference -->
     <defs>
      <path d="M 41.109375 46.296875 
Q 39.59375 47.171875 37.8125 47.578125 
Q 36.03125 48 33.890625 48 
Q 26.265625 48 22.1875 43.046875 
Q 18.109375 38.09375 18.109375 28.8125 
L 18.109375 0 
L 9.078125 0 
L 9.078125 54.6875 
L 18.109375 54.6875 
L 18.109375 46.1875 
Q 20.953125 51.171875 25.484375 53.578125 
Q 30.03125 56 36.53125 56 
Q 37.453125 56 38.578125 55.875 
Q 39.703125 55.765625 41.0625 55.515625 
z
" id="DejaVuSans-114"/>
      <path d="M 56.203125 29.59375 
L 56.203125 25.203125 
L 14.890625 25.203125 
Q 15.484375 15.921875 20.484375 11.0625 
Q 25.484375 6.203125 34.421875 6.203125 
Q 39.59375 6.203125 44.453125 7.46875 
Q 49.3125 8.734375 54.109375 11.28125 
L 54.109375 2.78125 
Q 49.265625 0.734375 44.1875 -0.34375 
Q 39.109375 -1.421875 33.890625 -1.421875 
Q 20.796875 -1.421875 13.15625 6.1875 
Q 5.515625 13.8125 5.515625 26.8125 
Q 5.515625 40.234375 12.765625 48.109375 
Q 20.015625 56 32.328125 56 
Q 43.359375 56 49.78125 48.890625 
Q 56.203125 41.796875 56.203125 29.59375 
z
M 47.21875 32.234375 
Q 47.125 39.59375 43.09375 43.984375 
Q 39.0625 48.390625 32.421875 48.390625 
Q 24.90625 48.390625 20.390625 44.140625 
Q 15.875 39.890625 15.1875 32.171875 
z
" id="DejaVuSans-101"/>
      <path d="M 37.109375 75.984375 
L 37.109375 68.5 
L 28.515625 68.5 
Q 23.6875 68.5 21.796875 66.546875 
Q 19.921875 64.59375 19.921875 59.515625 
L 19.921875 54.6875 
L 34.71875 54.6875 
L 34.71875 47.703125 
L 19.921875 47.703125 
L 19.921875 0 
L 10.890625 0 
L 10.890625 47.703125 
L 2.296875 47.703125 
L 2.296875 54.6875 
L 10.890625 54.6875 
L 10.890625 58.5 
Q 10.890625 67.625 15.140625 71.796875 
Q 19.390625 75.984375 28.609375 75.984375 
z
" id="DejaVuSans-102"/>
      <path d="M 54.890625 33.015625 
L 54.890625 0 
L 45.90625 0 
L 45.90625 32.71875 
Q 45.90625 40.484375 42.875 44.328125 
Q 39.84375 48.1875 33.796875 48.1875 
Q 26.515625 48.1875 22.3125 43.546875 
Q 18.109375 38.921875 18.109375 30.90625 
L 18.109375 0 
L 9.078125 0 
L 9.078125 54.6875 
L 18.109375 54.6875 
L 18.109375 46.1875 
Q 21.34375 51.125 25.703125 53.5625 
Q 30.078125 56 35.796875 56 
Q 45.21875 56 50.046875 50.171875 
Q 54.890625 44.34375 54.890625 33.015625 
z
" id="DejaVuSans-110"/>
      <path d="M 48.78125 52.59375 
L 48.78125 44.1875 
Q 44.96875 46.296875 41.140625 47.34375 
Q 37.3125 48.390625 33.40625 48.390625 
Q 24.65625 48.390625 19.8125 42.84375 
Q 14.984375 37.3125 14.984375 27.296875 
Q 14.984375 17.28125 19.8125 11.734375 
Q 24.65625 6.203125 33.40625 6.203125 
Q 37.3125 6.203125 41.140625 7.25 
Q 44.96875 8.296875 48.78125 10.40625 
L 48.78125 2.09375 
Q 45.015625 0.34375 40.984375 -0.53125 
Q 36.96875 -1.421875 32.421875 -1.421875 
Q 20.0625 -1.421875 12.78125 6.34375 
Q 5.515625 14.109375 5.515625 27.296875 
Q 5.515625 40.671875 12.859375 48.328125 
Q 20.21875 56 33.015625 56 
Q 37.15625 56 41.109375 55.140625 
Q 45.0625 54.296875 48.78125 52.59375 
z
" id="DejaVuSans-99"/>
     </defs>
     <g transform="translate(174.52 85.891237)scale(0.1 -0.1)">
      <use xlink:href="#DejaVuSans-114"/>
      <use x="41.082031" xlink:href="#DejaVuSans-101"/>
      <use x="102.605469" xlink:href="#DejaVuSans-102"/>
      <use x="137.810547" xlink:href="#DejaVuSans-101"/>
      <use x="199.333984" xlink:href="#DejaVuSans-114"/>
      <use x="240.416016" xlink:href="#DejaVuSans-101"/>
      <use x="301.939453" xlink:href="#DejaVuSans-110"/>
      <use x="365.318359" xlink:href="#DejaVuSans-99"/>
      <use x="420.298828" xlink:href="#DejaVuSans-101"/>
     </g>
    </g>
    <g id="line2d_15">
     <path d="M 146.52 97.069363 
L 166.52 97.069363 
" style="fill:none;stroke:#ff7f0e;stroke-linecap:square;stroke-opacity:0.5;stroke-width:1.5;"/>
    </g>
    <g id="line2d_16"/>
    <g id="text_12">
     <!-- wrong-guess -->
     <defs>
      <path d="M 4.203125 54.6875 
L 13.1875 54.6875 
L 24.421875 12.015625 
L 35.59375 54.6875 
L 46.1875 54.6875 
L 57.421875 12.015625 
L 68.609375 54.6875 
L 77.59375 54.6875 
L 63.28125 0 
L 52.6875 0 
L 40.921875 44.828125 
L 29.109375 0 
L 18.5 0 
z
" id="DejaVuSans-119"/>
      <path d="M 30.609375 48.390625 
Q 23.390625 48.390625 19.1875 42.75 
Q 14.984375 37.109375 14.984375 27.296875 
Q 14.984375 17.484375 19.15625 11.84375 
Q 23.34375 6.203125 30.609375 6.203125 
Q 37.796875 6.203125 41.984375 11.859375 
Q 46.1875 17.53125 46.1875 27.296875 
Q 46.1875 37.015625 41.984375 42.703125 
Q 37.796875 48.390625 30.609375 48.390625 
z
M 30.609375 56 
Q 42.328125 56 49.015625 48.375 
Q 55.71875 40.765625 55.71875 27.296875 
Q 55.71875 13.875 49.015625 6.21875 
Q 42.328125 -1.421875 30.609375 -1.421875 
Q 18.84375 -1.421875 12.171875 6.21875 
Q 5.515625 13.875 5.515625 27.296875 
Q 5.515625 40.765625 12.171875 48.375 
Q 18.84375 56 30.609375 56 
z
" id="DejaVuSans-111"/>
      <path d="M 45.40625 27.984375 
Q 45.40625 37.75 41.375 43.109375 
Q 37.359375 48.484375 30.078125 48.484375 
Q 22.859375 48.484375 18.828125 43.109375 
Q 14.796875 37.75 14.796875 27.984375 
Q 14.796875 18.265625 18.828125 12.890625 
Q 22.859375 7.515625 30.078125 7.515625 
Q 37.359375 7.515625 41.375 12.890625 
Q 45.40625 18.265625 45.40625 27.984375 
z
M 54.390625 6.78125 
Q 54.390625 -7.171875 48.1875 -13.984375 
Q 42 -20.796875 29.203125 -20.796875 
Q 24.46875 -20.796875 20.265625 -20.09375 
Q 16.0625 -19.390625 12.109375 -17.921875 
L 12.109375 -9.1875 
Q 16.0625 -11.328125 19.921875 -12.34375 
Q 23.78125 -13.375 27.78125 -13.375 
Q 36.625 -13.375 41.015625 -8.765625 
Q 45.40625 -4.15625 45.40625 5.171875 
L 45.40625 9.625 
Q 42.625 4.78125 38.28125 2.390625 
Q 33.9375 0 27.875 0 
Q 17.828125 0 11.671875 7.65625 
Q 5.515625 15.328125 5.515625 27.984375 
Q 5.515625 40.671875 11.671875 48.328125 
Q 17.828125 56 27.875 56 
Q 33.9375 56 38.28125 53.609375 
Q 42.625 51.21875 45.40625 46.390625 
L 45.40625 54.6875 
L 54.390625 54.6875 
z
" id="DejaVuSans-103"/>
      <path d="M 4.890625 31.390625 
L 31.203125 31.390625 
L 31.203125 23.390625 
L 4.890625 23.390625 
z
" id="DejaVuSans-45"/>
      <path d="M 8.5 21.578125 
L 8.5 54.6875 
L 17.484375 54.6875 
L 17.484375 21.921875 
Q 17.484375 14.15625 20.5 10.265625 
Q 23.53125 6.390625 29.59375 6.390625 
Q 36.859375 6.390625 41.078125 11.03125 
Q 45.3125 15.671875 45.3125 23.6875 
L 45.3125 54.6875 
L 54.296875 54.6875 
L 54.296875 0 
L 45.3125 0 
L 45.3125 8.40625 
Q 42.046875 3.421875 37.71875 1 
Q 33.40625 -1.421875 27.6875 -1.421875 
Q 18.265625 -1.421875 13.375 4.4375 
Q 8.5 10.296875 8.5 21.578125 
z
M 31.109375 56 
z
" id="DejaVuSans-117"/>
      <path d="M 44.28125 53.078125 
L 44.28125 44.578125 
Q 40.484375 46.53125 36.375 47.5 
Q 32.28125 48.484375 27.875 48.484375 
Q 21.1875 48.484375 17.84375 46.4375 
Q 14.5 44.390625 14.5 40.28125 
Q 14.5 37.15625 16.890625 35.375 
Q 19.28125 33.59375 26.515625 31.984375 
L 29.59375 31.296875 
Q 39.15625 29.25 43.1875 25.515625 
Q 47.21875 21.78125 47.21875 15.09375 
Q 47.21875 7.46875 41.1875 3.015625 
Q 35.15625 -1.421875 24.609375 -1.421875 
Q 20.21875 -1.421875 15.453125 -0.5625 
Q 10.6875 0.296875 5.421875 2 
L 5.421875 11.28125 
Q 10.40625 8.6875 15.234375 7.390625 
Q 20.0625 6.109375 24.8125 6.109375 
Q 31.15625 6.109375 34.5625 8.28125 
Q 37.984375 10.453125 37.984375 14.40625 
Q 37.984375 18.0625 35.515625 20.015625 
Q 33.0625 21.96875 24.703125 23.78125 
L 21.578125 24.515625 
Q 13.234375 26.265625 9.515625 29.90625 
Q 5.8125 33.546875 5.8125 39.890625 
Q 5.8125 47.609375 11.28125 51.796875 
Q 16.75 56 26.8125 56 
Q 31.78125 56 36.171875 55.265625 
Q 40.578125 54.546875 44.28125 53.078125 
z
" id="DejaVuSans-115"/>
     </defs>
     <g transform="translate(174.52 100.569363)scale(0.1 -0.1)">
      <use xlink:href="#DejaVuSans-119"/>
      <use x="81.787109" xlink:href="#DejaVuSans-114"/>
      <use x="122.869141" xlink:href="#DejaVuSans-111"/>
      <use x="184.050781" xlink:href="#DejaVuSans-110"/>
      <use x="247.429688" xlink:href="#DejaVuSans-103"/>
      <use x="310.90625" xlink:href="#DejaVuSans-45"/>
      <use x="346.990234" xlink:href="#DejaVuSans-103"/>
      <use x="410.466797" xlink:href="#DejaVuSans-117"/>
      <use x="473.845703" xlink:href="#DejaVuSans-101"/>
      <use x="535.369141" xlink:href="#DejaVuSans-115"/>
      <use x="587.46875" xlink:href="#DejaVuSans-115"/>
     </g>
    </g>
   </g>
  </g>
 </g>
 <defs>
  <clipPath id="pf3e08f5b3e">
   <rect height="444.6288" width="852.624" x="137.52" y="69.2928"/>
  </clipPath>
 </defs>
</svg>
