<?xml version="1.0" encoding="utf-8" standalone="no"?>
<!DOCTYPE svg PUBLIC "-//W3C//DTD SVG 1.1//EN"
  "http://www.w3.org/Graphics/SVG/1.1/DTD/svg11.dtd">
<!-- Created with matplotlib (https://matplotlib.org/) -->
<svg height="360pt" version="1.1" viewBox="0 0 1440 360" width="1440pt" xmlns="http://www.w3.org/2000/svg" xmlns:xlink="http://www.w3.org/1999/xlink">
 <defs>
  <style type="text/css">
*{stroke-linecap:butt;stroke-linejoin:round;}
  </style>
 </defs>
 <g id="figure_1">
  <g id="patch_1">
   <path d="M 0 360 
L 1440 360 
L 1440 0 
L 0 0 
z
" style="fill:#ffffff;"/>
  </g>
  <g id="axes_1">
   <g id="patch_2">
    <path d="M 180 320.4 
L 1296 320.4 
L 1296 43.2 
L 180 43.2 
z
" style="fill:#ffffff;"/>
   </g>
   <g id="matplotlib.axis_1">
    <g id="xtick_1">
     <g id="line2d_1">
      <defs>
       <path d="M 0 0 
L 0 3.5 
" id="m6ead60038d" style="stroke:#000000;stroke-width:0.8;"/>
      </defs>
      <g>
       <use style="stroke:#000000;stroke-width:0.8;" x="230.727273" xlink:href="#m6ead60038d" y="320.4"/>
      </g>
     </g>
     <g id="text_1">
      <!-- 0 -->
      <defs>
       <path d="M 31.78125 66.40625 
Q 24.171875 66.40625 20.328125 58.90625 
Q 16.5 51.421875 16.5 36.375 
Q 16.5 21.390625 20.328125 13.890625 
Q 24.171875 6.390625 31.78125 6.390625 
Q 39.453125 6.390625 43.28125 13.890625 
Q 47.125 21.390625 47.125 36.375 
Q 47.125 51.421875 43.28125 58.90625 
Q 39.453125 66.40625 31.78125 66.40625 
z
M 31.78125 74.21875 
Q 44.046875 74.21875 50.515625 64.515625 
Q 56.984375 54.828125 56.984375 36.375 
Q 56.984375 17.96875 50.515625 8.265625 
Q 44.046875 -1.421875 31.78125 -1.421875 
Q 19.53125 -1.421875 13.0625 8.265625 
Q 6.59375 17.96875 6.59375 36.375 
Q 6.59375 54.828125 13.0625 64.515625 
Q 19.53125 74.21875 31.78125 74.21875 
z
" id="DejaVuSans-48"/>
      </defs>
      <g transform="translate(227.546023 334.998438)scale(0.1 -0.1)">
       <use xlink:href="#DejaVuSans-48"/>
      </g>
     </g>
    </g>
    <g id="xtick_2">
     <g id="line2d_2">
      <g>
       <use style="stroke:#000000;stroke-width:0.8;" x="375.869684" xlink:href="#m6ead60038d" y="320.4"/>
      </g>
     </g>
     <g id="text_2">
      <!-- 100 -->
      <defs>
       <path d="M 12.40625 8.296875 
L 28.515625 8.296875 
L 28.515625 63.921875 
L 10.984375 60.40625 
L 10.984375 69.390625 
L 28.421875 72.90625 
L 38.28125 72.90625 
L 38.28125 8.296875 
L 54.390625 8.296875 
L 54.390625 0 
L 12.40625 0 
z
" id="DejaVuSans-49"/>
      </defs>
      <g transform="translate(366.325934 334.998438)scale(0.1 -0.1)">
       <use xlink:href="#DejaVuSans-49"/>
       <use x="63.623047" xlink:href="#DejaVuSans-48"/>
       <use x="127.246094" xlink:href="#DejaVuSans-48"/>
      </g>
     </g>
    </g>
    <g id="xtick_3">
     <g id="line2d_3">
      <g>
       <use style="stroke:#000000;stroke-width:0.8;" x="521.012095" xlink:href="#m6ead60038d" y="320.4"/>
      </g>
     </g>
     <g id="text_3">
      <!-- 200 -->
      <defs>
       <path d="M 19.1875 8.296875 
L 53.609375 8.296875 
L 53.609375 0 
L 7.328125 0 
L 7.328125 8.296875 
Q 12.9375 14.109375 22.625 23.890625 
Q 32.328125 33.6875 34.8125 36.53125 
Q 39.546875 41.84375 41.421875 45.53125 
Q 43.3125 49.21875 43.3125 52.78125 
Q 43.3125 58.59375 39.234375 62.25 
Q 35.15625 65.921875 28.609375 65.921875 
Q 23.96875 65.921875 18.8125 64.3125 
Q 13.671875 62.703125 7.8125 59.421875 
L 7.8125 69.390625 
Q 13.765625 71.78125 18.9375 73 
Q 24.125 74.21875 28.421875 74.21875 
Q 39.75 74.21875 46.484375 68.546875 
Q 53.21875 62.890625 53.21875 53.421875 
Q 53.21875 48.921875 51.53125 44.890625 
Q 49.859375 40.875 45.40625 35.40625 
Q 44.1875 33.984375 37.640625 27.21875 
Q 31.109375 20.453125 19.1875 8.296875 
z
" id="DejaVuSans-50"/>
      </defs>
      <g transform="translate(511.468345 334.998438)scale(0.1 -0.1)">
       <use xlink:href="#DejaVuSans-50"/>
       <use x="63.623047" xlink:href="#DejaVuSans-48"/>
       <use x="127.246094" xlink:href="#DejaVuSans-48"/>
      </g>
     </g>
    </g>
    <g id="xtick_4">
     <g id="line2d_4">
      <g>
       <use style="stroke:#000000;stroke-width:0.8;" x="666.154506" xlink:href="#m6ead60038d" y="320.4"/>
      </g>
     </g>
     <g id="text_4">
      <!-- 300 -->
      <defs>
       <path d="M 40.578125 39.3125 
Q 47.65625 37.796875 51.625 33 
Q 55.609375 28.21875 55.609375 21.1875 
Q 55.609375 10.40625 48.1875 4.484375 
Q 40.765625 -1.421875 27.09375 -1.421875 
Q 22.515625 -1.421875 17.65625 -0.515625 
Q 12.796875 0.390625 7.625 2.203125 
L 7.625 11.71875 
Q 11.71875 9.328125 16.59375 8.109375 
Q 21.484375 6.890625 26.8125 6.890625 
Q 36.078125 6.890625 40.9375 10.546875 
Q 45.796875 14.203125 45.796875 21.1875 
Q 45.796875 27.640625 41.28125 31.265625 
Q 36.765625 34.90625 28.71875 34.90625 
L 20.21875 34.90625 
L 20.21875 43.015625 
L 29.109375 43.015625 
Q 36.375 43.015625 40.234375 45.921875 
Q 44.09375 48.828125 44.09375 54.296875 
Q 44.09375 59.90625 40.109375 62.90625 
Q 36.140625 65.921875 28.71875 65.921875 
Q 24.65625 65.921875 20.015625 65.03125 
Q 15.375 64.15625 9.8125 62.3125 
L 9.8125 71.09375 
Q 15.4375 72.65625 20.34375 73.4375 
Q 25.25 74.21875 29.59375 74.21875 
Q 40.828125 74.21875 47.359375 69.109375 
Q 53.90625 64.015625 53.90625 55.328125 
Q 53.90625 49.265625 50.4375 45.09375 
Q 46.96875 40.921875 40.578125 39.3125 
z
" id="DejaVuSans-51"/>
      </defs>
      <g transform="translate(656.610756 334.998438)scale(0.1 -0.1)">
       <use xlink:href="#DejaVuSans-51"/>
       <use x="63.623047" xlink:href="#DejaVuSans-48"/>
       <use x="127.246094" xlink:href="#DejaVuSans-48"/>
      </g>
     </g>
    </g>
    <g id="xtick_5">
     <g id="line2d_5">
      <g>
       <use style="stroke:#000000;stroke-width:0.8;" x="811.296918" xlink:href="#m6ead60038d" y="320.4"/>
      </g>
     </g>
     <g id="text_5">
      <!-- 400 -->
      <defs>
       <path d="M 37.796875 64.3125 
L 12.890625 25.390625 
L 37.796875 25.390625 
z
M 35.203125 72.90625 
L 47.609375 72.90625 
L 47.609375 25.390625 
L 58.015625 25.390625 
L 58.015625 17.1875 
L 47.609375 17.1875 
L 47.609375 0 
L 37.796875 0 
L 37.796875 17.1875 
L 4.890625 17.1875 
L 4.890625 26.703125 
z
" id="DejaVuSans-52"/>
      </defs>
      <g transform="translate(801.753168 334.998438)scale(0.1 -0.1)">
       <use xlink:href="#DejaVuSans-52"/>
       <use x="63.623047" xlink:href="#DejaVuSans-48"/>
       <use x="127.246094" xlink:href="#DejaVuSans-48"/>
      </g>
     </g>
    </g>
    <g id="xtick_6">
     <g id="line2d_6">
      <g>
       <use style="stroke:#000000;stroke-width:0.8;" x="956.439329" xlink:href="#m6ead60038d" y="320.4"/>
      </g>
     </g>
     <g id="text_6">
      <!-- 500 -->
      <defs>
       <path d="M 10.796875 72.90625 
L 49.515625 72.90625 
L 49.515625 64.59375 
L 19.828125 64.59375 
L 19.828125 46.734375 
Q 21.96875 47.46875 24.109375 47.828125 
Q 26.265625 48.1875 28.421875 48.1875 
Q 40.625 48.1875 47.75 41.5 
Q 54.890625 34.8125 54.890625 23.390625 
Q 54.890625 11.625 47.5625 5.09375 
Q 40.234375 -1.421875 26.90625 -1.421875 
Q 22.3125 -1.421875 17.546875 -0.640625 
Q 12.796875 0.140625 7.71875 1.703125 
L 7.71875 11.625 
Q 12.109375 9.234375 16.796875 8.0625 
Q 21.484375 6.890625 26.703125 6.890625 
Q 35.15625 6.890625 40.078125 11.328125 
Q 45.015625 15.765625 45.015625 23.390625 
Q 45.015625 31 40.078125 35.4375 
Q 35.15625 39.890625 26.703125 39.890625 
Q 22.75 39.890625 18.8125 39.015625 
Q 14.890625 38.140625 10.796875 36.28125 
z
" id="DejaVuSans-53"/>
      </defs>
      <g transform="translate(946.895579 334.998438)scale(0.1 -0.1)">
       <use xlink:href="#DejaVuSans-53"/>
       <use x="63.623047" xlink:href="#DejaVuSans-48"/>
       <use x="127.246094" xlink:href="#DejaVuSans-48"/>
      </g>
     </g>
    </g>
    <g id="xtick_7">
     <g id="line2d_7">
      <g>
       <use style="stroke:#000000;stroke-width:0.8;" x="1101.58174" xlink:href="#m6ead60038d" y="320.4"/>
      </g>
     </g>
     <g id="text_7">
      <!-- 600 -->
      <defs>
       <path d="M 33.015625 40.375 
Q 26.375 40.375 22.484375 35.828125 
Q 18.609375 31.296875 18.609375 23.390625 
Q 18.609375 15.53125 22.484375 10.953125 
Q 26.375 6.390625 33.015625 6.390625 
Q 39.65625 6.390625 43.53125 10.953125 
Q 47.40625 15.53125 47.40625 23.390625 
Q 47.40625 31.296875 43.53125 35.828125 
Q 39.65625 40.375 33.015625 40.375 
z
M 52.59375 71.296875 
L 52.59375 62.3125 
Q 48.875 64.0625 45.09375 64.984375 
Q 41.3125 65.921875 37.59375 65.921875 
Q 27.828125 65.921875 22.671875 59.328125 
Q 17.53125 52.734375 16.796875 39.40625 
Q 19.671875 43.65625 24.015625 45.921875 
Q 28.375 48.1875 33.59375 48.1875 
Q 44.578125 48.1875 50.953125 41.515625 
Q 57.328125 34.859375 57.328125 23.390625 
Q 57.328125 12.15625 50.6875 5.359375 
Q 44.046875 -1.421875 33.015625 -1.421875 
Q 20.359375 -1.421875 13.671875 8.265625 
Q 6.984375 17.96875 6.984375 36.375 
Q 6.984375 53.65625 15.1875 63.9375 
Q 23.390625 74.21875 37.203125 74.21875 
Q 40.921875 74.21875 44.703125 73.484375 
Q 48.484375 72.75 52.59375 71.296875 
z
" id="DejaVuSans-54"/>
      </defs>
      <g transform="translate(1092.03799 334.998438)scale(0.1 -0.1)">
       <use xlink:href="#DejaVuSans-54"/>
       <use x="63.623047" xlink:href="#DejaVuSans-48"/>
       <use x="127.246094" xlink:href="#DejaVuSans-48"/>
      </g>
     </g>
    </g>
    <g id="xtick_8">
     <g id="line2d_8">
      <g>
       <use style="stroke:#000000;stroke-width:0.8;" x="1246.724151" xlink:href="#m6ead60038d" y="320.4"/>
      </g>
     </g>
     <g id="text_8">
      <!-- 700 -->
      <defs>
       <path d="M 8.203125 72.90625 
L 55.078125 72.90625 
L 55.078125 68.703125 
L 28.609375 0 
L 18.3125 0 
L 43.21875 64.59375 
L 8.203125 64.59375 
z
" id="DejaVuSans-55"/>
      </defs>
      <g transform="translate(1237.180401 334.998438)scale(0.1 -0.1)">
       <use xlink:href="#DejaVuSans-55"/>
       <use x="63.623047" xlink:href="#DejaVuSans-48"/>
       <use x="127.246094" xlink:href="#DejaVuSans-48"/>
      </g>
     </g>
    </g>
   </g>
   <g id="matplotlib.axis_2">
    <g id="ytick_1">
     <g id="line2d_9">
      <defs>
       <path d="M 0 0 
L -3.5 0 
" id="m84adc6d363" style="stroke:#000000;stroke-width:0.8;"/>
      </defs>
      <g>
       <use style="stroke:#000000;stroke-width:0.8;" x="180" xlink:href="#m84adc6d363" y="307.8"/>
      </g>
     </g>
     <g id="text_9">
      <!-- 0 -->
      <g transform="translate(166.6375 311.599219)scale(0.1 -0.1)">
       <use xlink:href="#DejaVuSans-48"/>
      </g>
     </g>
    </g>
    <g id="ytick_2">
     <g id="line2d_10">
      <g>
       <use style="stroke:#000000;stroke-width:0.8;" x="180" xlink:href="#m84adc6d363" y="276.879755"/>
      </g>
     </g>
     <g id="text_10">
      <!-- 20 -->
      <g transform="translate(160.275 280.678973)scale(0.1 -0.1)">
       <use xlink:href="#DejaVuSans-50"/>
       <use x="63.623047" xlink:href="#DejaVuSans-48"/>
      </g>
     </g>
    </g>
    <g id="ytick_3">
     <g id="line2d_11">
      <g>
       <use style="stroke:#000000;stroke-width:0.8;" x="180" xlink:href="#m84adc6d363" y="245.959509"/>
      </g>
     </g>
     <g id="text_11">
      <!-- 40 -->
      <g transform="translate(160.275 249.758728)scale(0.1 -0.1)">
       <use xlink:href="#DejaVuSans-52"/>
       <use x="63.623047" xlink:href="#DejaVuSans-48"/>
      </g>
     </g>
    </g>
    <g id="ytick_4">
     <g id="line2d_12">
      <g>
       <use style="stroke:#000000;stroke-width:0.8;" x="180" xlink:href="#m84adc6d363" y="215.039264"/>
      </g>
     </g>
     <g id="text_12">
      <!-- 60 -->
      <g transform="translate(160.275 218.838483)scale(0.1 -0.1)">
       <use xlink:href="#DejaVuSans-54"/>
       <use x="63.623047" xlink:href="#DejaVuSans-48"/>
      </g>
     </g>
    </g>
    <g id="ytick_5">
     <g id="line2d_13">
      <g>
       <use style="stroke:#000000;stroke-width:0.8;" x="180" xlink:href="#m84adc6d363" y="184.119018"/>
      </g>
     </g>
     <g id="text_13">
      <!-- 80 -->
      <defs>
       <path d="M 31.78125 34.625 
Q 24.75 34.625 20.71875 30.859375 
Q 16.703125 27.09375 16.703125 20.515625 
Q 16.703125 13.921875 20.71875 10.15625 
Q 24.75 6.390625 31.78125 6.390625 
Q 38.8125 6.390625 42.859375 10.171875 
Q 46.921875 13.96875 46.921875 20.515625 
Q 46.921875 27.09375 42.890625 30.859375 
Q 38.875 34.625 31.78125 34.625 
z
M 21.921875 38.8125 
Q 15.578125 40.375 12.03125 44.71875 
Q 8.5 49.078125 8.5 55.328125 
Q 8.5 64.0625 14.71875 69.140625 
Q 20.953125 74.21875 31.78125 74.21875 
Q 42.671875 74.21875 48.875 69.140625 
Q 55.078125 64.0625 55.078125 55.328125 
Q 55.078125 49.078125 51.53125 44.71875 
Q 48 40.375 41.703125 38.8125 
Q 48.828125 37.15625 52.796875 32.3125 
Q 56.78125 27.484375 56.78125 20.515625 
Q 56.78125 9.90625 50.3125 4.234375 
Q 43.84375 -1.421875 31.78125 -1.421875 
Q 19.734375 -1.421875 13.25 4.234375 
Q 6.78125 9.90625 6.78125 20.515625 
Q 6.78125 27.484375 10.78125 32.3125 
Q 14.796875 37.15625 21.921875 38.8125 
z
M 18.3125 54.390625 
Q 18.3125 48.734375 21.84375 45.5625 
Q 25.390625 42.390625 31.78125 42.390625 
Q 38.140625 42.390625 41.71875 45.5625 
Q 45.3125 48.734375 45.3125 54.390625 
Q 45.3125 60.0625 41.71875 63.234375 
Q 38.140625 66.40625 31.78125 66.40625 
Q 25.390625 66.40625 21.84375 63.234375 
Q 18.3125 60.0625 18.3125 54.390625 
z
" id="DejaVuSans-56"/>
      </defs>
      <g transform="translate(160.275 187.918237)scale(0.1 -0.1)">
       <use xlink:href="#DejaVuSans-56"/>
       <use x="63.623047" xlink:href="#DejaVuSans-48"/>
      </g>
     </g>
    </g>
    <g id="ytick_6">
     <g id="line2d_14">
      <g>
       <use style="stroke:#000000;stroke-width:0.8;" x="180" xlink:href="#m84adc6d363" y="153.198773"/>
      </g>
     </g>
     <g id="text_14">
      <!-- 100 -->
      <g transform="translate(153.9125 156.997992)scale(0.1 -0.1)">
       <use xlink:href="#DejaVuSans-49"/>
       <use x="63.623047" xlink:href="#DejaVuSans-48"/>
       <use x="127.246094" xlink:href="#DejaVuSans-48"/>
      </g>
     </g>
    </g>
    <g id="ytick_7">
     <g id="line2d_15">
      <g>
       <use style="stroke:#000000;stroke-width:0.8;" x="180" xlink:href="#m84adc6d363" y="122.278528"/>
      </g>
     </g>
     <g id="text_15">
      <!-- 120 -->
      <g transform="translate(153.9125 126.077746)scale(0.1 -0.1)">
       <use xlink:href="#DejaVuSans-49"/>
       <use x="63.623047" xlink:href="#DejaVuSans-50"/>
       <use x="127.246094" xlink:href="#DejaVuSans-48"/>
      </g>
     </g>
    </g>
    <g id="ytick_8">
     <g id="line2d_16">
      <g>
       <use style="stroke:#000000;stroke-width:0.8;" x="180" xlink:href="#m84adc6d363" y="91.358282"/>
      </g>
     </g>
     <g id="text_16">
      <!-- 140 -->
      <g transform="translate(153.9125 95.157501)scale(0.1 -0.1)">
       <use xlink:href="#DejaVuSans-49"/>
       <use x="63.623047" xlink:href="#DejaVuSans-52"/>
       <use x="127.246094" xlink:href="#DejaVuSans-48"/>
      </g>
     </g>
    </g>
    <g id="ytick_9">
     <g id="line2d_17">
      <g>
       <use style="stroke:#000000;stroke-width:0.8;" x="180" xlink:href="#m84adc6d363" y="60.438037"/>
      </g>
     </g>
     <g id="text_17">
      <!-- 160 -->
      <g transform="translate(153.9125 64.237256)scale(0.1 -0.1)">
       <use xlink:href="#DejaVuSans-49"/>
       <use x="63.623047" xlink:href="#DejaVuSans-54"/>
       <use x="127.246094" xlink:href="#DejaVuSans-48"/>
      </g>
     </g>
    </g>
   </g>
   <g id="line2d_18">
    <path clip-path="url(#ped19c81dd7)" d="M 230.727273 159.382822 
L 232.178697 162.474847 
L 233.630121 204.217178 
L 235.081545 300.069939 
L 236.532969 167.112883 
L 237.984393 165.566871 
L 239.435817 225.86135 
L 240.887242 300.069939 
L 242.338666 290.793865 
L 243.79009 300.069939 
L 245.241514 201.125153 
L 246.692938 171.75092 
L 248.144362 228.953374 
L 251.04721 142.376687 
L 252.498634 222.769325 
L 253.950059 177.934969 
L 255.401483 216.585276 
L 256.852907 303.161963 
L 258.304331 194.941104 
L 259.755755 215.039264 
L 261.207179 179.480982 
L 262.658603 207.309202 
L 264.110027 164.020859 
L 265.561451 201.125153 
L 267.012876 293.88589 
L 268.4643 287.70184 
L 269.915724 278.425767 
L 271.367148 142.376687 
L 272.818572 213.493252 
L 274.269996 167.112883 
L 275.72142 215.039264 
L 277.172844 171.75092 
L 278.624268 159.382822 
L 280.075693 228.953374 
L 281.527117 164.020859 
L 282.978541 210.401227 
L 284.429965 153.198773 
L 285.881389 221.223313 
L 287.332813 190.303067 
L 288.784237 216.585276 
L 290.235661 293.88589 
L 291.687085 307.8 
L 293.13851 174.842945 
L 294.589934 207.309202 
L 296.041358 179.480982 
L 297.492782 215.039264 
L 298.944206 303.161963 
L 300.39563 303.161963 
L 301.847054 191.84908 
L 303.298478 204.217178 
L 304.749902 165.566871 
L 306.201327 216.585276 
L 307.652751 160.928834 
L 309.104175 228.953374 
L 310.555599 198.033129 
L 312.007023 227.407362 
L 313.458447 307.8 
L 314.909871 307.8 
L 316.361295 184.119018 
L 317.812719 213.493252 
L 319.264144 184.119018 
L 320.715568 218.131288 
L 322.166992 307.8 
L 323.618416 307.8 
L 325.06984 194.941104 
L 326.521264 210.401227 
L 327.972688 170.204908 
L 329.424112 218.131288 
L 330.875536 162.474847 
L 332.326961 230.499387 
L 333.778385 201.125153 
L 335.229809 228.953374 
L 336.681233 303.161963 
L 338.132657 307.8 
L 339.584081 176.388957 
L 341.035505 211.947239 
L 342.486929 179.480982 
L 343.938353 236.683436 
L 345.389778 196.487117 
L 346.841202 232.045399 
L 348.292626 173.296933 
L 349.74405 218.131288 
L 351.195474 160.928834 
L 352.646898 228.953374 
L 354.098322 194.941104 
L 355.549746 225.86135 
L 357.001171 301.615951 
L 358.452595 307.8 
L 359.904019 181.026994 
L 361.355443 210.401227 
L 362.806867 176.388957 
L 364.258291 232.045399 
L 365.709715 188.757055 
L 367.161139 227.407362 
L 368.612563 167.112883 
L 370.063988 216.585276 
L 371.515412 157.83681 
L 372.966836 222.769325 
L 374.41826 188.757055 
L 375.869684 218.131288 
L 377.321108 293.88589 
L 378.772532 307.8 
L 380.223956 173.296933 
L 381.67538 204.217178 
L 383.126805 176.388957 
L 384.578229 208.855215 
L 386.029653 301.615951 
L 387.481077 293.88589 
L 388.932501 179.480982 
L 390.383925 198.033129 
L 391.835349 160.928834 
L 393.286773 210.401227 
L 394.738197 153.198773 
L 396.189622 218.131288 
L 397.641046 188.757055 
L 399.09247 215.039264 
L 400.543894 292.339877 
L 401.995318 307.8 
L 403.446742 171.75092 
L 404.898166 198.033129 
L 406.34959 171.75092 
L 407.801014 204.217178 
L 409.252439 300.069939 
L 410.703863 293.88589 
L 412.155287 177.934969 
L 413.606711 198.033129 
L 415.058135 160.928834 
L 416.509559 215.039264 
L 417.960983 184.119018 
L 419.412407 216.585276 
L 420.863831 153.198773 
L 422.315256 153.198773 
L 423.76668 233.591411 
L 425.218104 177.934969 
L 426.669528 228.953374 
L 428.120952 176.388957 
L 429.572376 221.223313 
L 431.0238 176.388957 
L 432.475224 164.020859 
L 433.926648 232.045399 
L 435.378073 170.204908 
L 436.829497 218.131288 
L 438.280921 159.382822 
L 439.732345 227.407362 
L 441.183769 196.487117 
L 442.635193 222.769325 
L 444.086617 296.977914 
L 445.538041 307.8 
L 446.989465 184.119018 
L 448.44089 215.039264 
L 449.892314 185.665031 
L 451.343738 219.677301 
L 452.795162 307.8 
L 454.246586 307.8 
L 455.69801 194.941104 
L 457.149434 207.309202 
L 458.600858 170.204908 
L 460.052282 219.677301 
L 461.503707 160.928834 
L 462.955131 228.953374 
L 464.406555 196.487117 
L 465.857979 228.953374 
L 467.309403 301.615951 
L 468.760827 307.8 
L 470.212251 187.211043 
L 471.663675 216.585276 
L 473.115099 181.026994 
L 474.566524 236.683436 
L 476.017948 191.84908 
L 477.469372 232.045399 
L 478.920796 176.388957 
L 480.37222 222.769325 
L 481.823644 164.020859 
L 483.275068 233.591411 
L 484.726492 199.579141 
L 486.177917 228.953374 
L 487.629341 307.8 
L 489.080765 307.8 
L 490.532189 177.934969 
L 491.983613 215.039264 
L 493.435037 187.211043 
L 494.886461 239.77546 
L 496.337885 196.487117 
L 497.789309 232.045399 
L 499.240734 171.75092 
L 500.692158 222.769325 
L 502.143582 164.020859 
L 503.595006 233.591411 
L 505.04643 201.125153 
L 506.497854 227.407362 
L 507.949278 301.615951 
L 509.400702 307.8 
L 510.852126 179.480982 
L 512.303551 210.401227 
L 513.754975 185.665031 
L 515.206399 225.86135 
L 516.657823 307.8 
L 518.109247 304.707975 
L 519.560671 190.303067 
L 521.012095 207.309202 
L 522.463519 170.204908 
L 523.914943 219.677301 
L 525.366368 165.566871 
L 526.817792 232.045399 
L 528.269216 199.579141 
L 529.72064 225.86135 
L 531.172064 301.615951 
L 532.623488 307.8 
L 534.074912 184.119018 
L 535.526336 210.401227 
L 536.97776 187.211043 
L 538.429185 219.677301 
L 539.880609 307.8 
L 541.332033 306.253988 
L 542.783457 188.757055 
L 544.234881 205.76319 
L 545.686305 167.112883 
L 547.137729 224.315337 
L 548.589153 194.941104 
L 550.040577 232.045399 
L 551.492002 164.020859 
L 552.943426 162.474847 
L 554.39485 241.321472 
L 555.846274 187.211043 
L 557.297698 235.137423 
L 558.749122 185.665031 
L 560.200546 233.591411 
L 561.65197 187.211043 
L 563.103394 173.296933 
L 564.554819 236.683436 
L 566.006243 176.388957 
L 567.457667 222.769325 
L 568.909091 168.658896 
L 570.360515 235.137423 
L 571.811939 204.217178 
L 573.263363 230.499387 
L 574.714787 303.161963 
L 576.166211 307.8 
L 577.617636 185.665031 
L 579.06906 218.131288 
L 580.520484 185.665031 
L 581.971908 241.321472 
L 583.423332 201.125153 
L 584.874756 235.137423 
L 586.32618 174.842945 
L 587.777604 222.769325 
L 589.229028 165.566871 
L 590.680453 235.137423 
L 592.131877 201.125153 
L 593.583301 232.045399 
L 595.034725 306.253988 
L 596.486149 307.8 
L 597.937573 184.119018 
L 599.388997 215.039264 
L 600.840421 184.119018 
L 602.291845 241.321472 
L 603.74327 199.579141 
L 605.194694 238.229448 
L 606.646118 176.388957 
L 608.097542 221.223313 
L 609.548966 164.020859 
L 611.00039 230.499387 
L 612.451814 201.125153 
L 613.903238 228.953374 
L 615.354663 307.8 
L 616.806087 307.8 
L 618.257511 184.119018 
L 619.708935 215.039264 
L 621.160359 184.119018 
L 622.611783 239.77546 
L 624.063207 196.487117 
L 625.514631 235.137423 
L 626.966055 176.388957 
L 628.41748 222.769325 
L 629.868904 164.020859 
L 631.320328 232.045399 
L 632.771752 196.487117 
L 634.223176 227.407362 
L 635.6746 303.161963 
L 637.126024 307.8 
L 638.577448 185.665031 
L 640.028872 213.493252 
L 641.480297 185.665031 
L 642.931721 219.677301 
L 644.383145 307.8 
L 645.834569 306.253988 
L 647.285993 190.303067 
L 648.737417 210.401227 
L 650.188841 170.204908 
L 651.640265 225.86135 
L 653.091689 194.941104 
L 654.543114 227.407362 
L 655.994538 164.020859 
L 657.445962 164.020859 
L 658.897386 244.413497 
L 660.34881 190.303067 
L 661.800234 236.683436 
L 663.251658 182.573006 
L 664.703082 233.591411 
L 666.154506 185.665031 
L 667.605931 176.388957 
L 669.057355 239.77546 
L 670.508779 176.388957 
L 671.960203 225.86135 
L 673.411627 167.112883 
L 674.863051 235.137423 
L 676.314475 201.125153 
L 677.765899 228.953374 
L 679.217323 301.615951 
L 680.668748 307.8 
L 682.120172 184.119018 
L 683.571596 216.585276 
L 685.02302 184.119018 
L 686.474444 238.229448 
L 687.925868 194.941104 
L 689.377292 232.045399 
L 690.828716 173.296933 
L 692.28014 225.86135 
L 693.731565 167.112883 
L 695.182989 233.591411 
L 696.634413 199.579141 
L 698.085837 225.86135 
L 699.537261 300.069939 
L 700.988685 307.8 
L 702.440109 184.119018 
L 703.891533 215.039264 
L 705.342957 184.119018 
L 706.794382 238.229448 
L 708.245806 193.395092 
L 709.69723 232.045399 
L 711.148654 173.296933 
L 712.600078 219.677301 
L 714.051502 162.474847 
L 715.502926 232.045399 
L 716.95435 201.125153 
L 718.405774 225.86135 
L 719.857199 301.615951 
L 721.308623 307.8 
L 722.760047 176.388957 
L 724.211471 211.947239 
L 725.662895 182.573006 
L 727.114319 239.77546 
L 728.565743 194.941104 
L 730.017167 232.045399 
L 731.468591 171.75092 
L 732.920016 225.86135 
L 734.37144 191.84908 
L 735.822864 228.953374 
L 737.274288 165.566871 
L 738.725712 165.566871 
L 740.177136 244.413497 
L 741.62856 187.211043 
L 743.079984 235.137423 
L 744.531409 182.573006 
L 745.982833 233.591411 
L 747.434257 185.665031 
L 748.885681 179.480982 
L 750.337105 242.867485 
L 751.788529 177.934969 
L 753.239953 225.86135 
L 754.691377 167.112883 
L 756.142801 235.137423 
L 757.594226 204.217178 
L 759.04565 235.137423 
L 760.497074 307.8 
L 761.948498 307.8 
L 763.399922 188.757055 
L 764.851346 219.677301 
L 766.30277 185.665031 
L 767.754194 244.413497 
L 769.205618 201.125153 
L 770.657043 241.321472 
L 772.108467 182.573006 
L 773.559891 227.407362 
L 775.011315 170.204908 
L 776.462739 238.229448 
L 777.914163 204.217178 
L 779.365587 233.591411 
L 780.817011 307.8 
L 782.268435 307.8 
L 783.71986 191.84908 
L 785.171284 221.223313 
L 786.622708 187.211043 
L 788.074132 242.867485 
L 789.525556 201.125153 
L 790.97698 235.137423 
L 792.428404 179.480982 
L 793.879828 232.045399 
L 795.331252 202.671166 
L 796.782677 232.045399 
L 798.234101 170.204908 
L 799.685525 167.112883 
L 801.136949 247.505521 
L 802.588373 191.84908 
L 804.039797 241.321472 
L 805.491221 191.84908 
L 806.942645 238.229448 
L 808.394069 187.211043 
L 809.845494 176.388957 
L 811.296918 242.867485 
L 812.748342 177.934969 
L 814.199766 227.407362 
L 815.65119 167.112883 
L 817.102614 236.683436 
L 818.554038 204.217178 
L 820.005462 232.045399 
L 821.456886 301.615951 
L 822.908311 307.8 
L 824.359735 184.119018 
L 825.811159 215.039264 
L 827.262583 185.665031 
L 828.714007 239.77546 
L 830.165431 194.941104 
L 831.616855 230.499387 
L 833.068279 170.204908 
L 834.519703 221.223313 
L 835.971128 190.303067 
L 837.422552 225.86135 
L 838.873976 162.474847 
L 840.3254 160.928834 
L 841.776824 238.229448 
L 843.228248 182.573006 
L 844.679672 228.953374 
L 846.131096 190.303067 
L 847.58252 244.413497 
L 849.033945 198.033129 
L 850.485369 227.407362 
L 851.936793 289.247853 
L 853.388217 307.8 
L 854.839641 306.253988 
L 856.291065 208.855215 
L 857.742489 170.204908 
L 859.193913 233.591411 
L 860.645337 185.665031 
L 862.096762 221.223313 
L 863.548186 174.842945 
L 864.99961 225.86135 
L 866.451034 177.934969 
L 867.902458 219.677301 
L 869.353882 181.026994 
L 870.805306 198.033129 
L 872.25673 286.155828 
L 873.708155 287.70184 
L 875.159579 286.155828 
L 876.611003 287.70184 
L 878.062427 281.517791 
L 879.513851 267.603681 
L 880.965275 139.284663 
L 882.416699 210.401227 
L 883.868123 165.566871 
L 885.319547 208.855215 
L 886.770972 167.112883 
L 888.222396 219.677301 
L 889.67382 173.296933 
L 891.125244 198.033129 
L 892.576668 284.609816 
L 894.028092 286.155828 
L 895.479516 281.517791 
L 896.93094 273.78773 
L 898.382364 143.922699 
L 899.833789 208.855215 
L 901.285213 181.026994 
L 902.736637 213.493252 
L 904.188061 287.70184 
L 905.639485 167.112883 
L 907.090909 136.192638 
L 908.542333 147.014724 
L 909.993757 216.585276 
L 911.445181 307.8 
L 912.896606 205.76319 
L 914.34803 227.407362 
L 915.799454 190.303067 
L 917.250878 204.217178 
L 918.702302 293.88589 
L 920.153726 293.88589 
L 921.60515 290.793865 
L 923.056574 286.155828 
L 924.507998 272.241718 
L 925.959423 139.284663 
L 927.410847 207.309202 
L 928.862271 293.88589 
L 930.313695 153.198773 
L 931.765119 219.677301 
L 933.216543 300.069939 
L 934.667967 187.211043 
L 936.119391 184.119018 
L 937.570815 286.155828 
L 939.02224 199.579141 
L 940.473664 235.137423 
L 941.925088 193.395092 
L 943.376512 225.86135 
L 944.827936 168.658896 
L 946.27936 216.585276 
L 947.730784 176.388957 
L 949.182208 221.223313 
L 950.633632 179.480982 
L 952.085057 215.039264 
L 953.536481 182.573006 
L 954.987905 221.223313 
L 956.439329 301.615951 
L 957.890753 173.296933 
L 959.342177 224.315337 
L 960.793601 184.119018 
L 962.245025 162.474847 
L 963.696449 241.321472 
L 965.147874 202.671166 
L 966.599298 233.591411 
L 968.050722 188.757055 
L 969.502146 219.677301 
L 970.95357 292.339877 
L 972.404994 208.855215 
L 973.856418 221.223313 
L 975.307842 179.480982 
L 976.759266 222.769325 
L 978.210691 307.8 
L 979.662115 176.388957 
L 981.113539 204.217178 
L 982.564963 296.977914 
L 984.016387 159.382822 
L 985.467811 216.585276 
L 986.919235 303.161963 
L 988.370659 157.83681 
L 989.822083 211.947239 
L 991.273508 306.253988 
L 992.724932 306.253988 
L 994.176356 196.487117 
L 995.62778 228.953374 
L 997.079204 191.84908 
L 998.530628 168.658896 
L 999.982052 222.769325 
L 1001.433476 295.431902 
L 1002.884901 168.658896 
L 1004.336325 218.131288 
L 1005.787749 304.707975 
L 1007.239173 190.303067 
L 1008.690597 66.622086 
L 1010.142021 160.928834 
L 1011.593445 235.137423 
L 1013.044869 191.84908 
L 1014.496293 224.315337 
L 1015.947718 307.8 
L 1017.399142 179.480982 
L 1018.850566 194.941104 
L 1020.30199 304.707975 
L 1021.753414 173.296933 
L 1023.204838 227.407362 
L 1024.656262 190.303067 
L 1026.107686 232.045399 
L 1027.55911 182.573006 
L 1029.010535 222.769325 
L 1030.461959 295.431902 
L 1031.913383 201.125153 
L 1033.364807 215.039264 
L 1034.816231 165.566871 
L 1036.267655 176.388957 
L 1037.719079 232.045399 
L 1039.170503 307.8 
L 1040.621927 173.296933 
L 1042.073352 219.677301 
L 1043.524776 176.388957 
L 1044.9762 219.677301 
L 1046.427624 303.161963 
L 1047.879048 198.033129 
L 1049.330472 190.303067 
L 1050.781896 287.70184 
L 1052.23332 184.119018 
L 1053.684744 216.585276 
L 1055.136169 301.615951 
L 1056.587593 165.566871 
L 1058.039017 211.947239 
L 1059.490441 307.8 
L 1060.941865 196.487117 
L 1062.393289 227.407362 
L 1063.844713 188.757055 
L 1065.296137 208.855215 
L 1066.747561 300.069939 
L 1068.198986 298.523926 
L 1069.65041 290.793865 
L 1072.553258 290.793865 
L 1074.004682 283.063804 
L 1075.456106 154.744785 
L 1076.90753 225.86135 
L 1078.358954 181.026994 
L 1079.810378 218.131288 
L 1081.261803 293.88589 
L 1082.713227 153.198773 
L 1084.164651 204.217178 
L 1085.616075 300.069939 
L 1087.067499 307.8 
L 1088.518923 307.8 
L 1089.970347 181.026994 
L 1091.421771 204.217178 
L 1092.873195 182.573006 
L 1094.32462 210.401227 
L 1095.776044 162.474847 
L 1097.227468 208.855215 
L 1098.678892 154.744785 
L 1100.130316 123.82454 
L 1101.58174 215.039264 
L 1103.033164 173.296933 
L 1104.484588 204.217178 
L 1105.936012 283.063804 
L 1107.387437 300.069939 
L 1108.838861 301.615951 
L 1110.290285 295.431902 
L 1111.741709 296.977914 
L 1113.193133 292.339877 
L 1114.644557 191.84908 
L 1116.095981 108.364417 
L 1117.547405 221.223313 
L 1118.998829 157.83681 
L 1120.450254 140.830675 
L 1121.901678 224.315337 
L 1123.353102 184.119018 
L 1124.804526 207.309202 
L 1126.25595 276.879755 
L 1127.707374 301.615951 
L 1129.158798 164.020859 
L 1130.610222 207.309202 
L 1132.061647 159.382822 
L 1133.513071 164.020859 
L 1136.415919 292.339877 
L 1137.867343 164.020859 
L 1139.318767 208.855215 
L 1140.770191 290.793865 
L 1143.673039 78.990184 
L 1145.124464 216.585276 
L 1146.575888 184.119018 
L 1148.027312 228.953374 
L 1149.478736 177.934969 
L 1150.93016 210.401227 
L 1152.381584 283.063804 
L 1153.833008 164.020859 
L 1155.284432 187.211043 
L 1156.735856 154.744785 
L 1158.187281 179.480982 
L 1159.638705 261.419632 
L 1161.090129 159.382822 
L 1162.541553 191.84908 
L 1163.992977 276.879755 
L 1165.444401 142.376687 
L 1166.895825 191.84908 
L 1168.347249 286.155828 
L 1169.798673 170.204908 
L 1171.250098 201.125153 
L 1172.701522 164.020859 
L 1174.152946 184.119018 
L 1175.60437 276.879755 
L 1179.958642 272.241718 
L 1181.410066 266.057669 
L 1182.86149 253.689571 
L 1184.312915 130.008589 
L 1185.764339 202.671166 
L 1187.215763 160.928834 
L 1188.667187 201.125153 
L 1190.118611 270.695706 
L 1191.570035 130.008589 
L 1193.021459 184.119018 
L 1194.472883 275.333742 
L 1195.924307 307.8 
L 1197.375732 307.8 
L 1198.827156 164.020859 
L 1200.27858 184.119018 
L 1201.730004 137.73865 
L 1203.181428 173.296933 
L 1204.632852 130.008589 
L 1206.084276 205.76319 
L 1207.5357 153.198773 
L 1208.987124 208.855215 
L 1210.438549 275.333742 
L 1211.889973 136.192638 
L 1213.341397 187.211043 
L 1214.792821 145.468712 
L 1216.244245 179.480982 
L 1217.695669 262.965644 
L 1219.147093 159.382822 
L 1220.598517 105.272393 
L 1222.049941 145.468712 
L 1223.501366 215.039264 
L 1224.95279 296.977914 
L 1226.404214 176.388957 
L 1227.855638 208.855215 
L 1229.307062 171.75092 
L 1230.758486 151.652761 
L 1232.20991 210.401227 
L 1233.661334 283.063804 
L 1235.112758 145.468712 
L 1236.564183 201.125153 
L 1238.015607 286.155828 
L 1240.918455 55.8 
L 1242.369879 145.468712 
L 1243.821303 208.855215 
L 1245.272727 286.155828 
L 1245.272727 286.155828 
" style="fill:none;stroke:#1f77b4;stroke-linecap:square;stroke-width:1.5;"/>
   </g>
   <g id="patch_3">
    <path d="M 180 320.4 
L 180 43.2 
" style="fill:none;stroke:#000000;stroke-linecap:square;stroke-linejoin:miter;stroke-width:0.8;"/>
   </g>
   <g id="patch_4">
    <path d="M 1296 320.4 
L 1296 43.2 
" style="fill:none;stroke:#000000;stroke-linecap:square;stroke-linejoin:miter;stroke-width:0.8;"/>
   </g>
   <g id="patch_5">
    <path d="M 180 320.4 
L 1296 320.4 
" style="fill:none;stroke:#000000;stroke-linecap:square;stroke-linejoin:miter;stroke-width:0.8;"/>
   </g>
   <g id="patch_6">
    <path d="M 180 43.2 
L 1296 43.2 
" style="fill:none;stroke:#000000;stroke-linecap:square;stroke-linejoin:miter;stroke-width:0.8;"/>
   </g>
  </g>
 </g>
 <defs>
  <clipPath id="ped19c81dd7">
   <rect height="277.2" width="1116" x="180" y="43.2"/>
  </clipPath>
 </defs>
</svg>
